SplineFontDB: 3.0
FontName: LinguaFranca-Regular
FullName: Lingua Franca Regular
FamilyName: Lingua Franca
Weight: Regular
Copyright: Copyright (c) 1989, 1991 Adobe Systems Incorporated. All Rights Reserved.\nUtopia (R)\nUtopia is either a registered trademark or trademark of Adobe Systems\nIncorporated in the United States and/or other countries. Used under license.\n\nFor details of the license, cf. http://tug.org/fonts/utopia/LICENSE-utopia.txt.\n\nCopyright (c) 2003-2004 the GUTenberg project for the Greek glyphs, which are\nlicensed under the Latex Public Project License (LPPL).\n\nCopyright (c) 2006 Han The Thanh, for the modifications released under the name\n"Vntopia".\n\nCopyright (c) 2008-2014 Andrey V. Panov, for the modifications released under\nthe name "Heuristica".\n\nCopyright (c) 2014 Michael Sharpe for the open-box glyphs, which are licensed\nunder the SIL Open Font License (OFL).\n\nCopyright (c) 2016 Andreas Nolda, for the modifications released under the\ncurrent name.\n\nThis Font Software is licensed under the SIL Open Font License (OFL),\nVersion 1.1; see http://scripts.sil.org/ofl.
Version: 1.12
ItalicAngle: 0
UnderlinePosition: -100
UnderlineWidth: 50
Ascent: 750
Descent: 250
LayerCount: 2
Layer: 0 0 "Back"  1
Layer: 1 0 "Fore"  0
XUID: [1021 113 1689094547 4570092]
FSType: 8
OS2Version: 4
OS2_WeightWidthSlopeOnly: 0
OS2_UseTypoMetrics: 1
CreationTime: 1163929378
ModificationTime: 1475917414
PfmFamily: 17
TTFWeight: 400
TTFWidth: 5
LineGap: 0
VLineGap: 0
Panose: 2 2 6 3 5 7 5 2 2 4
OS2TypoAscent: 750
OS2TypoAOffset: 0
OS2TypoDescent: -250
OS2TypoDOffset: 0
OS2TypoLinegap: 200
OS2WinAscent: 950
OS2WinAOffset: 0
OS2WinDescent: 250
OS2WinDOffset: 0
HheadAscent: 950
HheadAOffset: 0
HheadDescent: -250
HheadDOffset: 0
OS2SubXSize: 650
OS2SubYSize: 700
OS2SubXOff: 0
OS2SubYOff: 140
OS2SupXSize: 650
OS2SupYSize: 700
OS2SupXOff: 0
OS2SupYOff: 480
OS2StrikeYSize: 49
OS2StrikeYPos: 258
OS2Vendor: 'PfEd'
OS2CodePages: 00000017.00000000

StartChar: .notdef
Encoding: 0 -1 0
AltUni2: 000000.ffffffff.0
Width: 608
Flags: MW
HStem: 0 43<153 455 153 518> 649 43<153 153 153 454>
VStem: 90 43<93 93 93 600> 475 43<93 600 600 600>
LayerCount: 2
Fore
SplineSet
90 0 m 1
 90 692 l 1
 518 692 l 1
 518 0 l 1
 90 0 l 1
133 93 m 1
 280 346 l 1
 133 600 l 1
 133 93 l 1
153 43 m 1
 455 43 l 1
 304 304 l 1
 153 43 l 1
153 649 m 1
 304 389 l 1
 454 649 l 1
 153 649 l 1
328 346 m 1
 475 93 l 1
 475 600 l 1
 328 346 l 1
EndSplineSet
EndChar

StartChar: exclam
Encoding: 33 33 2
Width: 265
GlyphClass: 2
Flags: HMW
HStem: -12 128<114 152.5> 687 20G<106 160.5>
VStem: 70 126<51 69.5 51 69.5> 78 111<640 640>
LayerCount: 2
Fore
SplineSet
78 640 m 2xd0
 74 685 79 707 133 707 c 0
 188 707 193 685 189 640 c 2
 147 209 l 1
 118 209 l 1
 78 640 l 2xd0
70 51 m 0xa0
 70 88 95 116 133 116 c 0
 172 116 196 88 196 51 c 1
 195 15 172 -12 133 -12 c 0
 95 -12 70 15 70 51 c 0xa0
EndSplineSet
EndChar

StartChar: quotedbl
Encoding: 34 34 3
Width: 458
GlyphClass: 2
Flags: MW
HStem: 722 20G<128.5 165.5 293.5 330.5>
VStem: 101 257
LayerCount: 2
Fore
SplineSet
267 689 m 2
 262 725 275 742 312 742 c 0
 349 742 362 725 357 689 c 2
 322 464 l 1
 302 464 l 1
 267 689 l 2
102 689 m 2
 97 725 110 742 147 742 c 0
 184 742 197 725 192 689 c 2
 157 464 l 1
 137 464 l 1
 102 689 l 2
EndSplineSet
EndChar

StartChar: numbersign
Encoding: 35 35 4
Width: 530
GlyphClass: 2
Flags: MW
HStem: 0 21G<60 115 60 60 249 303 249 249> 232 46<11 129 23 118 23 172 183 307 371 465> 411 46<67 162 55 173 67 216 227 351 415 509> 648 20G<225 279 279 279 414 467 467 467>
LayerCount: 2
Fore
SplineSet
11 232 m 1
 23 278 l 1
 129 278 l 1
 162 411 l 1
 55 411 l 1
 67 457 l 1
 173 457 l 1
 225 668 l 1
 279 668 l 1
 227 457 l 1
 362 457 l 1
 414 668 l 1
 467 668 l 1
 415 457 l 1
 519 457 l 1
 509 411 l 1
 404 411 l 1
 371 278 l 1
 475 278 l 1
 465 232 l 1
 360 232 l 1
 303 0 l 1
 249 0 l 1
 307 232 l 1
 172 232 l 1
 115 0 l 1
 60 0 l 1
 118 232 l 1
 11 232 l 1
183 278 m 1
 318 278 l 1
 351 411 l 1
 216 411 l 1
 183 278 l 1
EndSplineSet
EndChar

StartChar: dollar
Encoding: 36 36 5
Width: 530
GlyphClass: 2
Flags: MW
HStem: 0 35<243 243> 298 92<283 283> 632 35<221.5 243> 723 20G<243 283 283 283> 723 20G<243 283 283 283>
VStem: 44 75 56 79<485 553.5> 243 40<-102 0 -102 0 35 298 405 632 632 632 668 743> 385 73 400 87<105.5 196.5>
LayerCount: 2
Fore
SplineSet
44 110 m 0xf540
 44 140 70 161 90 161 c 0
 104 161 112 153 119 139 c 0xf540
 160 54 211 36 243 35 c 1
 243 311 l 1
 104 352 56 415 56 495 c 0
 56 612 149 665 243 667 c 1
 243 743 l 1
 283 743 l 1
 283 668 l 1
 402 665 458 607 458 565 c 0
 458 536 428 524 412 524 c 0
 398 524 391 529 385 544 c 0xf380
 361 603 323 630 283 633 c 1
 283 390 l 1
 417 352 487 291 487 183 c 0
 487 20 322 0 283 0 c 1
 283 -102 l 1
 243 -102 l 1
 243 0 l 1
 90 4 44 77 44 110 c 0xf540
135 522 m 0xe3
 135 448 192 422 243 405 c 1
 243 632 l 1
 200 632 135 604 135 522 c 0xe3
283 35 m 1
 332 34 400 59 400 152 c 0xe140
 400 241 349 277 283 298 c 1
 283 35 l 1
EndSplineSet
EndChar

StartChar: percent
Encoding: 37 37 6
Width: 838
GlyphClass: 2
Flags: MW
HStem: -12 32<604 656.5 604 683.5> -12 366<577 683.5> 314 32<181 233.5 181 260.5> 314 366<154 232.5 154 260.5> 322 32<605 655.5> 601 32<361 530 361 557 352 530> 648 32<182 232.5> 680 20G
VStem: 50 74<449 549 449 554.5> 291 74<449 523 439.5 549> 473 74<123 223 123 228.5> 714 74<123 223>
LayerCount: 2
Fore
SplineSet
50 497 m 0x27f0
 50 612 101 680 207 680 c 0
 258 680 291 666 318 646 c 0
 333 636 338 633 361 633 c 2
 530 633 l 1
 564 635 583 641 601 666 c 2
 625 700 l 1
 659 679 l 1
 219 -25 l 1
 183 2 l 1
 557 601 l 1
 352 601 l 1
 359 582 365 549 365 497 c 0
 365 382 314 314 207 314 c 0
 101 314 50 382 50 497 c 0x27f0
124 497 m 0
 124 401 155 346 207 346 c 0
 260 346 291 401 291 497 c 0
 291 601 258 648 207 648 c 0
 157 648 124 601 124 497 c 0
473 171 m 0
 473 286 524 354 630 354 c 0
 737 354 788 286 788 171 c 0
 788 56 737 -12 630 -12 c 0
 524 -12 473 56 473 171 c 0
547 171 m 0
 547 75 578 20 630 20 c 0
 683 20 714 75 714 171 c 0
 714 275 681 322 630 322 c 0
 580 322 547 275 547 171 c 0
EndSplineSet
EndChar

StartChar: ampersand
Encoding: 38 38 7
Width: 706
GlyphClass: 2
Flags: MW
HStem: -12 49<251 301.5> -7 25<687 692> 645 35<263.5 310>
VStem: 46 97<148.5 225> 126 77<521 564.5> 360 77<519.5 575> 562 76
LayerCount: 2
Fore
SplineSet
46 176 m 0xb6
 46 274 125 325 192 366 c 1
 160 406 126 453 126 521 c 0
 126 608 195 680 289 680 c 0
 370 680 437 630 437 542 c 0
 437 462 369 423 291 382 c 1
 348 312 411 243 501 161 c 1
 565 235 570 340 562 416 c 1
 587 430 615 436 638 433 c 1
 661 389 660 361 650 330 c 0
 628 266 587 206 527 136 c 1
 566 98 644 31 692 18 c 1
 687 -7 l 1x6e
 666 -5 l 2
 605 0 548 12 500 51 c 1
 472 73 l 1
 406 15 339 -12 264 -12 c 0
 140 -12 46 56 46 176 c 0xb6
143 196 m 0xb6
 143 101 208 37 294 37 c 0
 359 37 401 60 445 98 c 1
 355 179 278 259 212 338 c 1
 189 318 143 275 143 196 c 0xb6
203 546 m 0x2e
 203 496 227 452 268 406 c 1
 323 444 360 491 360 548 c 0
 360 602 335 645 285 645 c 0
 242 645 203 606 203 546 c 0x2e
EndSplineSet
EndChar

StartChar: quotesingle
Encoding: 39 39 8
Width: 278
GlyphClass: 2
Flags: MW
HStem: 722 20G<120.5 157.5>
VStem: 93 92
LayerCount: 2
Fore
SplineSet
94 689 m 2
 89 725 102 742 139 742 c 0
 176 742 189 725 184 689 c 2
 149 464 l 1
 129 464 l 1
 94 689 l 2
EndSplineSet
EndChar

StartChar: parenleft
Encoding: 40 40 9
Width: 350
GlyphClass: 2
Flags: MW
HStem: -128 25<325 325> 667 25<325 325>
VStem: 105 70<189 375>
LayerCount: 2
Fore
SplineSet
105 282 m 0
 105 468 150 685 325 692 c 1
 325 667 l 1
 262 654 175 568 175 282 c 0
 175 -6 267 -91 325 -103 c 1
 325 -128 l 1
 150 -121 105 96 105 282 c 0
EndSplineSet
EndChar

StartChar: parenright
Encoding: 41 41 10
Width: 350
GlyphClass: 2
Flags: MW
HStem: -128 25<25 25> 667 25<25 25>
VStem: 175 70<189 375 189 425>
LayerCount: 2
Fore
SplineSet
25 -103 m 1
 83 -91 175 -6 175 282 c 0
 175 568 88 654 25 667 c 1
 25 692 l 1
 200 685 245 468 245 282 c 0
 245 96 200 -121 25 -128 c 1
 25 -103 l 1
EndSplineSet
EndChar

StartChar: asterisk
Encoding: 42 42 11
Width: 412
GlyphClass: 2
Flags: MW
HStem: 687 20G<193.5 218.5>
VStem: 175 62<396 396> 194 24<489 489>
LayerCount: 2
Fore
SplineSet
57 628 m 0xa0
 72 650 90 648 105 635 c 2
 181 571 l 2
 191 562 198 565 194 582 c 2xa0
 175 676 l 2
 171 696 181 707 206 707 c 0
 231 707 241 696 237 676 c 2xc0
 218 582 l 2
 214 565 221 562 231 571 c 2
 308 636 l 2
 322 648 342 651 356 628 c 0
 366 612 367 592 343 583 c 2
 247 545 l 1
 229 539 227 531 244 525 c 2
 340 486 l 2
 362 477 367 457 353 437 c 0
 340 419 321 416 305 432 c 2
 233 501 l 2
 219 514 215 505 218 489 c 2xa0
 237 396 l 2
 242 373 233 356 206 356 c 0
 179 356 170 373 175 396 c 2xc0
 194 489 l 2
 197 505 193 514 179 501 c 2
 107 433 l 2
 90 417 72 419 59 437 c 1
 46 457 50 477 72 486 c 2
 168 525 l 2
 185 531 183 539 165 545 c 2
 70 582 l 2
 45 592 46 612 57 628 c 0xa0
EndSplineSet
EndChar

StartChar: plus
Encoding: 43 43 12
Width: 570
GlyphClass: 2
Flags: MW
HStem: 0 21G<251 319 251 251> 221 58<43 251 43 251 319 527> 470 20G<251 319 319 319>
VStem: 251 68<0 221 0 221 279 490>
LayerCount: 2
Fore
SplineSet
43 221 m 1
 43 279 l 1
 251 279 l 1
 251 490 l 1
 319 490 l 1
 319 279 l 1
 527 279 l 1
 527 221 l 1
 319 221 l 1
 319 0 l 1
 251 0 l 1
 251 221 l 1
 43 221 l 1
EndSplineSet
EndChar

StartChar: comma
Encoding: 44 44 13
Width: 265
GlyphClass: 2
Flags: MW
HStem: -141 282<70 144>
VStem: 109 84<11.5 15.5>
LayerCount: 2
Fore
SplineSet
51 -122 m 1
 83 -87 109 -47 109 -6 c 0
 109 37 76 55 76 91 c 0
 76 117 94 141 125 141 c 0
 163 141 193 104 193 51 c 0
 193 -28 120 -94 70 -141 c 1
 51 -122 l 1
EndSplineSet
EndChar

StartChar: hyphen
Encoding: 45 45 14
Width: 392
GlyphClass: 2
Flags: MW
HStem: 216 70<74 319 74 319>
VStem: 74 245<216 286 216 286>
LayerCount: 2
Fore
SplineSet
74 216 m 1
 74 286 l 1
 319 286 l 1
 319 216 l 1
 74 216 l 1
EndSplineSet
EndChar

StartChar: period
Encoding: 46 46 15
Width: 265
GlyphClass: 2
Flags: MW
HStem: -12 128<114 152.5>
VStem: 70 126<51 69.5 51 69.5>
LayerCount: 2
Fore
SplineSet
70 51 m 0
 70 88 95 116 133 116 c 0
 172 116 196 88 196 51 c 1
 195 15 172 -12 133 -12 c 0
 95 -12 70 15 70 51 c 0
EndSplineSet
EndChar

StartChar: slash
Encoding: 47 47 16
Width: 460
GlyphClass: 2
Flags: MW
HStem: -15 21G<92 92 92 159> 687 20G<302 369 369 369>
VStem: 92 277
LayerCount: 2
Fore
SplineSet
92 -15 m 1
 302 707 l 1
 369 707 l 1
 159 -15 l 1
 92 -15 l 1
EndSplineSet
Substitution2: "'ss01' Style Set 1 lookup 10 subtable" slash.alt
EndChar

StartChar: zero
Encoding: 48 48 17
Width: 530
GlyphClass: 2
Flags: MW
HStem: -12 35<217.5 312.5 217.5 347.5> 645 35<217.5 312.5>
VStem: 41 102<252.5 415.5 252.5 434> 387 102<252.5 415.5>
LayerCount: 2
Fore
SplineSet
41 334 m 0
 41 534 100 680 265 680 c 0
 430 680 489 534 489 334 c 0
 489 134 430 -12 265 -12 c 0
 100 -12 41 134 41 334 c 0
143 334 m 0
 143 171 170 23 265 23 c 0
 360 23 387 171 387 334 c 0
 387 497 360 645 265 645 c 0
 170 645 143 497 143 334 c 0
EndSplineSet
Substitution2: "'pnum' Proportional Numbers lookup 7 subtable" zero.pnum
Substitution2: "'onum' Oldstyle Figures lookup 6 subtable" zero.oldstyle
Substitution2: "'sups' Superscript lookup 5 subtable" zerosuperior
EndChar

StartChar: one
Encoding: 49 49 18
Width: 530
GlyphClass: 2
Flags: MW
HStem: 0 32 660 20G<315 315>
VStem: 226 94<85 570 570 584.5>
LayerCount: 2
Fore
SplineSet
109 0 m 1
 109 29 l 1
 193 36 l 2
 204 37 212 40 217 47 c 0
 223 54 226 66 226 85 c 2
 226 570 l 2
 226 599 219 607 202 609 c 2
 109 620 l 1
 109 645 l 1
 315 680 l 1
 320 674 l 1
 320 85 l 2
 320 46 332 38 353 36 c 2
 437 29 l 1
 437 0 l 1
 109 0 l 1
EndSplineSet
Substitution2: "'pnum' Proportional Numbers lookup 7 subtable" one.pnum
Substitution2: "'onum' Oldstyle Figures lookup 6 subtable" one.oldstyle
Substitution2: "'sups' Superscript lookup 5 subtable" onesuperior
EndChar

StartChar: two
Encoding: 50 50 19
Width: 530
GlyphClass: 2
Flags: MW
HStem: 0 76<120 376 376 396 120 451> 645 35<223 292.5>
VStem: 353 105<453.5 543.5>
LayerCount: 2
Fore
SplineSet
27 10 m 1
 46 88 89 156 212 263 c 0
 299 340 353 400 353 507 c 0
 353 580 331 645 254 645 c 0
 192 645 153 590 137 522 c 0
 133 505 126 495 108 495 c 0
 91 495 53 511 53 545 c 0
 53 597 124 680 261 680 c 0
 366 680 458 632 458 493 c 0
 458 381 384 336 288 266 c 0
 195 199 136 128 120 76 c 1
 376 76 l 2
 416 76 436 83 457 137 c 1
 485 132 l 1
 451 0 l 1
 37 0 l 1
 27 10 l 1
EndSplineSet
Substitution2: "'pnum' Proportional Numbers lookup 7 subtable" two.pnum
Substitution2: "'onum' Oldstyle Figures lookup 6 subtable" two.oldstyle
Substitution2: "'sups' Superscript lookup 5 subtable" twosuperior
EndChar

StartChar: three
Encoding: 51 51 20
Width: 530
GlyphClass: 2
Flags: MW
HStem: -12 35<205 273.5 205 309.5> 338 56<141.5 154> 645 35<215 282.5>
VStem: 27 83 53 74 341 103<489 547> 368 105<125 227.5>
LayerCount: 2
Fore
SplineSet
27 102 m 0xf2
 27 138 62 157 80 157 c 0
 94 157 104 148 110 129 c 0
 129 73 172 23 238 23 c 0
 309 23 368 65 368 184 c 0xf2
 368 271 320 348 235 348 c 0
 187 348 160 338 148 338 c 0
 135 338 130 349 130 366 c 0
 130 384 135 394 148 394 c 0
 160 394 187 384 235 384 c 0
 320 384 341 459 341 519 c 0
 341 575 322 645 243 645 c 0
 187 645 149 601 127 533 c 0
 123 520 115 513 102 513 c 0
 88 513 53 530 53 561 c 0
 53 604 118 680 250 680 c 0
 357 680 444 631 444 520 c 0xec
 444 421 357 381 303 372 c 1
 303 368 l 1
 358 363 473 323 473 189 c 0
 473 61 382 -12 237 -12 c 0
 96 -12 27 59 27 102 c 0xf2
EndSplineSet
Substitution2: "'pnum' Proportional Numbers lookup 7 subtable" three.pnum
Substitution2: "'onum' Oldstyle Figures lookup 6 subtable" three.oldstyle
Substitution2: "'sups' Superscript lookup 5 subtable" threesuperior
EndChar

StartChar: four
Encoding: 52 52 21
Width: 530
GlyphClass: 2
Flags: MW
HStem: 0 32 179 47<91 300 91 300 390 493> 648 20G<317 390 390 390>
VStem: 300 90<77 179 226 571 571 571>
LayerCount: 2
Fore
SplineSet
19 200 m 1
 111 356 223 530 317 668 c 1
 390 668 l 1
 390 226 l 1
 493 226 l 1
 493 179 l 1
 390 179 l 1
 390 77 l 2
 390 43 397 37 420 34 c 2
 465 29 l 1
 465 0 l 1
 201 0 l 1
 201 29 l 1
 265 35 l 2
 289 37 300 43 300 77 c 2
 300 179 l 1
 28 179 l 1
 19 200 l 1
91 226 m 1
 300 226 l 1
 300 571 l 1
 298 571 l 1
 221 450 151 335 91 226 c 1
EndSplineSet
Substitution2: "'pnum' Proportional Numbers lookup 7 subtable" four.pnum
Substitution2: "'onum' Oldstyle Figures lookup 6 subtable" four.oldstyle
Substitution2: "'sups' Superscript lookup 5 subtable" foursuperior
EndChar

StartChar: five
Encoding: 53 53 22
Width: 530
GlyphClass: 2
Flags: MW
HStem: -12 35<212 290.5 212 322.5> 383 44<245.5 274> 592 76<167.5 177 177 426>
VStem: 40 81 376 104<152.5 270>
LayerCount: 2
Fore
SplineSet
40 102 m 0
 40 135 73 155 93 155 c 0
 107 155 116 146 121 131 c 0
 141 74 177 23 247 23 c 0
 334 23 376 101 376 204 c 0
 376 336 306 383 242 383 c 0
 188 383 147 360 105 312 c 1
 81 324 l 1
 101 659 l 1
 111 668 l 1
 445 668 l 1
 450 660 l 1
 426 592 l 1
 177 592 l 2
 158 592 151 588 148 563 c 2
 125 376 l 1
 127 374 l 1
 159 403 218 427 273 427 c 0
 392 427 480 355 480 215 c 0
 480 88 405 -12 240 -12 c 0
 110 -12 40 56 40 102 c 0
EndSplineSet
Substitution2: "'pnum' Proportional Numbers lookup 7 subtable" five.pnum
Substitution2: "'onum' Oldstyle Figures lookup 6 subtable" five.oldstyle
Substitution2: "'sups' Superscript lookup 5 subtable" fivesuperior
EndChar

StartChar: six
Encoding: 54 54 23
Width: 530
GlyphClass: 2
Flags: MW
HStem: -12 35<230.5 316 230.5 346> 371 51<268.5 305.5> 645 35<252 320>
VStem: 44 99<336 336 336 433.5> 399 100<146.5 256.5>
LayerCount: 2
Fore
SplineSet
44 309 m 0
 44 558 141 680 300 680 c 0
 420 680 469 613 469 573 c 0
 469 545 438 528 416 528 c 0
 401 528 393 537 390 549 c 0
 375 606 343 645 297 645 c 0
 207 645 144 556 143 336 c 1
 145 336 l 1
 172 369 229 422 308 422 c 0
 415 422 499 349 499 214 c 0
 499 78 420 -12 272 -12 c 0
 122 -12 44 93 44 309 c 0
145 236 m 0
 145 116 187 23 274 23 c 0
 358 23 399 94 399 199 c 0
 399 314 337 371 274 371 c 0
 190 371 145 297 145 236 c 0
EndSplineSet
Substitution2: "'pnum' Proportional Numbers lookup 7 subtable" six.pnum
Substitution2: "'onum' Oldstyle Figures lookup 6 subtable" six.oldstyle
Substitution2: "'sups' Superscript lookup 5 subtable" sixsuperior
EndChar

StartChar: seven
Encoding: 55 55 24
Width: 530
GlyphClass: 2
Flags: MW
HStem: -12 21G<205.5 235.5> 592 76<126.5 149 149 419>
VStem: 167 103
LayerCount: 2
Fore
SplineSet
41 528 m 1
 72 668 l 1
 488 668 l 1
 497 657 l 1
 462 531 409 469 345 357 c 0
 292 264 265 158 270 26 c 0
 271 -3 250 -12 221 -12 c 0
 190 -12 167 -4 167 29 c 0
 167 147 224 259 310 382 c 0
 391 498 409 556 419 592 c 1
 149 592 l 2
 104 592 91 577 78 549 c 2
 68 528 l 1
 41 528 l 1
EndSplineSet
Substitution2: "'pnum' Proportional Numbers lookup 7 subtable" seven.pnum
Substitution2: "'onum' Oldstyle Figures lookup 6 subtable" seven.oldstyle
Substitution2: "'sups' Superscript lookup 5 subtable" sevensuperior
EndChar

StartChar: eight
Encoding: 56 56 25
Width: 530
GlyphClass: 2
Flags: MW
HStem: -12 35<223 307 223 346> 338 36<229 301 229 305> 645 35<231 299>
VStem: 42 100<135 224.5 135 233> 64 97<478 550.5 478 564> 369 97<478 550.5> 388 100<135 224.5>
LayerCount: 2
Fore
SplineSet
42 182 m 0xf2
 42 284 107 342 174 358 c 1
 174 361 l 1
 114 377 64 428 64 510 c 0
 64 618 150 680 265 680 c 0
 380 680 466 618 466 510 c 0xec
 466 428 417 377 356 361 c 1
 356 358 l 1
 424 342 488 284 488 182 c 0
 488 81 427 -12 265 -12 c 0
 103 -12 42 81 42 182 c 0xf2
142 179 m 0xf2
 142 91 181 23 265 23 c 0
 349 23 388 91 388 179 c 0
 388 270 345 338 265 338 c 0
 185 338 142 270 142 179 c 0xf2
161 512 m 0xec
 161 444 193 374 265 374 c 0
 337 374 369 444 369 512 c 0
 369 589 333 645 265 645 c 0
 197 645 161 589 161 512 c 0xec
EndSplineSet
Substitution2: "'pnum' Proportional Numbers lookup 7 subtable" eight.pnum
Substitution2: "'onum' Oldstyle Figures lookup 6 subtable" eight.oldstyle
Substitution2: "'sups' Superscript lookup 5 subtable" eightsuperior
EndChar

StartChar: nine
Encoding: 57 57 26
Width: 530
GlyphClass: 2
Flags: MW
HStem: -12 35<205 270.5> 268 53<220 260> 645 35<216 288 192 295>
VStem: 36 100<437 526> 379 98<320.5 352>
LayerCount: 2
Fore
SplineSet
36 457 m 0
 36 595 128 680 256 680 c 0
 320 680 375 658 413 613 c 0
 452 566 477 485 477 361 c 0
 477 216 452 128 411 71 c 0
 373 18 311 -12 230 -12 c 0
 109 -12 56 49 56 93 c 0
 56 124 84 144 103 144 c 0
 120 144 127 136 131 123 c 0
 146 76 171 23 239 23 c 0
 303 23 338 73 356 139 c 0
 374 208 379 289 379 352 c 1
 377 352 l 1
 343 303 291 268 229 268 c 0
 126 268 36 332 36 457 c 0
136 485 m 0
 136 389 181 321 259 321 c 0
 312 321 351 353 367 400 c 0
 373 416 374 436 374 453 c 0
 374 550 335 645 255 645 c 0
 177 645 136 577 136 485 c 0
EndSplineSet
Substitution2: "'pnum' Proportional Numbers lookup 7 subtable" nine.pnum
Substitution2: "'onum' Oldstyle Figures lookup 6 subtable" nine.oldstyle
Substitution2: "'sups' Superscript lookup 5 subtable" ninesuperior
EndChar

StartChar: colon
Encoding: 58 58 27
Width: 265
GlyphClass: 2
Flags: MW
HStem: -12 128<114 152.5> 362 128<114 152.5>
VStem: 70 126<51 69.5 51 69.5 425 443.5>
LayerCount: 2
Fore
SplineSet
70 425 m 0
 70 462 95 490 133 490 c 0
 172 490 196 462 196 425 c 1
 195 389 172 362 133 362 c 0
 95 362 70 389 70 425 c 0
70 51 m 0
 70 88 95 116 133 116 c 0
 172 116 196 88 196 51 c 1
 195 15 172 -12 133 -12 c 0
 95 -12 70 15 70 51 c 0
EndSplineSet
EndChar

StartChar: semicolon
Encoding: 59 59 28
Width: 265
GlyphClass: 2
Flags: MW
HStem: -141 282<70 144> 362 128<114 152.5>
VStem: 70 126<425 443.5 425 443.5> 109 84<11.5 15.5>
LayerCount: 2
Fore
SplineSet
70 425 m 0x60
 70 462 95 490 133 490 c 0
 172 490 196 462 196 425 c 1
 195 389 172 362 133 362 c 0
 95 362 70 389 70 425 c 0x60
51 -122 m 1x90
 83 -87 109 -47 109 -6 c 0
 109 37 76 55 76 91 c 0
 76 117 94 141 125 141 c 0
 163 141 193 104 193 51 c 0
 193 -28 120 -94 70 -141 c 1
 51 -122 l 1x90
EndSplineSet
EndChar

StartChar: less
Encoding: 60 60 29
Width: 570
GlyphClass: 2
Flags: MW
HStem: 479 20G<524 524>
VStem: 46 59<250 250 250 290 250 290>
LayerCount: 2
Fore
SplineSet
46 210 m 1
 46 290 l 1
 524 499 l 1
 524 430 l 1
 105 250 l 1
 524 70 l 1
 524 1 l 1
 46 210 l 1
EndSplineSet
EndChar

StartChar: equal
Encoding: 61 61 30
Width: 570
GlyphClass: 2
Flags: MW
HStem: 111 58<43 527 43 527> 331 58<43 527 43 527>
VStem: 43 484<111 169 111 169 331 389 111 389>
LayerCount: 2
Fore
SplineSet
43 111 m 1
 43 169 l 1
 527 169 l 1
 527 111 l 1
 43 111 l 1
43 331 m 1
 43 389 l 1
 527 389 l 1
 527 331 l 1
 43 331 l 1
EndSplineSet
EndChar

StartChar: greater
Encoding: 62 62 31
Width: 570
GlyphClass: 2
Flags: MW
HStem: 479 20G<46 46>
VStem: 465 59<250 250>
LayerCount: 2
Fore
SplineSet
46 1 m 1
 46 70 l 1
 465 250 l 1
 46 430 l 1
 46 499 l 1
 524 290 l 1
 524 210 l 1
 46 1 l 1
EndSplineSet
EndChar

StartChar: question
Encoding: 63 63 32
Width: 389
GlyphClass: 2
Flags: MW
HStem: -12 125<172 208> 199 44<170 261> 672 35<176 219>
VStem: 29 85 90 97<288.5 318.5> 128 124<32 68.5> 260 99<539.5 600>
LayerCount: 2
Fore
SplineSet
29 591 m 0xf2
 29 624 69 707 201 707 c 0
 291 707 359 662 359 571 c 0
 359 492 297 455 263 431 c 0
 213 396 187 360 187 316 c 0
 187 261 234 243 255 243 c 0
 267 243 278 245 285 247 c 1
 293 227 l 1
 266 205 228 199 197 199 c 0
 143 199 90 233 90 296 c 0xea
 90 341 111 367 171 413 c 0
 216 447 260 508 260 571 c 0
 260 629 242 672 196 672 c 0
 156 672 128 640 114 565 c 0
 111 548 97 541 82 541 c 0
 65 541 29 554 29 591 c 0xf2
128 50 m 0xe6
 128 87 154 113 190 113 c 0
 226 113 252 87 252 50 c 0
 252 14 226 -12 190 -12 c 0
 154 -12 128 14 128 50 c 0xe6
EndSplineSet
EndChar

StartChar: at
Encoding: 64 64 33
Width: 793
GlyphClass: 2
Flags: MW
HStem: -15 39<303.5 418> 172 38<556 588.5> 504 29<423.5 486> 666 41<350.5 522>
VStem: 46 78<245.5 398.5 245.5 430> 223 82<253.5 292> 460 69<230.5 244.5> 705 50<357.5 492.5>
LayerCount: 2
Fore
SplineSet
46 303 m 0
 46 557 243 707 449 707 c 0
 639 707 755 576 755 414 c 0
 755 277 647 172 530 172 c 0
 487 172 460 188 460 235 c 0
 460 254 464 279 474 309 c 1
 472 310 l 1
 444 260 368 172 289 172 c 0
 259 172 223 190 223 255 c 0
 223 329 297 533 475 533 c 0
 498 533 511 530 530 520 c 1
 534 528 l 1
 599 528 l 1
 533 270 l 2
 530 260 529 251 529 244 c 0
 529 217 545 210 567 210 c 0
 634 210 705 306 705 409 c 0
 705 576 593 666 451 666 c 0
 250 666 124 490 124 307 c 0
 124 184 190 24 415 24 c 0
 473 24 539 36 584 55 c 1
 592 30 l 1
 530 -4 449 -15 387 -15 c 0
 220 -15 46 87 46 303 c 0
305 270 m 0
 305 237 317 219 339 219 c 0
 410 219 504 397 523 490 c 1
 508 500 496 504 476 504 c 0
 371 504 305 331 305 270 c 0
EndSplineSet
EndChar

StartChar: A
Encoding: 65 65 34
Width: 635
GlyphClass: 2
Flags: MW
HStem: 0 29<-29 -29 -29 191> 267 38<188 387 188 399 175 387> 672 20G<277 351 351 351>
AnchorPoint: "Anchor-5" 314 707 basechar 0
AnchorPoint: "Anchor-4" 310 0 basechar 0
AnchorPoint: "Anchor-1" 519 0 basechar 0
LayerCount: 2
Fore
SplineSet
-29 0 m 1
 -29 29 l 1
 34 32 43 44 64 98 c 0
 99 189 141 309 172 396 c 2
 277 692 l 1
 351 692 l 1
 563 89 l 2
 581 37 592 34 650 29 c 1
 650 0 l 1
 394 0 l 1
 394 29 l 1
 439 33 l 2
 471 36 476 47 466 76 c 2
 399 267 l 1
 175 267 l 1
 152 196 131 134 114 74 c 0
 106 47 109 37 139 34 c 2
 191 29 l 1
 191 0 l 1
 -29 0 l 1
188 305 m 1
 387 305 l 1
 288 591 l 1
 285 591 l 1
 255 503 220 405 188 305 c 1
EndSplineSet
Substitution2: "'c2sc' Capitals to Small Capitals lookup 4 subtable" A.sc
EndChar

StartChar: B
Encoding: 66 66 35
Width: 646
GlyphClass: 2
Flags: MW
HStem: 0 35<280 345> 355 35<224 291 291 296 224 291> 657 35<266 324 324 341.5>
VStem: 125 99<93 112 112 355 390 599 599 607> 458 105<494.5 560.5 494.5 578.5> 488 107<127 240>
CounterMasks: 1 e0
AnchorPoint: "Anchor-5" 300 707 basechar 0
AnchorPoint: "Anchor-4" 300 0 basechar 0
LayerCount: 2
Fore
SplineSet
35 0 m 1xf4
 35 29 l 1
 123 35 125 37 125 93 c 2
 125 599 l 2
 125 655 123 657 35 663 c 1
 35 692 l 1
 324 692 l 2
 404 692 462 682 501 656 c 0
 541 629 563 588 563 533 c 0xf8
 563 456 508 398 414 379 c 1
 414 377 l 1
 511 364 595 312 595 194 c 0
 595 55 497 0 345 0 c 2
 35 0 l 1xf4
224 112 m 2
 224 50 240 35 320 35 c 0
 406 35 488 67 488 187 c 0xf4
 488 293 420 355 296 355 c 2
 224 355 l 1
 224 112 l 2
224 390 m 1
 291 390 l 2
 395 390 458 429 458 527 c 0xf8
 458 630 378 657 305 657 c 0
 227 657 224 650 224 607 c 2
 224 390 l 1
EndSplineSet
Substitution2: "'c2sc' Capitals to Small Capitals lookup 4 subtable" B.sc
EndChar

StartChar: C
Encoding: 67 67 36
Width: 684
GlyphClass: 2
Flags: MW
HStem: -15 35<359 455> 672 35<359.5 462>
VStem: 48 112<283.5 397.5> 603 30<512 668> 619 30<200 200>
AnchorPoint: "Anchor-5" 420 707 basechar 0
AnchorPoint: "Anchor-4" 415 0 basechar 0
LayerCount: 2
Fore
SplineSet
48 341 m 0xe8
 48 454 82 540 139 604 c 0
 199 671 298 707 421 707 c 0
 512 707 588 689 633 668 c 1
 633 512 l 1
 603 512 l 1xf0
 584 630 513 672 411 672 c 0
 225 672 160 508 160 344 c 0
 160 223 203 20 409 20 c 0
 540 20 591 96 619 200 c 1
 649 200 l 1
 635 33 l 1
 587 7 495 -15 415 -15 c 0
 303 -15 205 8 143 70 c 0
 83 130 48 224 48 341 c 0xe8
EndSplineSet
Substitution2: "'c2sc' Capitals to Small Capitals lookup 4 subtable" C.sc
EndChar

StartChar: D
Encoding: 68 68 37
Width: 779
GlyphClass: 2
Flags: MW
HStem: 0 35<284.5 347> 657 35<286.5 367 367 446>
VStem: 125 99<93 125 125 599 599 600> 619 112<268.5 438.5>
AnchorPoint: "Anchor-5" 368 707 basechar 0
AnchorPoint: "Anchor-4" 368 0 basechar 0
LayerCount: 2
Fore
SplineSet
35 0 m 1
 35 29 l 1
 123 35 125 37 125 93 c 2
 125 599 l 2
 125 655 123 657 35 663 c 1
 35 692 l 1
 367 692 l 2
 658 692 731 522 731 358 c 0
 731 179 654 0 347 0 c 2
 35 0 l 1
224 125 m 2
 224 46 241 35 328 35 c 0
 496 35 619 102 619 354 c 0
 619 523 552 657 340 657 c 0
 233 657 224 652 224 600 c 2
 224 125 l 2
EndSplineSet
Substitution2: "'c2sc' Capitals to Small Capitals lookup 4 subtable" D.sc
EndChar

StartChar: E
Encoding: 69 69 38
Width: 606
GlyphClass: 2
Flags: MW
HStem: 0 35<329.5 416 329.5 565> 341 38<224 364 224 364> 657 35<245 261 261 359>
VStem: 125 99<95.5 120 120 341 379 599 599 621> 462 30<254 465 254 465> 510 30<528 692> 547 30<173 173>
AnchorPoint: "Anchor-5" 306 707 basechar 0
AnchorPoint: "Anchor-4" 306 0 basechar 0
AnchorPoint: "Anchor-1" 306 0 basechar 0
LayerCount: 2
Fore
SplineSet
35 0 m 1
 35 29 l 1
 123 35 125 37 125 93 c 2
 125 599 l 2
 125 655 123 657 35 663 c 1
 35 692 l 1
 540 692 l 1
 540 528 l 1
 510 528 l 1
 496 632 473 657 359 657 c 2
 261 657 l 2
 229 657 224 653 224 621 c 2
 224 379 l 1
 364 379 l 2
 449 379 453 403 462 465 c 1
 492 465 l 1
 492 254 l 1
 462 254 l 1
 453 317 449 341 364 341 c 2
 224 341 l 1
 224 120 l 2
 224 71 228 54 249 45 c 0
 270 37 306 35 353 35 c 0
 479 35 524 51 547 173 c 1
 577 173 l 1
 565 0 l 1
 35 0 l 1
EndSplineSet
Substitution2: "'c2sc' Capitals to Small Capitals lookup 4 subtable" E.sc
EndChar

StartChar: F
Encoding: 70 70 39
Width: 580
GlyphClass: 2
Flags: MW
HStem: 0 29<35 35 35 330> 327 38<224 364 224 364> 657 35<244.5 261 261 360>
VStem: 125 99<93 327 365 599 599 621> 462 30<239 453 239 453> 513 30<532 692>
AnchorPoint: "Anchor-5" 289 707 basechar 0
AnchorPoint: "Anchor-4" 289 0 basechar 0
LayerCount: 2
Fore
SplineSet
35 0 m 1
 35 29 l 1
 123 35 125 37 125 93 c 2
 125 599 l 2
 125 655 123 657 35 663 c 1
 35 692 l 1
 543 692 l 1
 543 532 l 1
 513 532 l 1
 499 634 476 657 360 657 c 2
 261 657 l 2
 228 657 224 654 224 621 c 2
 224 365 l 1
 364 365 l 2
 449 365 453 389 462 453 c 1
 492 453 l 1
 492 239 l 1
 462 239 l 1
 453 303 449 327 364 327 c 2
 224 327 l 1
 224 93 l 2
 224 37 227 35 330 29 c 1
 330 0 l 1
 35 0 l 1
EndSplineSet
Substitution2: "'c2sc' Capitals to Small Capitals lookup 4 subtable" F.sc
EndChar

StartChar: G
Encoding: 71 71 40
Width: 734
GlyphClass: 2
Flags: MW
HStem: -15 35<380 450 318 459> 286 29<449 725 449 725> 672 35<355 470 355 475>
VStem: 48 112<286.5 385> 555 99<89 224 27 248.5> 615 30<509 666>
AnchorPoint: "Anchor-5" 429 707 basechar 0
AnchorPoint: "Anchor-4" 424 0 basechar 0
LayerCount: 2
Fore
SplineSet
48 333 m 0xf8
 48 437 72 517 123 584 c 0
 180 658 280 707 430 707 c 0
 510 707 596 690 645 666 c 1
 645 509 l 1
 615 509 l 1xf4
 594 622 530 672 420 672 c 0
 223 672 160 507 160 349 c 0
 160 224 203 20 433 20 c 0
 467 20 495 25 521 35 c 0
 542 43 555 54 555 89 c 2
 555 224 l 2
 555 273 550 279 449 286 c 1
 449 315 l 1
 725 315 l 1
 725 286 l 1
 659 279 654 274 654 224 c 2
 654 27 l 1
 591 7 494 -15 424 -15 c 0
 336 -15 248 -4 172 49 c 0
 99 101 48 204 48 333 c 0xf8
EndSplineSet
Substitution2: "'c2sc' Capitals to Small Capitals lookup 4 subtable" G.sc
EndChar

StartChar: H
Encoding: 72 72 41
Width: 798
GlyphClass: 2
Flags: MW
HStem: 0 29<35 35 35 314> 341 38<224 574 224 574> 663 29<35 314 35 314>
VStem: 125 99<93 341 379 599> 574 99<93 341 341 341 379 599>
CounterMasks: 1 e0
AnchorPoint: "Anchor-5" 399 707 basechar 0
AnchorPoint: "Anchor-4" 399 0 basechar 0
LayerCount: 2
Fore
SplineSet
35 0 m 1
 35 29 l 1
 123 35 125 37 125 93 c 2
 125 599 l 2
 125 655 123 657 35 663 c 1
 35 692 l 1
 314 692 l 1
 314 663 l 1
 227 657 224 655 224 599 c 2
 224 379 l 1
 574 379 l 1
 574 599 l 2
 574 655 572 657 484 663 c 1
 484 692 l 1
 763 692 l 1
 763 663 l 1
 676 657 673 655 673 599 c 2
 673 93 l 2
 673 37 676 35 763 29 c 1
 763 0 l 1
 484 0 l 1
 484 29 l 1
 572 35 574 37 574 93 c 2
 574 341 l 1
 224 341 l 1
 224 93 l 2
 224 37 227 35 314 29 c 1
 314 0 l 1
 35 0 l 1
EndSplineSet
Substitution2: "'c2sc' Capitals to Small Capitals lookup 4 subtable" H.sc
EndChar

StartChar: I
Encoding: 73 73 42
Width: 349
GlyphClass: 2
Flags: MW
HStem: 0 29<35 35 35 314> 663 29<35 314 35 314>
VStem: 125 99<93 599>
AnchorPoint: "Anchor-5" 174 707 basechar 0
AnchorPoint: "Anchor-4" 174 0 basechar 0
AnchorPoint: "Anchor-1" 174 0 basechar 0
LayerCount: 2
Fore
SplineSet
35 0 m 1
 35 29 l 1
 123 35 125 37 125 93 c 2
 125 599 l 2
 125 655 123 657 35 663 c 1
 35 692 l 1
 314 692 l 1
 314 663 l 1
 227 657 224 655 224 599 c 2
 224 93 l 2
 224 37 227 35 314 29 c 1
 314 0 l 1
 35 0 l 1
EndSplineSet
Substitution2: "'c2sc' Capitals to Small Capitals lookup 4 subtable" I.sc
EndChar

StartChar: J
Encoding: 74 74 43
Width: 350
GlyphClass: 2
Flags: MW
HStem: 663 29<44 323 44 323>
VStem: 134 99<137 143 143 599>
AnchorPoint: "Anchor-5" 184 707 basechar 0
AnchorPoint: "Anchor-4" 162 0 basechar 0
LayerCount: 2
Fore
SplineSet
0 -89 m 1
 35 -80 71 -63 93 -37 c 0
 117 -8 134 40 134 137 c 2
 134 599 l 2
 134 655 132 657 44 663 c 1
 44 692 l 1
 323 692 l 1
 323 663 l 1
 236 657 233 655 233 599 c 2
 233 143 l 2
 233 41 221 -42 131 -83 c 0
 92 -101 44 -112 5 -114 c 1
 0 -89 l 1
EndSplineSet
Substitution2: "'c2sc' Capitals to Small Capitals lookup 4 subtable" J.sc
EndChar

StartChar: K
Encoding: 75 75 44
Width: 658
GlyphClass: 2
Flags: MW
HStem: -5 24<667 667> 0 29<35 35 35 314> 663 29<35 314 35 314>
VStem: 125 99<93 357 363 599>
AnchorPoint: "Anchor-5" 353 707 basechar 0
AnchorPoint: "Anchor-4" 353 0 basechar 0
LayerCount: 2
Fore
SplineSet
35 0 m 1x70
 35 29 l 1x70
 123 35 125 37 125 93 c 2
 125 599 l 2
 125 655 123 657 35 663 c 1
 35 692 l 1
 314 692 l 1
 314 663 l 1
 227 657 224 655 224 599 c 2
 224 363 l 1
 296 437 409 555 467 620 c 0
 489 646 487 658 466 660 c 2
 428 663 l 1
 428 692 l 1
 671 692 l 1
 671 663 l 1
 586 658 566 647 514 601 c 0
 453 548 376 472 310 399 c 1
 378 297 462 196 551 101 c 0
 594 56 626 28 667 19 c 1
 667 -5 l 1xb0
 604 -2 l 2
 542 0 489 18 431 84 c 0
 353 172 284 266 227 353 c 1
 226 357 l 1
 224 357 l 1
 224 93 l 2
 224 37 227 35 314 29 c 1
 314 0 l 1
 35 0 l 1x70
EndSplineSet
Substitution2: "'c2sc' Capitals to Small Capitals lookup 4 subtable" K.sc
EndChar

StartChar: L
Encoding: 76 76 45
Width: 568
GlyphClass: 2
Flags: MW
HStem: 0 35<331 408.5 331 554> 663 29<35 320 35 320>
VStem: 125 99<95.5 120 120 599> 536 30<179 179>
AnchorPoint: "Anchor-5" 300 707 basechar 0
AnchorPoint: "Anchor-4" 300 0 basechar 0
LayerCount: 2
Fore
SplineSet
35 0 m 1
 35 29 l 1
 123 35 125 37 125 93 c 2
 125 599 l 2
 125 655 123 657 35 663 c 1
 35 692 l 1
 320 692 l 1
 320 663 l 1
 227 657 224 655 224 599 c 2
 224 120 l 2
 224 71 228 54 249 45 c 0
 270 37 306 35 356 35 c 0
 461 35 516 48 536 179 c 1
 566 179 l 1
 554 0 l 1
 35 0 l 1
EndSplineSet
Substitution2: "'c2sc' Capitals to Small Capitals lookup 4 subtable" L.sc
EndChar

StartChar: M
Encoding: 77 77 46
Width: 944
GlyphClass: 2
Flags: MW
HStem: 0 29<34 34 34 271> 663 29<33 236>
VStem: 123 46<203 599 599 600> 720 99<93 599>
AnchorPoint: "Anchor-5" 471 707 basechar 0
AnchorPoint: "Anchor-4" 471 0 basechar 0
LayerCount: 2
Fore
SplineSet
34 0 m 1
 34 29 l 1
 86 33 110 37 116 79 c 0
 121 112 123 150 123 203 c 2
 123 599 l 2
 123 655 121 657 33 663 c 1
 33 692 l 1
 236 692 l 1
 272 603 314 515 353 426 c 2
 471 159 l 1
 473 159 l 1
 593 427 l 2
 633 515 674 603 708 692 c 1
 909 692 l 1
 909 663 l 1
 822 657 819 655 819 599 c 2
 819 93 l 2
 819 37 822 35 909 29 c 1
 909 0 l 1
 630 0 l 1
 630 29 l 1
 718 35 720 37 720 93 c 2
 720 600 l 1
 717 600 l 1
 456 12 l 1
 429 12 l 1
 171 600 l 1
 169 600 l 1
 169 203 l 2
 169 150 171 112 176 79 c 0
 182 37 206 34 271 29 c 1
 271 0 l 1
 34 0 l 1
EndSplineSet
Substitution2: "'c2sc' Capitals to Small Capitals lookup 4 subtable" M.sc
EndChar

StartChar: N
Encoding: 78 78 47
Width: 780
GlyphClass: 2
Flags: MW
HStem: 0 29<35 35 35 272> 663 29<34 226>
VStem: 124 46<203 599 599 602> 618 46<138 489 0 515.5>
AnchorPoint: "Anchor-5" 394 707 basechar 0
AnchorPoint: "Anchor-4" 394 0 basechar 0
LayerCount: 2
Fore
SplineSet
35 0 m 1
 35 29 l 1
 87 33 111 37 117 79 c 0
 122 112 124 150 124 203 c 2
 124 599 l 2
 124 655 122 657 34 663 c 1
 34 692 l 1
 226 692 l 1
 355 508 485 324 616 140 c 1
 618 138 l 1
 618 489 l 2
 618 542 616 580 611 613 c 0
 605 655 581 658 516 663 c 1
 516 692 l 1
 753 692 l 1
 753 663 l 1
 701 659 677 655 671 613 c 0
 666 580 664 542 664 489 c 2
 664 0 l 1
 598 0 l 1
 457 201 315 401 172 602 c 1
 170 602 l 1
 170 203 l 2
 170 150 172 112 177 79 c 0
 183 37 207 34 272 29 c 1
 272 0 l 1
 35 0 l 1
EndSplineSet
Substitution2: "'c2sc' Capitals to Small Capitals lookup 4 subtable" N.sc
EndChar

StartChar: O
Encoding: 79 79 48
Width: 762
GlyphClass: 2
Flags: MW
HStem: -15 35<326 436> 672 35<326 436 326 470>
VStem: 48 112<290 402> 602 112<290 402 290 419.5>
AnchorPoint: "Anchor-5" 380 707 basechar 0
AnchorPoint: "Anchor-4" 381 0 basechar 0
AnchorPoint: "Anchor-1" 381 0 basechar 0
LayerCount: 2
Fore
SplineSet
48 346 m 0
 48 458 79 550 133 610 c 0
 189 673 271 707 381 707 c 0
 491 707 573 673 629 610 c 0
 683 550 714 458 714 346 c 0
 714 234 683 142 629 82 c 0
 573 19 491 -15 381 -15 c 0
 271 -15 189 19 133 82 c 0
 79 142 48 234 48 346 c 0
160 346 m 0
 160 199 203 20 381 20 c 0
 559 20 602 199 602 346 c 0
 602 493 559 672 381 672 c 0
 203 672 160 493 160 346 c 0
EndSplineSet
Substitution2: "'c2sc' Capitals to Small Capitals lookup 4 subtable" O.sc
EndChar

StartChar: P
Encoding: 80 80 49
Width: 600
GlyphClass: 2
Flags: MW
HStem: 0 29<35 35 35 330> 284 35<268.5 281> 657 35<267.5 314 314 349>
VStem: 125 99<93 284 339.5 358 358 599 599 620> 466 108<433.5 534 433.5 543.5>
AnchorPoint: "Anchor-5" 290 707 basechar 0
AnchorPoint: "Anchor-4" 290 0 basechar 0
LayerCount: 2
Fore
SplineSet
35 0 m 1
 35 29 l 1
 123 35 125 37 125 93 c 2
 125 599 l 2
 125 655 123 657 35 663 c 1
 35 692 l 1
 314 692 l 2
 384 692 448 682 496 652 c 0
 541 624 574 572 574 496 c 0
 574 371 486 317 409 297 c 0
 372 288 327 284 281 284 c 2
 224 284 l 1
 224 93 l 2
 224 37 227 35 330 29 c 1
 330 0 l 1
 35 0 l 1
224 358 m 2
 224 321 239 319 298 319 c 0
 384 319 466 364 466 489 c 0
 466 598 403 657 300 657 c 0
 235 657 224 648 224 620 c 2
 224 358 l 2
EndSplineSet
Substitution2: "'c2sc' Capitals to Small Capitals lookup 4 subtable" P.sc
EndChar

StartChar: Q
Encoding: 81 81 50
Width: 762
GlyphClass: 2
Flags: MW
HStem: -193 34<540 652> -13 33 672 35<326 436.5 326 470>
VStem: 48 112<290 402.5> 602 112<290 402.5 290 419.5>
AnchorPoint: "Anchor-5" 380 707 basechar 0
AnchorPoint: "Anchor-4" 381 -230 basechar 0
LayerCount: 2
Fore
SplineSet
48 346 m 0
 48 459 79 550 133 610 c 0
 189 673 271 707 381 707 c 0
 492 707 573 673 629 610 c 1
 684 550 714 459 714 346 c 0
 714 234 684 142 629 82 c 0
 587 35 532 4 460 -8 c 1
 471 -28 492 -57 518 -85 c 0
 574 -146 623 -159 648 -159 c 0
 656 -159 664 -159 674 -158 c 1
 677 -174 l 1
 656 -187 628 -193 593 -193 c 0
 487 -193 394 -120 342 -13 c 1
 252 -7 182 26 133 82 c 1
 79 142 48 234 48 346 c 0
160 346 m 0
 160 199 203 20 381 20 c 0
 559 20 602 199 602 346 c 0
 602 493 559 672 381 672 c 0
 203 672 160 493 160 346 c 0
EndSplineSet
Substitution2: "'c2sc' Capitals to Small Capitals lookup 4 subtable" Q.sc
EndChar

StartChar: R
Encoding: 82 82 51
Width: 644
GlyphClass: 2
Flags: MW
HStem: 0 29<35 35 35 299> 326 35<224 293 224 303> 657 35<264 327 327 334>
VStem: 125 99<93 326 361 599 599 607> 455 107<473.5 569 473.5 571>
AnchorPoint: "Anchor-5" 290 707 basechar 0
AnchorPoint: "Anchor-4" 290 0 basechar 0
LayerCount: 2
Fore
SplineSet
35 0 m 1
 35 29 l 1
 123 35 125 37 125 93 c 2
 125 599 l 2
 125 655 123 657 35 663 c 1
 35 692 l 1
 327 692 l 2
 502 692 562 617 562 521 c 0
 562 426 493 363 399 345 c 1
 399 343 l 1
 505 317 523 250 535 161 c 0
 544 93 560 37 638 29 c 1
 638 0 l 1
 557 0 l 2
 498 0 460 22 445 86 c 0
 434 132 423 211 416 239 c 0
 399 307 353 326 293 326 c 2
 224 326 l 1
 224 93 l 2
 224 50 224 49 227 45 c 0
 234 33 257 33 299 29 c 1
 299 0 l 1
 35 0 l 1
224 361 m 1
 303 361 l 2
 400 361 455 407 455 512 c 0
 455 630 371 657 297 657 c 0
 231 657 224 649 224 607 c 2
 224 361 l 1
EndSplineSet
Substitution2: "'c2sc' Capitals to Small Capitals lookup 4 subtable" R.sc
EndChar

StartChar: S
Encoding: 83 83 52
Width: 541
GlyphClass: 2
Flags: MW
HStem: -15 35<222 307.5 216 345.5> 672 35<238 323>
VStem: 50 32<205 205> 61 91<515 580> 407 97<137 202.5> 430 31<522 663>
AnchorPoint: "Anchor-5" 291 707 basechar 0
AnchorPoint: "Anchor-4" 257 0 basechar 0
LayerCount: 2
Fore
SplineSet
50 205 m 1xe8
 82 205 l 1
 107 93 169 20 263 20 c 0
 352 20 407 72 407 158 c 0xe8
 407 247 312 293 268 310 c 2
 250 317 l 1
 145 354 61 409 61 514 c 0
 61 646 169 707 291 707 c 0
 359 707 427 690 461 663 c 1
 461 522 l 1
 430 522 l 1
 414 623 366 672 280 672 c 0
 196 672 152 618 152 545 c 0xd4
 152 485 208 442 275 417 c 2
 307 405 l 2
 424 362 504 306 504 188 c 0
 504 86 434 -15 257 -15 c 0
 187 -15 104 4 60 45 c 1
 50 205 l 1xe8
EndSplineSet
Substitution2: "'c2sc' Capitals to Small Capitals lookup 4 subtable" S.sc
EndChar

StartChar: T
Encoding: 84 84 53
Width: 621
GlyphClass: 2
Flags: MW
HStem: 0 29<151 470 151 151> 657 35<143.5 202 202 261 360 419 360 360>
VStem: 22 30<526 692> 261 99<93 657> 569 30<526 692>
CounterMasks: 1 38
AnchorPoint: "Anchor-5" 310 707 basechar 0
AnchorPoint: "Anchor-4" 310 0 basechar 0
LayerCount: 2
Fore
SplineSet
22 526 m 1
 22 692 l 1
 599 692 l 1
 599 526 l 1
 569 526 l 1
 557 635 536 657 419 657 c 2
 360 657 l 1
 360 93 l 2
 360 37 363 35 470 29 c 1
 470 0 l 1
 151 0 l 1
 151 29 l 1
 258 35 261 37 261 93 c 2
 261 657 l 1
 202 657 l 2
 85 657 64 635 52 526 c 1
 22 526 l 1
EndSplineSet
Substitution2: "'c2sc' Capitals to Small Capitals lookup 4 subtable" T.sc
EndChar

StartChar: U
Encoding: 85 85 54
Width: 791
GlyphClass: 2
Flags: MW
HStem: -15 35<366.5 424 366.5 444.5> 663 29<29 308 29 308>
VStem: 119 99<253 275 275 599> 573 99<275 599>
AnchorPoint: "Anchor-5" 396 707 basechar 0
AnchorPoint: "Anchor-4" 395 0 basechar 0
AnchorPoint: "Anchor-1" 395 0 basechar 0
LayerCount: 2
Fore
SplineSet
29 663 m 1
 29 692 l 1
 308 692 l 1
 308 663 l 1
 221 657 218 655 218 599 c 2
 218 275 l 2
 218 180 233 120 263 80 c 0
 294 40 338 20 395 20 c 0
 453 20 497 40 528 80 c 0
 558 120 573 180 573 275 c 2
 573 599 l 2
 573 655 571 657 483 663 c 1
 483 692 l 1
 762 692 l 1
 762 663 l 1
 675 657 672 655 672 599 c 2
 672 255 l 2
 672 195 662 142 645 107 c 0
 599 8 494 -15 395 -15 c 0
 297 -15 192 9 146 107 c 0
 129 141 119 194 119 253 c 2
 119 599 l 2
 119 655 117 657 29 663 c 1
EndSplineSet
Substitution2: "'c2sc' Capitals to Small Capitals lookup 4 subtable" U.sc
EndChar

StartChar: V
Encoding: 86 86 55
Width: 634
GlyphClass: 2
Flags: MW
HStem: 0 21G<287 358 287 287> 663 29<-18 240 -18 240>
AnchorPoint: "Anchor-5" 325 707 basechar 0
AnchorPoint: "Anchor-4" 322 0 basechar 0
LayerCount: 2
Fore
SplineSet
-18 663 m 1
 -18 692 l 1
 240 692 l 1
 240 663 l 1
 188 658 l 2
 164 656 161 647 169 622 c 0
 195 542 226 454 257 367 c 2
 350 110 l 1
 352 108 l 1
 456 395 l 2
 492 495 523 583 534 627 c 0
 539 646 538 656 512 658 c 2
 457 663 l 1
 457 692 l 1
 678 692 l 1
 678 663 l 1
 624 660 612 658 591 611 c 0
 567 558 527 456 486 345 c 2
 358 0 l 1
 287 0 l 1
 174 320 l 2
 139 420 102 520 70 604 c 0
 50 657 38 661 -18 663 c 1
EndSplineSet
Substitution2: "'c2sc' Capitals to Small Capitals lookup 4 subtable" V.sc
EndChar

StartChar: W
Encoding: 87 87 56
Width: 940
GlyphClass: 2
Flags: MW
HStem: 0 21G<236 313 236 236 639 715 639 639> 663 29<-13 238 -13 238>
AnchorPoint: "Anchor-5" 477 707 basechar 0
AnchorPoint: "Anchor-4" 477 0 basechar 0
LayerCount: 2
Fore
SplineSet
-13 663 m 1
 -13 692 l 1
 238 692 l 1
 238 663 l 1
 188 658 l 2
 164 656 159 650 167 617 c 0
 207 460 251 292 303 120 c 1
 305 120 l 1
 458 674 l 1
 533 674 l 1
 588 490 645 305 702 120 c 1
 705 120 l 1
 779 406 l 2
 804 500 826 582 832 619 c 0
 836 640 834 654 810 657 c 2
 748 663 l 1
 748 692 l 1
 977 692 l 1
 977 663 l 1
 915 659 904 654 884 596 c 0
 870 558 847 470 815 357 c 2
 715 0 l 1
 639 0 l 1
 588 179 533 363 472 554 c 1
 470 554 l 1
 313 0 l 1
 236 0 l 1
 151 319 l 2
 124 419 95 519 72 598 c 0
 55 657 46 660 -13 663 c 1
EndSplineSet
Substitution2: "'c2sc' Capitals to Small Capitals lookup 4 subtable" W.sc
EndChar

StartChar: X
Encoding: 88 88 57
Width: 624
GlyphClass: 2
Flags: MW
HStem: -190 20 0 29<-19 -19 -19 220> 663 29<-2 256 -2 256>
VStem: 650 28
AnchorPoint: "Anchor-5" 319 707 basechar 0
AnchorPoint: "Anchor-4" 319 0 basechar 0
LayerCount: 2
Fore
SplineSet
-19 0 m 1
 -19 29 l 1
 45 35 54 38 88 83 c 0
 129 138 209 261 267 345 c 1
 107 600 l 2
 73 654 61 661 -2 663 c 1
 -2 692 l 1
 256 692 l 1
 256 663 l 1
 208 658 l 2
 189 656 187 644 199 624 c 2
 324 428 l 1
 326 428 l 1
 374 497 418 564 455 626 c 0
 467 646 467 657 446 659 c 2
 398 663 l 1
 398 692 l 1
 619 692 l 1
 619 663 l 1
 560 660 547 655 504 602 c 0
 461 549 403 470 348 389 c 1
 544 86 l 2
 573 40 585 34 657 29 c 1
 657 0 l 1
 373 0 l 1
 373 29 l 1
 428 35 l 2
 447 37 456 45 444 64 c 2
 292 305 l 1
 290 305 l 1
 237 223 188 142 145 63 c 1
 135 47 141 38 156 36 c 2
 220 29 l 1
 220 0 l 1
 -19 0 l 1
EndSplineSet
Substitution2: "'c2sc' Capitals to Small Capitals lookup 4 subtable" X.sc
EndChar

StartChar: Y
Encoding: 89 89 58
Width: 588
GlyphClass: 2
Flags: MW
HStem: 0 29<150 461 150 150> 663 29<-12 247 -12 247>
VStem: -12 185 256 99<93 242 242 246> 483 149
AnchorPoint: "Anchor-5" 302 707 basechar 0
AnchorPoint: "Anchor-4" 302 0 basechar 0
LayerCount: 2
Fore
SplineSet
-12 663 m 1
 -12 692 l 1
 247 692 l 1
 247 663 l 1
 188 657 l 2
 173 655 169 645 177 627 c 0
 221 531 273 430 331 325 c 1
 333 325 l 1
 386 429 454 566 479 626 c 0
 487 645 485 656 467 658 c 2
 413 663 l 1
 413 692 l 1
 632 692 l 1
 632 663 l 1
 565 660 559 652 525 597 c 0
 494 547 419 407 368 305 c 0
 358 285 355 270 355 246 c 2
 355 93 l 2
 355 38 358 35 461 29 c 1
 461 0 l 1
 150 0 l 1
 150 29 l 1
 253 35 256 38 256 93 c 2
 256 242 l 2
 256 262 252 279 241 300 c 0
 192 399 133 510 77 613 c 0
 55 655 41 661 -12 663 c 1
EndSplineSet
Substitution2: "'c2sc' Capitals to Small Capitals lookup 4 subtable" Y.sc
EndChar

StartChar: Z
Encoding: 90 90 59
Width: 610
GlyphClass: 2
Flags: MW
HStem: 0 35<141 343 343 420> 657 35<208.5 277 277 456> 679 13<71 588>
VStem: 71 32<520 692>
AnchorPoint: "Anchor-5" 302 707 basechar 0
AnchorPoint: "Anchor-4" 302 0 basechar 0
LayerCount: 2
Fore
SplineSet
9 13 m 1xb0
 160 228 310 443 456 657 c 1
 277 657 l 2xd0
 140 657 115 635 103 520 c 1
 71 520 l 1
 71 692 l 1
 582 692 l 1
 588 679 l 1
 437 464 287 250 141 35 c 1
 343 35 l 2
 497 35 544 53 562 178 c 1
 594 178 l 1
 584 0 l 1
 14 0 l 1
 9 13 l 1xb0
EndSplineSet
Substitution2: "'c2sc' Capitals to Small Capitals lookup 4 subtable" Z.sc
EndChar

StartChar: bracketleft
Encoding: 91 91 60
Width: 330
GlyphClass: 2
Flags: MW
HStem: -128 27<133 292> 665 27<133 292>
VStem: 133 63<-69.5 -46 -46 610>
LayerCount: 2
Fore
SplineSet
133 -128 m 1
 133 692 l 1
 292 692 l 1
 292 665 l 1
 202 661 196 657 196 610 c 2
 196 -46 l 2
 196 -93 202 -97 292 -101 c 1
 292 -128 l 1
 133 -128 l 1
EndSplineSet
EndChar

StartChar: backslash
Encoding: 92 92 61
Width: 460
GlyphClass: 2
Flags: MW
HStem: -15 21G<302 369 302 302> 687 20G<91 158 158 158>
VStem: 91 278
LayerCount: 2
Fore
SplineSet
91 707 m 1
 158 707 l 1
 369 -15 l 1
 302 -15 l 1
 91 707 l 1
EndSplineSet
Substitution2: "'ss01' Style Set 1 lookup 10 subtable" backslash.alt
EndChar

StartChar: bracketright
Encoding: 93 93 62
Width: 330
GlyphClass: 2
Flags: MW
HStem: -128 27<38 197 38 38> 665 27<38 197>
VStem: 134 63<-46 610 610 633.5>
LayerCount: 2
Fore
SplineSet
38 -101 m 1
 128 -97 134 -93 134 -46 c 2
 134 610 l 2
 134 657 128 661 38 665 c 1
 38 692 l 1
 197 692 l 1
 197 -128 l 1
 38 -128 l 1
 38 -101 l 1
EndSplineSet
EndChar

StartChar: asciicircum
Encoding: 94 94 63
Width: 570
GlyphClass: 2
Flags: MW
HStem: 648 20G<252 323 323 323>
LayerCount: 2
Fore
SplineSet
56 228 m 1
 252 668 l 1
 323 668 l 1
 514 228 l 1
 443 228 l 1
 287 599 l 1
 127 228 l 1
 56 228 l 1
EndSplineSet
EndChar

StartChar: underscore
Encoding: 95 95 64
Width: 500
GlyphClass: 2
Flags: MW
HStem: -125 50<0 500 0 500>
VStem: 0 500<-125 -75 -125 -75>
LayerCount: 2
Fore
SplineSet
0 -75 m 1
 500 -75 l 1
 500 -125 l 1
 0 -125 l 1
 0 -75 l 1
EndSplineSet
EndChar

StartChar: grave
Encoding: 96 96 65
Width: 400
GlyphClass: 2
Flags: MW
HStem: 542 181<80.5 256>
VStem: 49 222<562 690>
LayerCount: 2
Fore
SplineSet
49 680 m 0
 49 700 73 723 88 723 c 0
 105 723 122 713 152 682 c 2
 271 562 l 1
 256 542 l 1
 105 626 l 2
 75 642 49 659 49 680 c 0
EndSplineSet
Substitution2: "'c2sc' Capitals to Small Capitals lookup 4 subtable" grave.sc
Substitution2: "'smcp' Lowercase to Small Capitals lookup 3 subtable" grave.sc
EndChar

StartChar: a
Encoding: 97 97 66
Width: 523
GlyphClass: 2
Flags: MW
HStem: -12 53<211 222> 467 35<238 277.5>
VStem: 49 101<114.5 153.5> 343 90<143 284 284 284 325 367 367 369>
AnchorPoint: "Anchor-5" 269 502 basechar 0
AnchorPoint: "Anchor-4" 269 0 basechar 0
AnchorPoint: "Anchor-3" 523 742 basechar 0
AnchorPoint: "Anchor-2" 523 -230 basechar 0
AnchorPoint: "Anchor-1" 386 0 basechar 0
LayerCount: 2
Fore
SplineSet
49 130 m 0
 49 177 70 227 142 249 c 0
 221 274 318 299 343 325 c 1
 343 367 l 2
 343 447 297 467 258 467 c 0
 218 467 177 443 155 369 c 0
 150 352 144 341 123 341 c 0
 104 341 67 356 67 388 c 0
 67 443 156 502 269 502 c 0
 420 502 433 427 433 369 c 2
 433 127 l 2
 433 64 450 45 468 41 c 0
 483 37 505 39 519 42 c 1
 525 18 l 1
 487 -1 444 -12 407 -12 c 0
 372 -12 356 11 342 48 c 1
 310 27 251 -12 193 -12 c 0
 99 -12 49 55 49 130 c 0
150 144 m 0
 150 85 180 41 242 41 c 0
 281 41 343 62 343 143 c 2
 343 284 l 1
 321 270 268 251 228 236 c 0
 172 215 150 191 150 144 c 0
EndSplineSet
Substitution2: "'smcp' Lowercase to Small Capitals lookup 3 subtable" A.sc
EndChar

StartChar: b
Encoding: 98 98 67
Width: 598
GlyphClass: 2
Flags: MW
HStem: -12 35<274.5 350.5 274.5 366.5> 448 54<318 336.5> 692 25<20 20> 722 20G<177 177> 722 20G<177 177>
VStem: 90 94<151 163 163 321 431 642 642 661> 445 104<176.5 287 154 337>
AnchorPoint: "Anchor-5" 319 742 basechar 0
AnchorPoint: "Anchor-4" 319 0 basechar 0
AnchorPoint: "Anchor-3" 598 742 basechar 0
AnchorPoint: "Anchor-2" 598 -230 basechar 0
LayerCount: 2
Fore
SplineSet
20 692 m 1xf6
 20 717 l 1
 177 742 l 1
 184 736 l 1
 184 431 l 1
 221 453 280 502 356 502 c 0
 536 502 549 318 549 256 c 0
 549 52 433 -12 300 -12 c 0
 225 -12 183 7 148 27 c 1
 108 -12 l 1
 90 -4 l 1
 90 642 l 2
 90 680 84 685 58 688 c 2
 20 692 l 1xf6
184 163 m 2
 184 139 185 118 191 100 c 0
 209 50 248 23 301 23 c 0
 400 23 445 103 445 250 c 0
 445 424 357 448 316 448 c 0
 260 448 218 426 194 378 c 0
 186 362 184 346 184 321 c 2
 184 163 l 2
EndSplineSet
Substitution2: "'smcp' Lowercase to Small Capitals lookup 3 subtable" B.sc
EndChar

StartChar: c
Encoding: 99 99 68
Width: 496
GlyphClass: 2
Flags: MW
HStem: -12 52<240.5 316> 467 35<246.5 304>
VStem: 49 104<211 306.5>
AnchorPoint: "Anchor-5" 292 502 basechar 0
AnchorPoint: "Anchor-4" 281 0 basechar 0
AnchorPoint: "Anchor-3" 496 742 basechar 0
AnchorPoint: "Anchor-2" 496 -230 basechar 0
LayerCount: 2
Fore
SplineSet
49 240 m 0
 49 373 110 502 292 502 c 0
 400 502 466 451 466 405 c 0
 466 367 427 354 407 354 c 0
 388 354 382 364 376 380 c 0
 356 434 327 467 281 467 c 0
 212 467 153 407 153 258 c 0
 153 164 181 40 300 40 c 0
 373 40 413 76 444 146 c 1
 473 132 l 1
 445 25 351 -12 281 -12 c 0
 131 -12 49 73 49 240 c 0
EndSplineSet
Substitution2: "'smcp' Lowercase to Small Capitals lookup 3 subtable" C.sc
EndChar

StartChar: d
Encoding: 100 100 69
Width: 598
GlyphClass: 2
Flags: MW
HStem: -12 54<245 285> 0 29<421 583> 467 35<262 325.5> 692 25<344 344> 722 20G<501 501> 722 20G<501 501>
VStem: 49 104<189.5 278.5> 414 94<170 346 346 359.5 478 642 642 661>
AnchorPoint: "Anchor-5" 278 742 basechar 0
AnchorPoint: "Anchor-4" 316 0 basechar 0
AnchorPoint: "Anchor-3" 598 742 basechar 0
AnchorPoint: "Anchor-2" 598 -230 basechar 0
LayerCount: 2
Fore
SplineSet
49 235 m 0xb3
 49 322 75 388 118 433 c 0
 160 476 221 502 303 502 c 0
 349 502 386 493 414 478 c 1
 414 642 l 2
 414 680 408 685 382 688 c 2
 344 692 l 1
 344 717 l 1
 501 742 l 1
 508 736 l 1
 508 87 l 2
 508 36 512 34 583 29 c 1
 583 0 l 1
 421 0 l 1x7b
 413 7 l 1
 413 56 l 1
 359 12 312 -12 258 -12 c 0
 126 -12 49 87 49 235 c 0xb3
153 247 m 0
 153 132 199 42 291 42 c 0xb3
 343 42 387 62 407 114 c 0
 413 131 414 148 414 170 c 2
 414 346 l 2
 414 373 413 387 405 404 c 0
 387 445 349 467 302 467 c 0
 200 467 153 377 153 247 c 0
EndSplineSet
Substitution2: "'smcp' Lowercase to Small Capitals lookup 3 subtable" D.sc
EndChar

StartChar: e
Encoding: 101 101 70
Width: 514
GlyphClass: 2
Flags: MW
HStem: -12 51<238 335.5> 263 38<154 343 343 357 154 441 153 343> 467 35<221 319.5>
VStem: 49 104<263 263 263 316> 377 104<323.5 330.5 284.5 352.5>
CounterMasks: 1 e0
AnchorPoint: "Anchor-5" 278 502 basechar 0
AnchorPoint: "Anchor-4" 280 0 basechar 0
AnchorPoint: "Anchor-3" 514 742 basechar 0
AnchorPoint: "Anchor-2" 514 -230 basechar 0
AnchorPoint: "Anchor-1" 280 0 basechar 0
LayerCount: 2
Fore
SplineSet
49 241 m 0
 49 391 123 502 279 502 c 0
 462 502 481 360 481 301 c 0
 481 268 462 263 441 263 c 2
 153 263 l 1
 151 159 176 39 300 39 c 0
 379 39 417 87 445 145 c 1
 475 129 l 1
 448 50 391 -12 280 -12 c 0
 117 -12 49 83 49 241 c 0
154 301 m 1
 343 301 l 2
 371 301 377 314 377 333 c 0
 377 372 366 467 273 467 c 0
 169 467 154 342 154 301 c 1
EndSplineSet
Substitution2: "'smcp' Lowercase to Small Capitals lookup 3 subtable" E.sc
EndChar

StartChar: f
Encoding: 102 102 71
Width: 319
GlyphClass: 2
Flags: MW
HStem: 0 29<32 296 32 32> 450 40<30 107 30 107 201 323> 707 35<239.5 255.5>
VStem: 107 94<87 450>
AnchorPoint: "Anchor-5" 266 742 basechar 0
AnchorPoint: "Anchor-4" 154 0 basechar 0
AnchorPoint: "Anchor-3" 319 742 basechar 0
AnchorPoint: "Anchor-2" 319 -230 basechar 0
LayerCount: 2
Fore
SplineSet
30 450 m 1
 30 490 l 1
 107 490 l 1
 107 525 l 2
 107 591 117 644 140 679 c 0
 165 717 212 742 267 742 c 0
 347 742 389 702 389 669 c 0
 389 639 360 622 340 622 c 0
 325 622 318 629 313 639 c 0
 288 697 266 707 245 707 c 0
 229 707 194 697 197 602 c 2
 201 490 l 1
 323 490 l 1
 323 450 l 1
 201 450 l 1
 201 86 l 2
 201 35 205 33 296 29 c 1
 296 0 l 1
 32 0 l 1
 32 29 l 1
 104 34 107 36 107 87 c 2
 107 450 l 1
 30 450 l 1
EndSplineSet
Substitution2: "'smcp' Lowercase to Small Capitals lookup 3 subtable" F.sc
EndChar

StartChar: g
Encoding: 103 103 72
Width: 520
GlyphClass: 2
Flags: MW
HStem: -242 35<238.5 288> 7 75<247 315> 171 35<248.5 287 230 301.5> 467 35<233.5 283 183.5 284.5>
VStem: 42 95<-127 -74 -127 -60> 53 102<292 371> 69 83<76.5 139.5> 360 96<292 355 273.5 382.5> 424 84<-95 -51.5>
AnchorPoint: "Anchor-5" 254 502 basechar 0
AnchorPoint: "Anchor-4" 258 -230 basechar 0
AnchorPoint: "Anchor-3" 520 742 basechar 0
AnchorPoint: "Anchor-2" 520 -230 basechar 0
LayerCount: 2
Fore
SplineSet
42 -96 m 0xf880
 42 -24 114 0 157 14 c 1
 157 16 l 1
 109 21 69 59 69 94 c 0xf2
 69 133 107 162 161 183 c 1
 161 185 l 1
 115 197 53 240 53 334 c 0xf4
 53 408 107 502 260 502 c 0
 306 502 361 490 389 471 c 1
 517 512 l 1
 525 503 l 1
 505 440 l 1
 426 428 l 1
 443 411 456 376 456 334 c 0
 456 213 349 171 254 171 c 0
 243 171 222 172 203 174 c 1
 190 170 152 154 152 125 c 0xf3
 152 106 163 82 235 82 c 2
 315 82 l 2
 422 82 508 44 508 -64 c 0
 508 -126 475 -173 429 -201 c 0
 381 -230 318 -242 258 -242 c 0
 142 -242 42 -197 42 -96 c 0xf880
137 -91 m 0xf880
 137 -163 196 -207 281 -207 c 0
 352 -207 424 -169 424 -89 c 0
 424 -14 359 7 271 7 c 0
 223 7 190 1 168 -16 c 0
 147 -32 137 -57 137 -91 c 0xf880
155 334 m 0xf5
 155 250 202 206 258 206 c 0
 316 206 360 250 360 334 c 0
 360 431 309 467 260 467 c 0
 207 467 155 433 155 334 c 0xf5
EndSplineSet
Substitution2: "'smcp' Lowercase to Small Capitals lookup 3 subtable" G.sc
EndChar

StartChar: h
Encoding: 104 104 73
Width: 607
GlyphClass: 2
Flags: MW
HStem: 0 29<21 21 21 264> 448 54<332.5 352> 722 20G<181 181>
VStem: 95 94<87 321> 423 94<87 323 323 343>
AnchorPoint: "Anchor-5" 306 742 basechar 0
AnchorPoint: "Anchor-4" 306 0 basechar 0
AnchorPoint: "Anchor-3" 607 742 basechar 0
AnchorPoint: "Anchor-2" 607 -230 basechar 0
LayerCount: 2
Fore
SplineSet
21 0 m 1
 21 29 l 1
 91 34 95 38 95 87 c 2
 95 642 l 2
 95 678 89 683 63 687 c 2
 25 692 l 1
 25 717 l 1
 181 742 l 1
 188 736 l 1
 188 426 l 1
 251 468 296 502 369 502 c 0
 462 502 517 444 517 343 c 2
 517 87 l 2
 517 38 523 34 592 29 c 1
 592 0 l 1
 348 0 l 1
 348 29 l 1
 418 34 423 38 423 87 c 2
 423 323 l 2
 423 410 386 448 318 448 c 0
 265 448 219 415 198 375 c 0
 190 360 189 346 189 321 c 2
 189 87 l 2
 189 38 195 34 264 29 c 1
 264 0 l 1
 21 0 l 1
EndSplineSet
Substitution2: "'smcp' Lowercase to Small Capitals lookup 3 subtable" H.sc
EndChar

StartChar: i
Encoding: 105 105 74
Width: 291
GlyphClass: 2
Flags: MW
HStem: 0 29<32 32 32 276> 452 25<37 37> 482 20<194 194> 593 122<135 171>
VStem: 92 122<636 672> 107 94<87 402 402 420>
AnchorPoint: "Anchor-5" 154 695 basechar 0
AnchorPoint: "Anchor-4" 154 0 basechar 0
AnchorPoint: "Anchor-3" 291 742 basechar 0
AnchorPoint: "Anchor-2" 291 -230 basechar 0
AnchorPoint: "Anchor-1" 154 0 basechar 0
LayerCount: 2
Fore
SplineSet
92 654 m 0x18
 92 690 117 715 153 715 c 0
 189 715 214 690 214 654 c 0
 214 618 189 593 153 593 c 0
 117 593 92 618 92 654 c 0x18
32 0 m 1xe4
 32 29 l 1
 104 34 107 36 107 87 c 2
 107 402 l 2
 107 438 101 443 75 447 c 2
 37 452 l 1
 37 477 l 1
 194 502 l 1
 201 496 l 1
 201 87 l 2
 201 36 205 34 276 29 c 1
 276 0 l 1
 32 0 l 1xe4
EndSplineSet
Substitution2: "'smcp' Lowercase to Small Capitals lookup 3 subtable" I.sc
EndChar

StartChar: j
Encoding: 106 106 75
Width: 280
GlyphClass: 2
Flags: MW
HStem: -242 24<-33 -22> 452 25<36 36> 482 20<193 193> 593 122<135 171>
VStem: 92 122<636 672> 106 94<36 402 402 419>
AnchorPoint: "Anchor-4" -9 -230 basechar 0
AnchorPoint: "Anchor-3" 280 742 basechar 0
AnchorPoint: "Anchor-2" 280 -230 basechar 0
LayerCount: 2
Fore
SplineSet
92 654 m 0x18
 92 690 117 715 153 715 c 0
 189 715 214 690 214 654 c 0
 214 618 189 593 153 593 c 0
 117 593 92 618 92 654 c 0x18
-33 -218 m 1xe4
 28 -203 62 -182 80 -147 c 0
 101 -106 106 -36 106 36 c 2
 106 402 l 2
 106 436 100 443 74 447 c 2
 36 452 l 1
 36 477 l 1
 193 502 l 1
 200 496 l 1
 200 7 l 2
 200 -118 170 -205 43 -233 c 0
 15 -239 -13 -242 -31 -242 c 1
 -33 -218 l 1xe4
EndSplineSet
Substitution2: "'smcp' Lowercase to Small Capitals lookup 3 subtable" J.sc
EndChar

StartChar: k
Encoding: 107 107 76
Width: 524
GlyphClass: 2
Flags: MW
HStem: 0 29<20 20 20 264> 254 14<189 191 189 191> 462 28<405 508> 692 25<25 25> 722 20G<182 182> 722 20G<182 182>
VStem: 95 94<87 254 268 642 642 661>
AnchorPoint: "Anchor-5" 279 742 basechar 0
AnchorPoint: "Anchor-4" 279 0 basechar 0
AnchorPoint: "Anchor-3" 524 742 basechar 0
AnchorPoint: "Anchor-2" 524 -230 basechar 0
LayerCount: 2
Fore
SplineSet
20 0 m 1xfa
 20 29 l 1
 92 34 95 36 95 87 c 2
 95 642 l 2
 95 680 89 685 63 688 c 2
 25 692 l 1
 25 717 l 1
 182 742 l 1
 189 736 l 1
 189 268 l 1
 191 268 l 1
 214 302 313 426 342 461 c 0
 362 485 371 490 405 490 c 2
 508 490 l 1
 508 462 l 1
 450 456 425 444 391 419 c 0
 357 394 325 365 277 310 c 0
 267 299 269 294 274 287 c 0
 312 233 390 138 452 77 c 0
 483 46 508 31 538 23 c 1
 538 -5 l 1
 463 -2 l 2
 431 0 392 12 355 49 c 0
 303 102 232 189 191 254 c 1
 189 254 l 1
 189 87 l 2
 189 36 193 34 264 29 c 1
 264 0 l 1
 20 0 l 1xfa
EndSplineSet
Substitution2: "'smcp' Lowercase to Small Capitals lookup 3 subtable" K.sc
EndChar

StartChar: l
Encoding: 108 108 77
Width: 279
GlyphClass: 2
Flags: MW
HStem: 0 29<20 20 20 264> 722 20G<182 182>
VStem: 95 94<87 642 642 661>
AnchorPoint: "Anchor-5" 142 742 basechar 0
AnchorPoint: "Anchor-4" 142 0 basechar 0
AnchorPoint: "Anchor-3" 279 742 basechar 0
AnchorPoint: "Anchor-2" 279 -230 basechar 0
LayerCount: 2
Fore
SplineSet
20 0 m 1
 20 29 l 1
 92 34 95 36 95 87 c 2
 95 642 l 2
 95 680 89 685 63 688 c 2
 25 692 l 1
 25 717 l 1
 182 742 l 1
 189 736 l 1
 189 87 l 2
 189 36 193 34 264 29 c 1
 264 0 l 1
 20 0 l 1
EndSplineSet
Substitution2: "'smcp' Lowercase to Small Capitals lookup 3 subtable" L.sc
EndChar

StartChar: m
Encoding: 109 109 78
Width: 923
GlyphClass: 2
Flags: MW
HStem: 0 29<32 32 32 276> 448 54<337.5 370 643 669.5>
VStem: 107 94<87 321> 423 94<87 321> 739 94<87 323 323 343>
CounterMasks: 1 38
AnchorPoint: "Anchor-5" 470 502 basechar 0
AnchorPoint: "Anchor-4" 470 0 basechar 0
AnchorPoint: "Anchor-3" 923 742 basechar 0
AnchorPoint: "Anchor-2" 923 -230 basechar 0
LayerCount: 2
Fore
SplineSet
32 0 m 1
 32 29 l 1
 104 34 107 36 107 87 c 2
 107 402 l 2
 107 438 101 443 75 447 c 2
 37 452 l 1
 37 477 l 1
 192 502 l 1
 201 426 l 1
 236 452 299 502 376 502 c 0
 446 502 484 472 508 425 c 1
 543 447 602 502 684 502 c 0
 779 502 833 444 833 343 c 2
 833 87 l 2
 833 36 837 34 908 29 c 1
 908 0 l 1
 664 0 l 1
 664 29 l 1
 736 34 739 36 739 87 c 2
 739 323 l 2
 739 412 701 448 638 448 c 0
 582 448 539 416 524 376 c 0
 518 360 517 346 517 321 c 2
 517 87 l 2
 517 36 521 34 592 29 c 1
 592 0 l 1
 348 0 l 1
 348 29 l 1
 420 34 423 36 423 87 c 2
 423 323 l 2
 423 385 413 448 327 448 c 0
 272 448 228 414 209 374 c 0
 202 360 201 346 201 321 c 2
 201 87 l 2
 201 36 205 34 276 29 c 1
 276 0 l 1
 32 0 l 1
EndSplineSet
Substitution2: "'smcp' Lowercase to Small Capitals lookup 3 subtable" M.sc
EndChar

StartChar: n
Encoding: 110 110 79
Width: 619
GlyphClass: 2
Flags: MW
HStem: 0 29<32 32 32 276> 448 54<345 364>
VStem: 107 94<87 321> 435 94<87 323 323 343>
AnchorPoint: "Anchor-5" 318 502 basechar 0
AnchorPoint: "Anchor-4" 318 0 basechar 0
AnchorPoint: "Anchor-3" 619 742 basechar 0
AnchorPoint: "Anchor-2" 619 -230 basechar 0
LayerCount: 2
Fore
SplineSet
32 0 m 1
 32 29 l 1
 104 34 107 36 107 87 c 2
 107 402 l 2
 107 438 101 443 75 447 c 2
 37 452 l 1
 37 477 l 1
 186 502 l 1
 200 426 l 1
 262 466 308 502 382 502 c 0
 474 502 529 444 529 343 c 2
 529 87 l 2
 529 36 533 34 604 29 c 1
 604 0 l 1
 360 0 l 1
 360 29 l 1
 432 34 435 36 435 87 c 2
 435 323 l 2
 435 410 398 448 330 448 c 0
 277 448 232 415 211 376 c 0
 203 360 201 346 201 321 c 2
 201 87 l 2
 201 36 205 34 276 29 c 1
 276 0 l 1
 32 0 l 1
EndSplineSet
Substitution2: "'smcp' Lowercase to Small Capitals lookup 3 subtable" N.sc
EndChar

StartChar: o
Encoding: 111 111 80
Width: 577
GlyphClass: 2
Flags: MW
HStem: -12 35<243 335 243 369.5> 467 35<243 335>
VStem: 49 104<176 314 176 326> 425 104<176 314>
AnchorPoint: "Anchor-5" 288 502 basechar 0
AnchorPoint: "Anchor-4" 289 0 basechar 0
AnchorPoint: "Anchor-3" 577 742 basechar 0
AnchorPoint: "Anchor-2" 577 -230 basechar 0
AnchorPoint: "Anchor-1" 289 0 basechar 0
LayerCount: 2
Fore
SplineSet
49 245 m 0
 49 407 128 502 289 502 c 0
 450 502 529 407 529 245 c 0
 529 83 450 -12 289 -12 c 0
 128 -12 49 83 49 245 c 0
153 245 m 0
 153 107 197 23 289 23 c 0
 381 23 425 107 425 245 c 0
 425 383 381 467 289 467 c 0
 197 467 153 383 153 245 c 0
EndSplineSet
Substitution2: "'smcp' Lowercase to Small Capitals lookup 3 subtable" O.sc
EndChar

StartChar: p
Encoding: 112 112 81
Width: 608
GlyphClass: 2
Flags: MW
HStem: -230 29<25 284 25 25> -12 35<285 359 283 375.5> 448 54<327.5 346>
VStem: 100 94<-143 11 145.5 157 157 321> 455 104<176.5 291.5 153 336>
AnchorPoint: "Anchor-5" 329 502 basechar 0
AnchorPoint: "Anchor-4" 329 -230 basechar 0
AnchorPoint: "Anchor-3" 608 742 basechar 0
AnchorPoint: "Anchor-2" 608 -230 basechar 0
LayerCount: 2
Fore
SplineSet
25 -201 m 1
 95 -196 100 -194 100 -143 c 2
 100 402 l 2
 100 438 94 443 68 447 c 2
 30 452 l 1
 30 477 l 1
 181 502 l 1
 194 428 l 1
 233 453 291 502 364 502 c 0
 546 502 559 327 559 256 c 0
 559 50 443 -12 308 -12 c 0
 262 -12 215 -1 194 11 c 1
 194 -143 l 2
 194 -194 200 -196 284 -201 c 1
 284 -230 l 1
 25 -230 l 1
 25 -201 l 1
194 157 m 2
 194 134 195 114 201 96 c 0
 217 50 257 23 309 23 c 0
 409 23 455 103 455 250 c 0
 455 422 366 448 326 448 c 0
 273 448 230 424 207 378 c 0
 198 360 194 346 194 321 c 2
 194 157 l 2
EndSplineSet
Substitution2: "'smcp' Lowercase to Small Capitals lookup 3 subtable" P.sc
EndChar

StartChar: q
Encoding: 113 113 82
Width: 591
GlyphClass: 2
Flags: MW
HStem: -230 29<334 583 334 334> -12 54<245.5 285> 467 35<266 324>
VStem: 49 104<189.5 278> 414 94<-143 53 53 53 171 340 340 352>
AnchorPoint: "Anchor-5" 278 502 basechar 0
AnchorPoint: "Anchor-4" 278 -230 basechar 0
AnchorPoint: "Anchor-3" 591 742 basechar 0
AnchorPoint: "Anchor-2" 591 -230 basechar 0
LayerCount: 2
Fore
SplineSet
49 233 m 0
 49 323 75 388 119 433 c 0
 163 478 226 502 306 502 c 0
 349 502 400 492 438 471 c 1
 481 502 l 1
 508 502 l 1
 508 -143 l 2
 508 -194 514 -196 583 -201 c 1
 583 -230 l 1
 334 -230 l 1
 334 -201 l 1
 409 -196 414 -194 414 -143 c 2
 414 53 l 1
 362 15 313 -12 257 -12 c 0
 136 -12 49 73 49 233 c 0
153 246 m 0
 153 133 196 42 295 42 c 0
 350 42 388 63 407 116 c 0
 413 132 414 149 414 171 c 2
 414 340 l 2
 414 364 412 382 406 398 c 0
 387 449 350 467 298 467 c 0
 196 467 153 369 153 246 c 0
EndSplineSet
Substitution2: "'smcp' Lowercase to Small Capitals lookup 3 subtable" Q.sc
EndChar

StartChar: r
Encoding: 114 114 83
Width: 389
GlyphClass: 2
Flags: MW
HStem: 0 29<32 32 32 296> 424 78<189 266> 452 25<37 37>
VStem: 107 94<87 321>
AnchorPoint: "Anchor-5" 237 502 basechar 0
AnchorPoint: "Anchor-4" 164 0 basechar 0
AnchorPoint: "Anchor-3" 389 742 basechar 0
AnchorPoint: "Anchor-2" 389 -230 basechar 0
LayerCount: 2
Fore
SplineSet
32 0 m 1xd0
 32 29 l 1
 102 34 107 36 107 87 c 2
 107 402 l 2
 107 438 101 443 75 447 c 2
 37 452 l 1
 37 477 l 1xb0
 189 502 l 1
 201 422 l 1
 267 480 297 502 333 502 c 0
 372 502 386 475 386 453 c 0
 386 422 364 397 340 397 c 0
 335 397 327 398 320 402 c 0
 291 418 274 424 258 424 c 0
 235 424 201 398 201 321 c 2
 201 87 l 2
 201 36 207 34 296 29 c 1
 296 0 l 1
 32 0 l 1xd0
EndSplineSet
Substitution2: "'smcp' Lowercase to Small Capitals lookup 3 subtable" R.sc
EndChar

StartChar: s
Encoding: 115 115 84
Width: 436
GlyphClass: 2
Flags: MW
HStem: -12 35<183.5 248.5 181.5 272.5> 467 35<201 260.5 184 261.5>
VStem: 47 29<167 167> 56 80<358 403.5> 315 85<93.5 140> 338 29<351 468>
AnchorPoint: "Anchor-5" 237 502 basechar 0
AnchorPoint: "Anchor-4" 213 0 basechar 0
AnchorPoint: "Anchor-3" 436 742 basechar 0
AnchorPoint: "Anchor-2" 436 -230 basechar 0
LayerCount: 2
Fore
SplineSet
47 167 m 1xe8
 76 167 l 1
 96 82 141 23 222 23 c 0
 275 23 315 55 315 106 c 0xe8
 315 174 252 197 207 211 c 0
 124 236 56 273 56 356 c 0
 56 451 130 502 238 502 c 0
 283 502 334 492 367 468 c 1
 367 351 l 1
 338 351 l 1
 331 412 297 467 226 467 c 0
 176 467 136 438 136 386 c 0xd4
 136 330 202 309 243 296 c 0
 346 264 400 224 400 136 c 0
 400 51 332 -12 213 -12 c 0
 154 -12 93 4 57 36 c 1
 47 167 l 1xe8
EndSplineSet
Substitution2: "'smcp' Lowercase to Small Capitals lookup 3 subtable" S.sc
EndChar

StartChar: t
Encoding: 116 116 85
Width: 344
GlyphClass: 2
Flags: MW
HStem: -12 52<196.5 275.5> 450 40<31 107 31 103 197 326>
VStem: 103 94<102 140 140 450>
AnchorPoint: "Anchor-5" 150 616 basechar 0
AnchorPoint: "Anchor-4" 199 0 basechar 0
AnchorPoint: "Anchor-3" 344 742 basechar 0
AnchorPoint: "Anchor-2" 344 -230 basechar 0
LayerCount: 2
Fore
SplineSet
31 450 m 1
 31 490 l 1
 107 490 l 1
 168 616 l 1
 197 616 l 1
 197 490 l 1
 326 490 l 1
 326 450 l 1
 197 450 l 1
 197 140 l 2
 197 64 229 40 263 40 c 0
 288 40 310 43 334 53 c 1
 342 32 l 1
 313 14 265 -12 214 -12 c 0
 179 -12 103 0 103 102 c 2
 103 450 l 1
 31 450 l 1
EndSplineSet
Substitution2: "'smcp' Lowercase to Small Capitals lookup 3 subtable" T.sc
EndChar

StartChar: u
Encoding: 117 117 86
Width: 606
GlyphClass: 2
Flags: MW
HStem: -12 54<262 280.5> 0 29<431 591> 452 25<26 26> 482 20G<183 183 509 509>
VStem: 96 94<138 156 156 402 402 420> 422 94<177 402 402 420>
AnchorPoint: "Anchor-5" 306 502 basechar 0
AnchorPoint: "Anchor-4" 306 0 basechar 0
AnchorPoint: "Anchor-3" 606 742 basechar 0
AnchorPoint: "Anchor-2" 606 -230 basechar 0
AnchorPoint: "Anchor-1" 469 0 basechar 0
LayerCount: 2
Fore
SplineSet
26 452 m 1xbc
 26 477 l 1
 183 502 l 1
 190 496 l 1
 190 156 l 2
 190 78 233 42 291 42 c 0xbc
 343 42 391 71 414 117 c 0
 419 127 422 149 422 177 c 2
 422 402 l 2
 422 438 416 443 390 447 c 2
 352 452 l 1
 352 477 l 1
 509 502 l 1
 516 496 l 1
 516 87 l 2
 516 36 522 34 591 29 c 1
 591 0 l 1
 431 0 l 1x7c
 421 60 l 1
 392 46 323 -12 238 -12 c 0
 164 -12 96 23 96 138 c 2
 96 402 l 2
 96 438 90 443 64 447 c 2
 26 452 l 1xbc
EndSplineSet
Substitution2: "'smcp' Lowercase to Small Capitals lookup 3 subtable" U.sc
EndChar

StartChar: v
Encoding: 118 118 87
Width: 504
GlyphClass: 2
Flags: MW
HStem: 0 21G<224 296 224 224> 461 29<1 225 1 225>
AnchorPoint: "Anchor-5" 265 502 basechar 0
AnchorPoint: "Anchor-4" 260 0 basechar 0
AnchorPoint: "Anchor-3" 504 742 basechar 0
AnchorPoint: "Anchor-2" 504 -230 basechar 0
LayerCount: 2
Fore
SplineSet
1 461 m 1
 1 490 l 1
 225 490 l 1
 225 461 l 1
 180 456 l 2
 161 454 157 446 164 427 c 0
 183 373 203 315 223 258 c 2
 284 90 l 1
 286 90 l 1
 353 275 l 2
 376 339 395 397 403 429 c 0
 407 443 404 454 388 456 c 2
 339 461 l 1
 339 490 l 1
 529 490 l 1
 529 461 l 1
 483 459 472 453 457 418 c 0
 443 386 414 320 385 242 c 2
 296 0 l 1
 224 0 l 1
 147 216 l 2
 122 285 99 350 72 416 c 0
 57 453 48 457 1 461 c 1
EndSplineSet
Substitution2: "'smcp' Lowercase to Small Capitals lookup 3 subtable" V.sc
EndChar

StartChar: w
Encoding: 119 119 88
Width: 768
GlyphClass: 2
Flags: MW
HStem: 0 21G<192 268 192 192 512 588 512 512> 461 29<-2 209 -2 209>
AnchorPoint: "Anchor-5" 390 502 basechar 0
AnchorPoint: "Anchor-4" 390 0 basechar 0
AnchorPoint: "Anchor-3" 768 742 basechar 0
AnchorPoint: "Anchor-2" 768 -230 basechar 0
LayerCount: 2
Fore
SplineSet
-2 461 m 1
 -2 490 l 1
 209 490 l 1
 209 461 l 1
 174 458 l 2
 156 456 150 447 156 428 c 0
 188 320 219 204 255 89 c 1
 257 89 l 1
 373 478 l 1
 449 478 l 1
 490 348 531 219 574 89 c 1
 576 89 l 1
 607 202 653 364 666 423 c 0
 670 441 669 454 652 456 c 2
 595 461 l 1
 595 490 l 1
 792 490 l 1
 792 461 l 1
 742 458 731 454 714 403 c 0
 689 325 630 147 588 0 c 1
 512 0 l 1
 472 127 431 254 389 381 c 1
 386 381 l 1
 268 0 l 1
 192 0 l 1
 150 151 106 286 64 418 c 0
 52 456 39 459 -2 461 c 1
EndSplineSet
Substitution2: "'smcp' Lowercase to Small Capitals lookup 3 subtable" W.sc
EndChar

StartChar: x
Encoding: 120 120 89
Width: 486
GlyphClass: 2
Flags: MW
HStem: 0 29<1 1 1 193> 461 29<8 217 8 217>
AnchorPoint: "Anchor-5" 255 502 basechar 0
AnchorPoint: "Anchor-4" 255 0 basechar 0
AnchorPoint: "Anchor-3" 486 742 basechar 0
AnchorPoint: "Anchor-2" 486 -230 basechar 0
LayerCount: 2
Fore
SplineSet
1 0 m 1
 1 29 l 1
 45 32 67 37 93 72 c 0
 134 126 173 183 210 237 c 1
 167 301 124 366 82 424 c 0
 58 457 48 459 8 461 c 1
 8 490 l 1
 217 490 l 1
 217 461 l 1
 187 458 l 2
 172 456 170 445 178 433 c 2
 262 308 l 1
 263 308 l 1
 293 354 320 396 343 434 c 0
 350 445 352 455 336 457 c 2
 297 461 l 1
 297 490 l 1
 483 490 l 1
 483 461 l 1
 435 459 422 455 396 423 c 0
 357 376 318 326 285 276 c 1
 329 206 376 136 422 70 c 0
 447 34 464 31 509 29 c 1
 509 0 l 1
 274 0 l 1
 274 29 l 1
 316 34 l 2
 331 36 334 45 323 62 c 2
 234 201 l 1
 232 201 l 1
 198 149 166 101 144 58 c 0
 138 47 137 36 151 34 c 2
 193 29 l 1
 193 0 l 1
 1 0 l 1
EndSplineSet
Substitution2: "'smcp' Lowercase to Small Capitals lookup 3 subtable" X.sc
EndChar

StartChar: y
Encoding: 121 121 90
Width: 506
GlyphClass: 2
Flags: MW
HStem: -242 73<106 173.5> 461 29<-5 224 -5 224>
AnchorPoint: "Anchor-5" 262 502 basechar 0
AnchorPoint: "Anchor-4" 262 -230 basechar 0
AnchorPoint: "Anchor-3" 506 742 basechar 0
AnchorPoint: "Anchor-2" 506 -230 basechar 0
LayerCount: 2
Fore
SplineSet
-5 461 m 1
 -5 490 l 1
 224 490 l 1
 224 461 l 1
 181 457 l 2
 158 455 160 444 166 426 c 0
 203 321 243 212 289 91 c 1
 291 91 l 1
 335 211 387 362 402 422 c 0
 407 442 405 454 388 456 c 2
 336 461 l 1
 336 490 l 1
 528 490 l 1
 528 461 l 1
 478 458 472 450 454 410 c 0
 423 340 331 96 269 -82 c 0
 218 -230 167 -242 127 -242 c 0
 85 -242 57 -214 57 -190 c 0
 57 -161 82 -134 101 -134 c 0
 113 -134 121 -139 131 -148 c 0
 149 -166 158 -169 168 -169 c 0
 179 -169 197 -160 212 -127 c 0
 227 -95 236 -65 236 -42 c 0
 236 -25 234 -10 228 7 c 0
 204 76 121 289 71 409 c 0
 53 453 43 459 -5 461 c 1
EndSplineSet
Substitution2: "'smcp' Lowercase to Small Capitals lookup 3 subtable" Y.sc
EndChar

StartChar: z
Encoding: 122 122 91
Width: 480
GlyphClass: 2
Flags: MW
HStem: 0 35<141 270 270 325.5> 455 35<180 234 234 334>
VStem: 61 31<342 490> 431 31<153 153>
AnchorPoint: "Anchor-5" 240 502 basechar 0
AnchorPoint: "Anchor-4" 240 0 basechar 0
AnchorPoint: "Anchor-3" 480 742 basechar 0
AnchorPoint: "Anchor-2" 480 -230 basechar 0
LayerCount: 2
Fore
SplineSet
19 15 m 1
 126 162 231 308 334 455 c 1
 234 455 l 2
 126 455 105 434 92 342 c 1
 61 342 l 1
 61 490 l 1
 445 490 l 1
 453 476 l 1
 347 329 242 182 141 35 c 1
 270 35 l 2
 381 35 415 59 431 153 c 1
 462 153 l 1
 452 0 l 1
 27 0 l 1
 19 15 l 1
EndSplineSet
Substitution2: "'smcp' Lowercase to Small Capitals lookup 3 subtable" Z.sc
EndChar

StartChar: braceleft
Encoding: 123 123 92
Width: 340
GlyphClass: 2
Flags: MW
HStem: -128 27<209.5 298 272 298> 267 12 267 30<79 119> 665 27<272 298>
VStem: 79 56<279 285 279 297 279 297> 152 66 165 67
LayerCount: 2
Fore
SplineSet
79 267 m 1xbc
 79 297 l 1
 152 295 172 342 165 411 c 2xb2
 155 505 l 2
 146 588 147 692 272 692 c 2
 298 692 l 1
 298 665 l 1
 215 661 211 606 218 539 c 2xb4
 226 462 l 2
 234 382 253 309 135 285 c 1
 135 279 l 1
 253 255 234 182 226 102 c 2xd2
 218 25 l 2
 211 -42 215 -97 298 -101 c 1
 298 -128 l 1
 272 -128 l 2xb4
 147 -128 146 -24 155 59 c 2
 165 153 l 2xb2
 173 224 159 267 79 267 c 1xbc
EndSplineSet
EndChar

StartChar: bar
Encoding: 124 124 93
Width: 228
GlyphClass: 2
Flags: MW
HStem: -250 1000<80 148 80 148>
VStem: 80 68<-250 750 -250 750>
LayerCount: 2
Fore
SplineSet
80 -250 m 1
 80 750 l 1
 148 750 l 1
 148 -250 l 1
 80 -250 l 1
EndSplineSet
Substitution2: "'ss01' Style Set 1 lookup 10 subtable" bar.alt
EndChar

StartChar: braceright
Encoding: 125 125 94
Width: 340
GlyphClass: 2
Flags: MW
HStem: -128 27<42 68 42 42> 267 30<222.5 261> 665 27<42 68>
VStem: 205 56<279 285 285 285>
CounterMasks: 1 e0
LayerCount: 2
Fore
SplineSet
42 -101 m 1
 125 -97 129 -42 122 25 c 2
 114 102 l 2
 106 182 87 255 205 279 c 1
 205 285 l 1
 87 309 106 382 114 462 c 2
 122 539 l 2
 129 606 125 661 42 665 c 1
 42 692 l 1
 68 692 l 2
 193 692 194 588 185 505 c 2
 175 411 l 2
 167 340 184 297 261 297 c 1
 261 267 l 1
 184 267 167 224 175 153 c 2
 185 59 l 2
 194 -24 193 -128 68 -128 c 2
 42 -128 l 1
 42 -101 l 1
EndSplineSet
EndChar

StartChar: asciitilde
Encoding: 126 126 95
Width: 570
GlyphClass: 2
Flags: MW
HStem: 191 69<368 397 368 405.5> 237 69<173 205>
LayerCount: 2
Fore
SplineSet
73 200 m 1x40
 97 250 130 306 203 306 c 0x40
 233 306 265 295 296 283 c 0
 327 272 356 260 380 260 c 0
 414 260 428 274 457 317 c 1
 497 292 l 1
 469 231 434 191 377 191 c 0x80
 348 191 314 203 282 214 c 0
 250 226 218 237 192 237 c 0
 154 237 135 216 114 175 c 1
 73 200 l 1x40
EndSplineSet
EndChar

StartChar: exclamdown
Encoding: 161 161 97
Width: 265
GlyphClass: 2
Flags: HMW
HStem: 374 128<112.5 151>
VStem: 69 126<420.5 439> 76 111<-150 -150>
LayerCount: 2
Fore
SplineSet
69 439 m 1xc0
 70 475 93 502 132 502 c 0
 170 502 195 475 195 439 c 0
 195 402 170 374 132 374 c 0
 93 374 69 402 69 439 c 1xc0
76 -150 m 2xa0
 118 281 l 1
 147 281 l 1
 187 -150 l 2
 191 -195 186 -217 132 -217 c 0
 77 -217 72 -195 76 -150 c 2xa0
EndSplineSet
EndChar

StartChar: cent
Encoding: 162 162 98
Width: 530
GlyphClass: 2
Flags: MW
HStem: -10 21G<261 301 261 261> 87 50<189 301 301 301> 564 35<261 261> 655 20G<261 301 301 301>
VStem: 37 98<301 435> 261 40<-10 87 -10 87 140 564 599 675>
LayerCount: 2
Fore
SplineSet
37 346 m 0
 37 524 140 592 261 599 c 1
 261 675 l 1
 301 675 l 1
 301 599 l 1
 443 598 480 532 480 500 c 0
 480 470 453 453 428 453 c 0
 414 453 406 459 398 477 c 0
 364 554 326 562 301 564 c 1
 301 137 l 1
 366 136 417 154 461 231 c 1
 487 215 l 1
 452 127 378 88 301 87 c 1
 301 -10 l 1
 261 -10 l 1
 261 87 l 1
 117 87 37 175 37 346 c 0
135 356 m 0
 135 246 167 160 261 140 c 1
 261 564 l 1
 225 561 135 550 135 356 c 0
EndSplineSet
EndChar

StartChar: sterling
Encoding: 163 163 99
Width: 530
GlyphClass: 2
Flags: MW
HStem: 0 76<182 407 407 427.5 182 460> 291 38<53 155 53 172 53 155 282 282 282 418> 645 35<247.5 301.5>
VStem: 96 86<504.5 553.5> 206 86<147 233> 381 73
LayerCount: 2
Fore
SplineSet
27 5 m 1
 45 45 l 1
 120 70 206 109 206 185 c 0
 206 214 201 243 172 291 c 1
 53 291 l 1
 53 329 l 1
 155 329 l 1
 130 374 96 435 96 498 c 0
 96 609 180 680 289 680 c 0
 395 680 454 623 454 572 c 0
 454 544 427 530 410 530 c 0
 391 530 385 535 381 548 c 0
 363 608 326 645 277 645 c 0
 218 645 182 600 182 540 c 0
 182 469 224 401 266 329 c 1
 418 329 l 1
 418 291 l 1
 282 291 l 1
 292 252 288 272 292 233 c 1
 292 170 260 123 182 80 c 1
 182 76 l 1
 407 76 l 2
 448 76 462 104 483 134 c 1
 510 125 l 1
 460 0 l 1
 31 0 l 1
 27 5 l 1
EndSplineSet
EndChar

StartChar: currency
Encoding: 164 164 100
Width: 530
GlyphClass: 2
Flags: MW
HStem: 109 53<242.5 287.5> 506 53<242.5 287.5 242.5 308.5>
VStem: 43 72<309.5 358.5> 415 72<309.5 358.5 309.5 383>
LayerCount: 2
Fore
SplineSet
42 101 m 0
 17 121 19 142 50 166 c 2
 89 196 l 1
 53 242 43 285 43 334 c 0
 43 383 53 426 89 472 c 1
 50 502 l 2
 19 526 17 547 42 567 c 0
 66 587 85 580 104 552 c 2
 131 513 l 1
 168 548 220 559 265 559 c 0
 310 559 362 548 399 513 c 1
 426 552 l 2
 445 580 464 587 488 567 c 0
 513 547 511 526 480 502 c 2
 441 472 l 1
 477 426 487 383 487 334 c 0
 487 285 477 242 441 196 c 1
 480 166 l 2
 511 142 513 121 488 101 c 0
 464 81 445 88 426 116 c 2
 399 155 l 1
 362 120 310 109 265 109 c 0
 220 109 168 120 131 155 c 1
 104 116 l 2
 85 88 66 81 42 101 c 0
115 334 m 0
 115 236 178 162 265 162 c 0
 352 162 415 236 415 334 c 0
 415 432 352 506 265 506 c 0
 178 506 115 432 115 334 c 0
EndSplineSet
EndChar

StartChar: yen
Encoding: 165 165 101
Width: 530
GlyphClass: 2
Flags: MW
HStem: 0 29<117 398 117 117> 187 38<42 212 42 212 303 473> 310 38<42 188 42 202 42 188 323 473> 637 31
VStem: -2 157 212 91<87 187 225 254 254 255> 397 128
LayerCount: 2
Fore
SplineSet
-2 639 m 1
 -2 668 l 1
 217 668 l 1
 217 639 l 1
 170 635 l 2
 154 633 152 622 158 610 c 2
 281 348 l 1
 321 440 367 535 393 601 c 0
 400 620 401 631 383 633 c 2
 328 639 l 1
 328 668 l 1
 525 668 l 1
 525 639 l 1
 497 635 l 2
 470 631 461 622 441 589 c 0
 427 566 380 476 323 348 c 1
 473 348 l 1
 473 310 l 1
 309 310 l 1
 305 301 303 286 303 255 c 2
 303 225 l 1
 473 225 l 1
 473 187 l 1
 303 187 l 1
 303 87 l 2
 303 38 307 34 398 29 c 1
 398 0 l 1
 117 0 l 1
 117 29 l 1
 209 34 212 38 212 87 c 2
 212 187 l 1
 42 187 l 1
 42 225 l 1
 212 225 l 1
 212 254 l 2
 212 279 209 297 202 310 c 1
 42 310 l 1
 42 348 l 1
 188 348 l 1
 67 598 l 2
 54 625 42 634 24 636 c 2
 -2 639 l 1
EndSplineSet
EndChar

StartChar: brokenbar
Encoding: 166 166 102
Width: 228
GlyphClass: 2
Flags: MW
HStem: 655 20G<80 148 148 148>
VStem: 80 68<-175 175 -175 175 325 675>
LayerCount: 2
Fore
SplineSet
80 -175 m 1
 80 175 l 1
 148 175 l 1
 148 -175 l 1
 80 -175 l 1
80 325 m 1
 80 675 l 1
 148 675 l 1
 148 325 l 1
 80 325 l 1
EndSplineSet
EndChar

StartChar: section
Encoding: 167 167 103
Width: 554
GlyphClass: 2
Flags: MW
HStem: -115 37<269.5 308.5 269.5 317> 672 35<254.5 293.5>
VStem: 46 52<385.5 413.5> 456 51<202 225>
LayerCount: 2
Fore
SplineSet
46 380 m 0
 46 447 81 512 133 562 c 1
 137 622 179 707 303 707 c 0
 374 707 438 675 438 633 c 0
 438 605 414 593 395 593 c 0
 383 593 375 598 368 609 c 0
 338 661 308 672 279 672 c 0
 230 672 200 634 200 596 c 0
 200 569 202 530 331 462 c 0
 447 401 507 341 507 236 c 0
 507 168 480 106 437 51 c 1
 439 -35 374 -115 260 -115 c 0
 176 -115 107 -74 106 -33 c 0
 106 -6 126 13 153 13 c 0
 164 13 174 4 180 -6 c 0
 216 -67 251 -78 288 -78 c 0
 329 -78 367 -44 367 7 c 0
 367 54 347 100 216 166 c 0
 79 235 46 302 46 380 c 0
98 417 m 0
 98 354 147 295 248 242 c 0
 346 191 399 150 423 99 c 1
 443 114 456 147 456 188 c 0
 456 262 395 332 315 376 c 1
 236 422 168 455 145 517 c 1
 117 497 98 458 98 417 c 0
EndSplineSet
EndChar

StartChar: dieresis
Encoding: 168 168 104
Width: 400
GlyphClass: 2
Flags: MW
HStem: 570 113<76.5 115.5 284.5 323.5>
VStem: 36 120<612.5 641.5> 244 120<612.5 641.5>
LayerCount: 2
Fore
SplineSet
244 627 m 0
 244 656 265 683 304 683 c 0
 343 683 364 656 364 627 c 0
 364 598 343 570 304 570 c 0
 265 570 244 598 244 627 c 0
36 627 m 0
 36 656 57 683 96 683 c 0
 135 683 156 656 156 627 c 0
 156 598 135 570 96 570 c 0
 57 570 36 598 36 627 c 0
EndSplineSet
EndChar

StartChar: copyright
Encoding: 169 169 105
Width: 818
GlyphClass: 2
Flags: MW
HStem: -15 45<325 493 325 509.5> 149 28<381.5 455> 522 28<382 454 360.5 469.5> 662 45<325 493>
VStem: 45 64<257.5 434.5 257.5 446> 219 81<314.5 400.5 314.5 408.5> 543 20<421 519> 709 64<257.5 434.5>
LayerCount: 2
Fore
SplineSet
45 346 m 0
 45 546 208 707 409 707 c 0
 610 707 773 546 773 346 c 0
 773 146 610 -15 409 -15 c 0
 208 -15 45 146 45 346 c 0
109 346 m 0
 109 169 241 30 409 30 c 0
 577 30 709 169 709 346 c 0
 709 523 577 662 409 662 c 0
 241 662 109 523 109 346 c 0
219 348 m 0
 219 469 291 550 430 550 c 0
 478 550 532 539 563 519 c 1
 563 421 l 1
 543 421 l 1
 533 475 511 522 428 522 c 0
 336 522 300 444 300 357 c 0
 300 272 330 177 433 177 c 0
 498 177 532 209 551 280 c 1
 571 280 l 1
 560 180 l 1
 534 161 487 149 423 149 c 0
 276 149 219 235 219 348 c 0
EndSplineSet
EndChar

StartChar: ordfeminine
Encoding: 170 170 106
Width: 390
GlyphClass: 2
Flags: MW
HStem: 265 35 284 18<329 364> 444 27<235 235> 562 28<176.5 198>
VStem: 40 79<345 371.5> 53 72 235 69<366 444 444 444 471 509 509 510>
LayerCount: 2
Fore
SplineSet
40 355 m 0xba
 40 388 55 410 119 432 c 0xba
 158 446 196 458 235 471 c 1
 235 509 l 2
 235 549 209 562 187 562 c 0
 166 562 139 551 125 511 c 0
 121 499 112 485 97 485 c 0
 80 485 53 498 53 517 c 0
 53 554 116 590 192 590 c 0
 296 590 304 545 304 510 c 2
 304 356 l 2
 304 317 317 305 329 302 c 0
 339 300 352 301 361 302 c 1
 364 284 l 1x76
 352 279 338 274 324 271 c 0
 310 268 295 266 281 266 c 0
 255 266 243 280 235 304 c 1
 215 292 180 265 138 265 c 0
 72 265 40 307 40 355 c 0xba
119 362 m 0
 119 328 138 301 178 300 c 1
 201 302 235 317 235 366 c 2
 235 444 l 1
 219 440 200 434 172 423 c 0
 136 410 119 393 119 362 c 0
EndSplineSet
EndChar

StartChar: guillemotleft
Encoding: 171 171 107
Width: 442
GlyphClass: 2
Flags: MW
HStem: 41 394<196 196 196 381>
VStem: 41 92<236 241.5> 226 92<236 241.5>
LayerCount: 2
Fore
SplineSet
231 223 m 2
 227 228 226 233 226 239 c 0
 226 244 227 250 231 254 c 2
 381 435 l 1
 401 418 l 1
 322 255 l 2
 319 250 318 244 318 239 c 0
 318 233 319 227 322 221 c 2
 401 57 l 1
 381 41 l 1
 231 223 l 2
46 223 m 2
 42 228 41 233 41 239 c 0
 41 244 42 250 46 254 c 2
 196 435 l 1
 216 418 l 1
 137 255 l 2
 134 250 133 244 133 239 c 0
 133 233 134 227 137 221 c 2
 216 57 l 1
 196 41 l 1
 46 223 l 2
EndSplineSet
EndChar

StartChar: logicalnot
Encoding: 172 172 108
Width: 570
GlyphClass: 2
Flags: MW
HStem: 331 58<43 527 43 459>
VStem: 459 68<102 331 331 331>
LayerCount: 2
Fore
SplineSet
43 331 m 1
 43 389 l 1
 527 389 l 1
 527 102 l 1
 459 102 l 1
 459 331 l 1
 43 331 l 1
EndSplineSet
EndChar

StartChar: uni00AD
Encoding: 173 173 109
Width: 392
GlyphClass: 2
Flags: MW
HStem: 216 70<74 319 74 319>
VStem: 74 245<216 286 216 286>
LayerCount: 2
Fore
SplineSet
74 216 m 1
 74 286 l 1
 319 286 l 1
 319 216 l 1
 74 216 l 1
EndSplineSet
EndChar

StartChar: registered
Encoding: 174 174 110
Width: 818
GlyphClass: 2
Flags: MW
HStem: -15 45<325 493 325 509.5> 159 20<244 244 244 412> 334 28<360 394 360 398> 512 28<384.5 424> 520 20<244 424> 662 45<325 493>
VStem: 45 64<257.5 434.5 257.5 446> 295 65<211 334 362 486 486 491> 484 70<418.5 468.5> 709 64<257.5 434.5>
LayerCount: 2
Fore
SplineSet
45 346 m 0xe7c0
 45 546 208 707 409 707 c 0
 610 707 773 546 773 346 c 0
 773 146 610 -15 409 -15 c 0
 208 -15 45 146 45 346 c 0xe7c0
109 346 m 0
 109 169 241 30 409 30 c 0
 577 30 709 169 709 346 c 0
 709 523 577 662 409 662 c 0
 241 662 109 523 109 346 c 0
244 159 m 1
 244 179 l 1
 275 183 l 2
 292 185 295 194 295 211 c 2
 295 486 l 2
 295 505 292 513 275 516 c 2
 244 520 l 1
 244 540 l 1xefc0
 424 540 l 2xf7c0
 521 540 554 500 554 446 c 0
 554 391 513 360 457 351 c 1
 457 349 l 1
 517 334 527 297 535 253 c 0
 540 224 549 206 562 191 c 0
 570 183 583 178 597 174 c 1
 597 159 l 1
 553 159 l 2
 510 159 490 174 480 202 c 0
 466 242 463 285 454 304 c 0
 444 325 425 334 394 334 c 2
 360 334 l 1
 360 211 l 2
 360 194 364 185 382 183 c 2
 412 179 l 1
 412 159 l 1
 244 159 l 1
360 362 m 1
 398 362 l 2
 449 362 484 383 484 438 c 0
 484 499 443 512 405 512 c 0xf7c0
 364 512 360 506 360 491 c 2
 360 362 l 1
EndSplineSet
EndChar

StartChar: macron
Encoding: 175 175 111
Width: 400
GlyphClass: 2
Flags: MW
HStem: 597 59<56 344 56 344>
VStem: 56 288<597 656 597 656>
LayerCount: 2
Fore
SplineSet
56 597 m 1
 56 656 l 1
 344 656 l 1
 344 597 l 1
 56 597 l 1
EndSplineSet
Substitution2: "'c2sc' Capitals to Small Capitals lookup 4 subtable" macron.sc
Substitution2: "'smcp' Lowercase to Small Capitals lookup 3 subtable" macron.sc
EndChar

StartChar: degree
Encoding: 176 176 112
Width: 350
GlyphClass: 2
Flags: MW
HStem: 404 48<153 197 153 212.5> 632 48<153 197>
VStem: 37 56<516.5 567.5 516.5 579.5> 257 56<516.5 567.5>
LayerCount: 2
Fore
SplineSet
37 542 m 0
 37 617 100 680 175 680 c 0
 250 680 313 617 313 542 c 0
 313 467 250 404 175 404 c 0
 100 404 37 467 37 542 c 0
93 542 m 0
 93 491 131 452 175 452 c 0
 219 452 257 491 257 542 c 0
 257 593 219 632 175 632 c 0
 131 632 93 593 93 542 c 0
EndSplineSet
EndChar

StartChar: plusminus
Encoding: 177 177 113
Width: 570
GlyphClass: 2
Flags: MW
HStem: 0 58<43 527 43 527> 311 58<43 252 43 252 320 527>
VStem: 252 68<114 311 114 311 369 556>
LayerCount: 2
Fore
SplineSet
43 311 m 1
 43 369 l 1
 252 369 l 1
 252 556 l 1
 320 556 l 1
 320 369 l 1
 527 369 l 1
 527 311 l 1
 320 311 l 1
 320 114 l 1
 252 114 l 1
 252 311 l 1
 43 311 l 1
43 0 m 1
 43 58 l 1
 527 58 l 1
 527 0 l 1
 43 0 l 1
EndSplineSet
EndChar

StartChar: twosuperior
Encoding: 178 178 114
Width: 380
GlyphClass: 2
Flags: HMW
HStem: 408 59<99 261 261 277 99 313> 788 28<166.5 200.5>
VStem: 237 86<698.5 738>
LayerCount: 2
Fore
SplineSet
24 418 m 1
 31 466 68 520 157 581 c 0
 224 627 237 679 237 718 c 0
 237 758 219 788 182 788 c 0
 151 788 125 766 113 708 c 0
 110 692 104 684 87 684 c 0
 66 684 42 699 42 720 c 0
 42 765 91 816 185 816 c 0
 270 816 323 780 323 707 c 0
 323 644 279 608 190 559 c 0
 130 526 108 491 99 467 c 1
 261 467 l 2
 293 467 304 477 317 502 c 1
 340 497 l 1
 313 408 l 1
 33 408 l 1
 24 418 l 1
EndSplineSet
Substitution2: "'pnum' Proportional Numbers lookup 7 subtable" twosuperior.pnum
EndChar

StartChar: threesuperior
Encoding: 179 179 115
Width: 380
GlyphClass: 2
Flags: HMW
HStem: 401 28<155 191 155 216> 597 47<109.5 120.5> 604 33<157.5 181.5> 788 28<153.5 195.5>
VStem: 25 68 42 64 228 82<695 725.5> 242 86<486 557.5>
LayerCount: 2
Fore
SplineSet
25 477 m 0xb9
 25 501 49 521 70 521 c 0
 82 521 89 514 93 501 c 0
 109 451 138 429 172 429 c 0
 210 429 242 452 242 520 c 0
 242 595 190 604 173 604 c 0xb9
 142 604 125 597 116 597 c 0
 103 597 99 608 99 620 c 0
 99 632 102 644 116 644 c 0xd9
 125 644 142 637 173 637 c 0
 214 637 228 677 228 713 c 0
 228 738 220 788 171 788 c 0
 136 788 118 760 106 713 c 0
 102 699 93 695 83 695 c 0
 65 695 42 709 42 732 c 0
 42 771 93 816 176 816 c 0
 237 816 310 793 310 717 c 0xb6
 310 654 254 632 222 625 c 1
 222 623 l 1
 254 621 328 597 328 518 c 0
 328 442 268 401 164 401 c 0
 83 401 25 436 25 477 c 0xb9
EndSplineSet
Substitution2: "'pnum' Proportional Numbers lookup 7 subtable" threesuperior.pnum
EndChar

StartChar: acute
Encoding: 180 180 116
Width: 400
GlyphClass: 2
Flags: MW
HStem: 542 181<144 319.5>
VStem: 129 222<562 690>
LayerCount: 2
Fore
SplineSet
129 562 m 1
 248 682 l 2
 278 713 295 723 312 723 c 0
 327 723 351 700 351 680 c 0
 351 659 325 642 295 626 c 2
 144 542 l 1
 129 562 l 1
EndSplineSet
Substitution2: "'c2sc' Capitals to Small Capitals lookup 4 subtable" acute.sc
Substitution2: "'smcp' Lowercase to Small Capitals lookup 3 subtable" acute.sc
EndChar

StartChar: uni00B5
Encoding: 181 181 117
Width: 606
GlyphClass: 2
Flags: MW
HStem: -12 54<262 291.5> 0 29<431 591> 452 25<26 26> 482 20G<183 183 509 509>
VStem: 96 53<-32 -12 -12 21 -32 402> 96 94<117 156 156 402 402 420> 422 94<177 402 402 420>
LayerCount: 2
Fore
SplineSet
26 452 m 1xb6
 26 477 l 1
 183 502 l 1
 190 496 l 1
 190 156 l 2
 190 78 233 42 291 42 c 0xb6
 343 42 391 71 414 117 c 0
 419 127 422 149 422 177 c 2
 422 402 l 2
 422 438 416 443 390 447 c 2
 352 452 l 1
 352 477 l 1
 509 502 l 1
 516 496 l 1
 516 87 l 2
 516 38 522 34 591 29 c 1
 591 0 l 1
 431 0 l 1x76
 421 60 l 1
 392 46 329 -12 254 -12 c 0
 203 -12 176 -1 151 21 c 1
 149 21 l 1
 149 -12 l 2
 149 -52 165 -95 178 -121 c 0
 191 -146 203 -170 204 -185 c 0
 206 -219 160 -246 132 -246 c 0
 112 -246 96 -238 96 -199 c 2xba
 96 402 l 2
 96 438 90 443 64 447 c 2
 26 452 l 1xb6
EndSplineSet
EndChar

StartChar: paragraph
Encoding: 182 182 118
Width: 555
GlyphClass: 2
Flags: MW
HStem: -101 30 662 30
VStem: 64 227<404 531> 363 71<-26 620 -101 692>
LayerCount: 2
Fore
SplineSet
64 466 m 0
 64 596 146 692 279 692 c 2
 291 692 l 1
 291 250 l 1
 275 250 l 2
 152 250 64 342 64 466 c 0
262 -75 m 1
 336 -66 l 2
 356 -63 363 -55 363 -26 c 2
 363 692 l 1
 529 692 l 1
 529 666 l 1
 461 657 l 2
 442 654 434 649 434 620 c 2
 434 -101 l 1
 262 -101 l 1
 262 -75 l 1
EndSplineSet
EndChar

StartChar: periodcentered
Encoding: 183 183 119
Width: 265
GlyphClass: 2
Flags: MW
HStem: 188 128<114 152.5>
VStem: 70 126<251 269.5 251 269.5>
LayerCount: 2
Fore
SplineSet
70 251 m 0
 70 288 95 316 133 316 c 0
 172 316 196 288 196 251 c 1
 195 215 172 188 133 188 c 0
 95 188 70 215 70 251 c 0
EndSplineSet
EndChar

StartChar: cedilla
Encoding: 184 184 120
Width: 400
GlyphClass: 2
Flags: MW
HStem: -230 29<163 222.5>
VStem: 251 78<-165.5 -120.5>
LayerCount: 2
Fore
SplineSet
163 -201 m 1
 212 -201 251 -186 251 -145 c 0
 251 -96 207 -92 189 -91 c 1
 185 -84 l 1
 231 0 l 1
 272 0 l 1
 240 -55 l 1
 277 -60 329 -78 329 -142 c 0
 329 -219 238 -230 207 -230 c 0
 189 -230 177 -229 163 -227 c 1
 163 -201 l 1
EndSplineSet
EndChar

StartChar: onesuperior
Encoding: 185 185 121
Width: 380
GlyphClass: 2
Flags: HMW
HStem: 408 22<83 83 83 309> 776 19<83 83> 796 20G<226 226>
VStem: 159 74<461 744 744 751.5>
LayerCount: 2
Fore
SplineSet
83 408 m 1
 83 430 l 1
 138 435 l 2
 151 436 159 442 159 461 c 2
 159 744 l 2
 159 759 155 766 144 768 c 2
 83 776 l 1
 83 795 l 1
 226 816 l 1
 233 812 l 1
 233 461 l 2
 233 442 241 436 255 435 c 2
 309 430 l 1
 309 408 l 1
 83 408 l 1
EndSplineSet
Substitution2: "'pnum' Proportional Numbers lookup 7 subtable" onesuperior.pnum
EndChar

StartChar: ordmasculine
Encoding: 186 186 122
Width: 398
GlyphClass: 2
Flags: HMW
HStem: 401 28<170 227 170 253.5> 698 28<170 227>
VStem: 35 83<563 563> 280 83<563 563>
LayerCount: 2
Fore
SplineSet
35 563 m 0
 35 666 89 726 198 726 c 0
 309 726 363 666 363 563 c 0
 363 461 309 401 198 401 c 0
 89 401 35 461 35 563 c 0
118 563 m 1
 120 481 142 429 198 429 c 0
 256 429 278 481 280 563 c 1
 278 646 256 698 198 698 c 0
 142 698 120 646 118 563 c 1
EndSplineSet
EndChar

StartChar: guillemotright
Encoding: 187 187 123
Width: 442
GlyphClass: 2
Flags: MW
HStem: 41 394<61 61 61 246>
VStem: 124 92<236 241.5> 309 92<236 241.5>
LayerCount: 2
Fore
SplineSet
226 57 m 1
 305 221 l 2
 308 227 309 233 309 239 c 0
 309 244 308 250 305 255 c 2
 226 418 l 1
 246 435 l 1
 396 254 l 2
 399 250 401 244 401 239 c 0
 401 233 399 228 396 223 c 2
 246 41 l 1
 226 57 l 1
41 57 m 1
 120 221 l 2
 123 227 124 233 124 239 c 0
 124 244 123 250 120 255 c 2
 41 418 l 1
 61 435 l 1
 211 254 l 2
 214 250 216 244 216 239 c 0
 216 233 214 228 211 223 c 2
 61 41 l 1
 41 57 l 1
EndSplineSet
EndChar

StartChar: onequarter
Encoding: 188 188 124
Width: 860
GlyphClass: 2
Flags: MW
HStem: 0 22<589 785 589 589> 102 33<530 655 530 655 729 793> 272 22<67 67 67 293> 381 20<668 729 729 729> 640 19<67 67> 660 20<210 210> 675 20<627 627>
VStem: 143 74<325 608 608 615.5> 655 74<53 102 43.5 102 135 333 333 333>
LayerCount: 2
Fore
SplineSet
476 119 m 1xd080
 534 215 624 347 668 401 c 1
 729 401 l 1
 729 135 l 1
 793 135 l 1
 793 102 l 1
 729 102 l 1
 729 53 l 2
 729 34 737 28 751 27 c 1
 785 22 l 1
 785 0 l 1
 589 0 l 1
 589 22 l 1
 634 27 l 2
 647 28 655 34 655 53 c 2
 655 102 l 1
 487 102 l 1
 476 119 l 1xd080
530 135 m 1
 655 135 l 1
 655 333 l 1
 653 333 l 1
 616 277 568 202 530 135 c 1
67 272 m 1x2d
 67 294 l 1
 122 299 l 2
 135 300 143 306 143 325 c 2
 143 608 l 2
 143 623 139 630 128 632 c 2
 67 640 l 1
 67 659 l 1
 210 680 l 1
 217 676 l 1
 217 325 l 2
 217 306 225 300 239 299 c 2
 293 294 l 1
 293 272 l 1
 67 272 l 1x2d
199 0 m 1x02
 627 695 l 1
 665 671 l 1
 235 -27 l 1
 199 0 l 1x02
EndSplineSet
EndChar

StartChar: onehalf
Encoding: 189 189 125
Width: 860
GlyphClass: 2
Flags: MW
HStem: 0 59<558 720 720 736 558 772> 272 22<60 60 60 286> 380 28<625.5 659.5> 640 19<60 60> 660 20<203 203> 675 20<600 600>
VStem: 136 74<325 608 608 615.5> 696 86<290.5 330>
LayerCount: 2
Fore
SplineSet
483 10 m 1xa1
 490 58 527 112 616 173 c 0
 683 219 696 271 696 310 c 0
 696 350 678 380 641 380 c 0
 610 380 584 358 572 300 c 0
 569 284 563 276 546 276 c 0
 525 276 501 291 501 312 c 0
 501 357 550 408 644 408 c 0
 729 408 782 372 782 299 c 0
 782 236 738 200 649 151 c 0
 589 118 567 83 558 59 c 1
 720 59 l 2
 752 59 763 69 776 94 c 1
 799 89 l 1
 772 0 l 1
 492 0 l 1
 483 10 l 1xa1
60 272 m 1x5a
 60 294 l 1
 115 299 l 2
 128 300 136 306 136 325 c 2
 136 608 l 2
 136 623 132 630 121 632 c 2
 60 640 l 1
 60 659 l 1
 203 680 l 1
 210 676 l 1
 210 325 l 2
 210 306 218 300 232 299 c 2
 286 294 l 1
 286 272 l 1
 60 272 l 1x5a
172 0 m 1x04
 600 695 l 1
 638 671 l 1
 208 -27 l 1
 172 0 l 1x04
EndSplineSet
EndChar

StartChar: threequarters
Encoding: 190 190 126
Width: 860
GlyphClass: 2
Flags: MW
HStem: 0 22<602 798 602 602> 102 33<543 668 543 668 742 806> 265 28<169 205 169 230> 381 20<681 742 742 742> 461 47<123.5 134.5> 468 33<171.5 195.5> 652 28<167.5 209.5> 675 20<655 655>
VStem: 39 68 56 64 242 82<559 589.5> 256 86<350 421.5> 668 74<53 102 43.5 102 135 333 333 333>
LayerCount: 2
Fore
SplineSet
489 119 m 1xd008
 547 215 637 347 681 401 c 1
 742 401 l 1
 742 135 l 1
 806 135 l 1
 806 102 l 1
 742 102 l 1
 742 53 l 2
 742 34 750 28 764 27 c 1
 798 22 l 1
 798 0 l 1
 602 0 l 1
 602 22 l 1
 647 27 l 2
 660 28 668 34 668 53 c 2
 668 102 l 1
 500 102 l 1
 489 119 l 1xd008
543 135 m 1
 668 135 l 1
 668 333 l 1
 666 333 l 1
 629 277 581 202 543 135 c 1
39 341 m 0x2690
 39 365 63 385 84 385 c 0
 96 385 103 378 107 365 c 0
 123 315 152 293 186 293 c 0
 224 293 256 316 256 384 c 0
 256 459 204 468 187 468 c 0x2690
 156 468 139 461 130 461 c 0
 117 461 113 472 113 484 c 0
 113 496 116 508 130 508 c 0x2a90
 139 508 156 501 187 501 c 0
 228 501 242 541 242 577 c 0
 242 602 234 652 185 652 c 0
 150 652 132 624 120 577 c 0
 116 563 107 559 97 559 c 0
 79 559 56 573 56 596 c 0
 56 635 107 680 190 680 c 0
 251 680 324 657 324 581 c 0x2660
 324 518 268 496 236 489 c 1
 236 487 l 1
 268 485 342 461 342 382 c 0
 342 306 282 265 178 265 c 0
 97 265 39 300 39 341 c 0x2690
227 0 m 1x01
 655 695 l 1
 693 671 l 1
 263 -27 l 1
 227 0 l 1x01
EndSplineSet
EndChar

StartChar: questiondown
Encoding: 191 191 127
Width: 389
GlyphClass: 2
Flags: MW
HStem: -217 35<170 188> 247 44<128 219> 377 125<180.5 218>
VStem: 30 99<-81 -81> 137 124<422 440 422 458> 202 97<171.5 201.5> 275 85
LayerCount: 2
Fore
SplineSet
30 -81 m 1xf2
 32 0 92 35 126 59 c 0
 176 94 202 130 202 174 c 0
 202 229 155 247 134 247 c 0
 122 247 111 245 104 243 c 1
 96 263 l 1
 123 285 161 291 192 291 c 0
 246 291 299 257 299 194 c 0xf4
 299 149 278 123 218 77 c 0
 173 43 129 -18 129 -81 c 0
 129 -139 147 -182 193 -182 c 0
 233 -182 261 -150 275 -75 c 0
 278 -58 292 -51 307 -51 c 0
 324 -51 360 -64 360 -101 c 0
 360 -134 320 -215 188 -217 c 1
 98 -217 32 -174 30 -81 c 1xf2
137 440 m 0xf8
 137 476 162 502 199 502 c 0
 237 502 260 476 261 440 c 0
 261 404 237 377 199 377 c 0
 162 377 137 404 137 440 c 0xf8
EndSplineSet
EndChar

StartChar: Agrave
Encoding: 192 192 128
Width: 635
GlyphClass: 2
Flags: MW
HStem: 0 29<-29 -29 -29 191> 267 38<188 387 188 399 175 387> 672 20<277 351 351 351> 742 21<398 398> 798 92
VStem: 167 242
AnchorPoint: "Anchor-5" 314 886 basechar 0
AnchorPoint: "Anchor-4" 310 0 basechar 0
LayerCount: 2
Fore
SplineSet
167 838 m 0
 165 858 184 887 199 890 c 0
 215 893 229 887 264 863 c 2
 409 764 l 1
 398 742 l 1
 228 798 l 2
 183 812 169 819 167 838 c 0
-29 0 m 1
 -29 29 l 1
 34 32 43 44 64 98 c 0
 99 189 141 309 172 396 c 2
 277 692 l 1
 351 692 l 1
 563 89 l 2
 581 37 592 34 650 29 c 1
 650 0 l 1
 394 0 l 1
 394 29 l 1
 439 33 l 2
 471 36 476 47 466 76 c 2
 399 267 l 1
 175 267 l 1
 152 196 131 134 114 74 c 0
 106 47 109 37 139 34 c 2
 191 29 l 1
 191 0 l 1
 -29 0 l 1
188 305 m 1
 387 305 l 1
 288 591 l 1
 285 591 l 1
 255 503 220 405 188 305 c 1
EndSplineSet
Substitution2: "'c2sc' Capitals to Small Capitals lookup 4 subtable" Agrave.sc
EndChar

StartChar: Aacute
Encoding: 193 193 129
Width: 635
GlyphClass: 2
Flags: MW
HStem: 0 29<-29 -29 -29 191> 267 38<188 387 188 399 175 387> 672 20<277 351 351 351> 742 21<226 226> 798 92
VStem: 215 242
AnchorPoint: "Anchor-5" 314 886 basechar 0
AnchorPoint: "Anchor-4" 310 0 basechar 0
LayerCount: 2
Fore
SplineSet
215 764 m 1
 360 863 l 2
 395 887 409 893 425 890 c 0
 440 887 459 858 457 838 c 0
 455 819 441 812 396 798 c 2
 226 742 l 1
 215 764 l 1
-29 0 m 1
 -29 29 l 1
 34 32 43 44 64 98 c 0
 99 189 141 309 172 396 c 2
 277 692 l 1
 351 692 l 1
 563 89 l 2
 581 37 592 34 650 29 c 1
 650 0 l 1
 394 0 l 1
 394 29 l 1
 439 33 l 2
 471 36 476 47 466 76 c 2
 399 267 l 1
 175 267 l 1
 152 196 131 134 114 74 c 0
 106 47 109 37 139 34 c 2
 191 29 l 1
 191 0 l 1
 -29 0 l 1
188 305 m 1
 387 305 l 1
 288 591 l 1
 285 591 l 1
 255 503 220 405 188 305 c 1
EndSplineSet
Substitution2: "'c2sc' Capitals to Small Capitals lookup 4 subtable" Aacute.sc
EndChar

StartChar: Acircumflex
Encoding: 194 194 130
Width: 635
GlyphClass: 2
Flags: MW
HStem: 0 29<-29 -29 -29 191> 267 38<188 387 188 399 175 387> 672 20<277 351 351 351> 792 84<314 322.5>
VStem: 165 306<738 738>
AnchorPoint: "Anchor-5" 314 871 basechar 0
AnchorPoint: "Anchor-4" 310 0 basechar 0
LayerCount: 2
Fore
SplineSet
165 738 m 1
 281 852 l 2
 295 865 306 876 318 876 c 0
 330 876 342 864 355 852 c 2
 471 738 l 1
 458 717 l 1
 351 778 l 2
 338 785 327 792 318 792 c 0
 310 792 298 785 285 778 c 2
 178 717 l 1
 165 738 l 1
-29 0 m 1
 -29 29 l 1
 34 32 43 44 64 98 c 0
 99 189 141 309 172 396 c 2
 277 692 l 1
 351 692 l 1
 563 89 l 2
 581 37 592 34 650 29 c 1
 650 0 l 1
 394 0 l 1
 394 29 l 1
 439 33 l 2
 471 36 476 47 466 76 c 2
 399 267 l 1
 175 267 l 1
 152 196 131 134 114 74 c 0
 106 47 109 37 139 34 c 2
 191 29 l 1
 191 0 l 1
 -29 0 l 1
188 305 m 1
 387 305 l 1
 288 591 l 1
 285 591 l 1
 255 503 220 405 188 305 c 1
EndSplineSet
Substitution2: "'c2sc' Capitals to Small Capitals lookup 4 subtable" Acircumflex.sc
EndChar

StartChar: Atilde
Encoding: 195 195 131
Width: 635
GlyphClass: 2
Flags: MW
HStem: 0 29<-29 -29 -29 191> 267 38<188 387 188 399 175 387> 672 20<277 351 351 351> 736 60<396.5 415.5> 774 60<220 242>
AnchorPoint: "Anchor-5" 314 837 basechar 0
AnchorPoint: "Anchor-4" 310 0 basechar 0
LayerCount: 2
Fore
SplineSet
140 736 m 1x10
 160 776 188 834 252 834 c 0x08
 276 834 304 825 331 815 c 1
 359 806 386 796 407 796 c 0
 435 796 447 807 475 842 c 1
 495 831 l 1
 466 774 440 736 391 736 c 0x10
 369 736 340 746 311 755 c 0
 282 765 253 774 231 774 c 0x08
 198 774 181 758 159 723 c 1
 140 736 l 1x10
-29 0 m 1xe0
 -29 29 l 1
 34 32 43 44 64 98 c 0
 99 189 141 309 172 396 c 2
 277 692 l 1
 351 692 l 1
 563 89 l 2
 581 37 592 34 650 29 c 1
 650 0 l 1
 394 0 l 1
 394 29 l 1
 439 33 l 2
 471 36 476 47 466 76 c 2
 399 267 l 1
 175 267 l 1
 152 196 131 134 114 74 c 0
 106 47 109 37 139 34 c 2
 191 29 l 1
 191 0 l 1
 -29 0 l 1xe0
188 305 m 1
 387 305 l 1
 288 591 l 1
 285 591 l 1
 255 503 220 405 188 305 c 1
EndSplineSet
Substitution2: "'c2sc' Capitals to Small Capitals lookup 4 subtable" Atilde.sc
EndChar

StartChar: Adieresis
Encoding: 196 196 132
Width: 635
GlyphClass: 2
Flags: MW
HStem: 0 29<-29 -29 -29 191> 267 38<188 387 188 399 175 387> 672 20<277 351 351 351> 732 109<195.5 233 403.5 441>
VStem: 156 116<773 801> 364 116<773 801>
AnchorPoint: "Anchor-5" 314 836 basechar 0
AnchorPoint: "Anchor-4" 310 0 basechar 0
LayerCount: 2
Fore
SplineSet
156 787 m 0
 156 815 177 841 214 841 c 0
 252 841 272 815 272 787 c 0
 272 759 252 732 214 732 c 0
 177 732 156 759 156 787 c 0
364 787 m 0
 364 815 385 841 422 841 c 0
 460 841 480 815 480 787 c 0
 480 759 460 732 422 732 c 0
 385 732 364 759 364 787 c 0
-29 0 m 1
 -29 29 l 1
 34 32 43 44 64 98 c 0
 99 189 141 309 172 396 c 2
 277 692 l 1
 351 692 l 1
 563 89 l 2
 581 37 592 34 650 29 c 1
 650 0 l 1
 394 0 l 1
 394 29 l 1
 439 33 l 2
 471 36 476 47 466 76 c 2
 399 267 l 1
 175 267 l 1
 152 196 131 134 114 74 c 0
 106 47 109 37 139 34 c 2
 191 29 l 1
 191 0 l 1
 -29 0 l 1
188 305 m 1
 387 305 l 1
 288 591 l 1
 285 591 l 1
 255 503 220 405 188 305 c 1
EndSplineSet
Substitution2: "'c2sc' Capitals to Small Capitals lookup 4 subtable" Adieresis.sc
EndChar

StartChar: Aring
Encoding: 197 197 133
Width: 627
GlyphClass: 2
Flags: MW
HStem: 0 29<-32 -32 -32 188> 267 38<185 384 185 396 172 384> 672 20G<298 326> 828 33<298 326>
VStem: -32 139 204 58<734 786 734 797.5> 362 58<734 786> 468 179
LayerCount: 2
Fore
SplineSet
-32 0 m 1
 -32 29 l 1
 31 32 40 44 61 98 c 0
 96 189 138 309 169 396 c 2
 266 667 l 1
 231 678 204 707 204 760 c 0
 204 835 258 861 312 861 c 0
 366 861 420 835 420 760 c 0
 420 706 392 677 356 666 c 1
 560 89 l 2
 578 37 589 34 647 29 c 1
 647 0 l 1
 391 0 l 1
 391 29 l 1
 436 33 l 2
 468 36 473 47 463 76 c 2
 396 267 l 1
 172 267 l 1
 149 196 128 134 111 74 c 0
 103 47 106 37 136 34 c 2
 188 29 l 1
 188 0 l 1
 -32 0 l 1
185 305 m 1
 384 305 l 1
 285 591 l 1
 282 591 l 1
 252 503 217 405 185 305 c 1
262 760 m 0
 262 708 284 692 312 692 c 0
 340 692 362 708 362 760 c 0
 362 812 340 828 312 828 c 0
 284 828 262 812 262 760 c 0
EndSplineSet
Substitution2: "'c2sc' Capitals to Small Capitals lookup 4 subtable" Aring.sc
EndChar

StartChar: AE
Encoding: 198 198 134
Width: 876
GlyphClass: 2
Flags: MW
HStem: 0 29<-63 -63 -63 168> 0 35<597 685 597 835> 341 38<244 397 244 397 225 397 494 634> 652 40<391 397 391 391> 657 35<314 314 515 531 531 629>
VStem: -63 147 397 97<103 125 125 341 379 621> 732 30<254 465 254 465> 780 30<528 692>
AnchorPoint: "Anchor-5" 470 707 basechar 0
AnchorPoint: "Anchor-4" 392 0 basechar 0
LayerCount: 2
Fore
SplineSet
-63 0 m 1x6f
 -63 29 l 1
 -9 34 5 38 28 77 c 0
 83 170 128 261 203 398 c 2
 326 623 l 2
 339 647 334 656 314 657 c 2
 239 663 l 1
 239 692 l 1xaf
 810 692 l 1
 810 528 l 1
 780 528 l 1x6b80
 766 632 743 657 629 657 c 2
 531 657 l 2
 499 657 494 651 494 621 c 2
 494 379 l 1
 634 379 l 2
 719 379 723 403 732 465 c 1
 762 465 l 1
 762 254 l 1
 732 254 l 1
 723 317 719 341 634 341 c 2
 494 341 l 1
 494 125 l 2
 494 81 500 58 521 48 c 0
 542 38 571 35 623 35 c 0
 747 35 794 51 817 173 c 1
 847 173 l 1
 835 0 l 1
 307 0 l 1x6b
 307 29 l 1
 394 35 397 37 397 95 c 2xab
 397 341 l 1
 225 341 l 1
 135 168 97 90 87 64 c 0
 80 47 85 38 102 36 c 2
 168 29 l 1
 168 0 l 1
 -63 0 l 1x6f
244 379 m 1
 397 379 l 1x6b
 397 652 l 1
 391 652 l 1x73
 329 538 266 419 244 379 c 1
EndSplineSet
Substitution2: "'c2sc' Capitals to Small Capitals lookup 4 subtable" AE.sc
EndChar

StartChar: Ccedilla
Encoding: 199 199 135
Width: 680
GlyphClass: 2
Flags: MW
HStem: -230 29<313 372.5> -15 35<413 454> 672 35<411 462>
VStem: 48 112<283.5 397.5> 401 78<-165.5 -120.5> 603 30<512 668> 619 30<200 200>
AnchorPoint: "Anchor-5" 420 707 basechar 0
LayerCount: 2
Fore
SplineSet
48 341 m 0xfa
 48 454 82 540 139 604 c 0
 199 671 298 707 421 707 c 0
 512 707 588 689 633 668 c 1
 633 512 l 1
 603 512 l 1xfc
 584 630 513 672 411 672 c 0
 225 673 160 508 160 344 c 0
 160 223 203 20 409 20 c 0
 540 20 591 96 619 200 c 1
 649 200 l 1
 635 33 l 1
 587 7 495 -15 413 -15 c 1
 390 -55 l 1
 427 -60 479 -78 479 -142 c 0
 479 -219 388 -230 357 -230 c 0
 339 -230 327 -229 313 -227 c 1
 313 -201 l 1
 362 -201 401 -186 401 -145 c 0
 401 -96 357 -92 339 -91 c 1
 335 -84 l 1
 374 -13 l 1
 279 -9 198 15 143 70 c 0
 83 130 48 224 48 341 c 0xfa
EndSplineSet
Substitution2: "'c2sc' Capitals to Small Capitals lookup 4 subtable" Ccedilla.sc
EndChar

StartChar: Egrave
Encoding: 200 200 136
Width: 606
GlyphClass: 2
Flags: MW
HStem: 0 35<329.5 416 329.5 565> 341 38<224 364 224 364> 657 35<245 261 261 359> 742 21<378 378> 798 92
VStem: 125 99<95.5 120 120 341 379 599 599 621> 147 242 462 30<254 465 254 465> 510 30<528 692> 547 30<173 173>
AnchorPoint: "Anchor-5" 306 886 basechar 0
AnchorPoint: "Anchor-4" 306 0 basechar 0
LayerCount: 2
Fore
SplineSet
147 838 m 0x1a
 145 858 164 887 179 890 c 0
 195 893 209 887 244 863 c 2
 389 764 l 1
 378 742 l 1
 208 798 l 2
 163 812 149 819 147 838 c 0x1a
35 0 m 1xe5c0
 35 29 l 1
 123 35 125 37 125 93 c 2
 125 599 l 2
 125 655 123 657 35 663 c 1
 35 692 l 1
 540 692 l 1
 540 528 l 1
 510 528 l 1
 496 632 473 657 359 657 c 2
 261 657 l 2
 229 657 224 653 224 621 c 2
 224 379 l 1
 364 379 l 2
 449 379 453 403 462 465 c 1
 492 465 l 1
 492 254 l 1
 462 254 l 1
 453 317 449 341 364 341 c 2
 224 341 l 1
 224 120 l 2
 224 71 228 54 249 45 c 0
 270 37 306 35 353 35 c 0
 479 35 524 51 547 173 c 1
 577 173 l 1
 565 0 l 1
 35 0 l 1xe5c0
EndSplineSet
Substitution2: "'c2sc' Capitals to Small Capitals lookup 4 subtable" Egrave.sc
EndChar

StartChar: Eacute
Encoding: 201 201 137
Width: 606
GlyphClass: 2
Flags: MW
HStem: 0 35<329.5 416 329.5 565> 341 38<224 364 224 364> 657 35<245 261 261 359> 742 21<243 243> 798 92
VStem: 125 99<95.5 120 120 341 379 599 599 621> 232 242 462 30<254 465 254 465> 510 30<528 692> 547 30<173 173>
AnchorPoint: "Anchor-5" 306 886 basechar 0
AnchorPoint: "Anchor-4" 306 0 basechar 0
LayerCount: 2
Fore
SplineSet
232 764 m 1x1a
 377 863 l 2
 412 887 426 893 442 890 c 0
 457 887 476 858 474 838 c 0
 472 819 458 812 413 798 c 2
 243 742 l 1
 232 764 l 1x1a
35 0 m 1xe5c0
 35 29 l 1
 123 35 125 37 125 93 c 2
 125 599 l 2
 125 655 123 657 35 663 c 1
 35 692 l 1
 540 692 l 1
 540 528 l 1
 510 528 l 1
 496 632 473 657 359 657 c 2
 261 657 l 2
 229 657 224 653 224 621 c 2
 224 379 l 1
 364 379 l 2
 449 379 453 403 462 465 c 1
 492 465 l 1
 492 254 l 1
 462 254 l 1
 453 317 449 341 364 341 c 2
 224 341 l 1
 224 120 l 2
 224 71 228 54 249 45 c 0
 270 37 306 35 353 35 c 0
 479 35 524 51 547 173 c 1
 577 173 l 1
 565 0 l 1
 35 0 l 1xe5c0
EndSplineSet
Substitution2: "'c2sc' Capitals to Small Capitals lookup 4 subtable" Eacute.sc
EndChar

StartChar: Ecircumflex
Encoding: 202 202 138
Width: 606
GlyphClass: 2
Flags: MW
HStem: 0 35<329.5 416 329.5 565> 341 38<224 364 224 364> 657 35<245 261 261 359> 792 84<299 307.5>
VStem: 125 99<95.5 120 120 341 379 599 599 621> 150 306<738 738> 462 30<254 465 254 465> 510 30<528 692> 547 30<173 173>
AnchorPoint: "Anchor-5" 306 871 basechar 0
AnchorPoint: "Anchor-4" 306 0 basechar 0
LayerCount: 2
Fore
SplineSet
150 738 m 1x14
 266 852 l 2
 280 865 291 876 303 876 c 0
 315 876 327 864 340 852 c 2
 456 738 l 1
 443 717 l 1
 336 778 l 2
 323 785 312 792 303 792 c 0
 295 792 283 785 270 778 c 2
 163 717 l 1
 150 738 l 1x14
35 0 m 1xeb80
 35 29 l 1
 123 35 125 37 125 93 c 2
 125 599 l 2
 125 655 123 657 35 663 c 1
 35 692 l 1
 540 692 l 1
 540 528 l 1
 510 528 l 1
 496 632 473 657 359 657 c 2
 261 657 l 2
 229 657 224 653 224 621 c 2
 224 379 l 1
 364 379 l 2
 449 379 453 403 462 465 c 1
 492 465 l 1
 492 254 l 1
 462 254 l 1
 453 317 449 341 364 341 c 2
 224 341 l 1
 224 120 l 2
 224 71 228 54 249 45 c 0
 270 37 306 35 353 35 c 0
 479 35 524 51 547 173 c 1
 577 173 l 1
 565 0 l 1
 35 0 l 1xeb80
EndSplineSet
Substitution2: "'c2sc' Capitals to Small Capitals lookup 4 subtable" Ecircumflex.sc
EndChar

StartChar: Edieresis
Encoding: 203 203 139
Width: 606
GlyphClass: 2
Flags: MW
HStem: 0 35<329.5 416 329.5 565> 341 38<224 364 224 364> 657 35<245 261 261 359> 692 40<180.5 218 388.5 426> 732 109<180.5 218 388.5 426>
VStem: 125 99<95.5 120 120 341 379 599 599 621> 141 116<773 801> 349 116<773 801> 462 30<254 465 254 465> 510 30<528 692> 547 30<173 173>
AnchorPoint: "Anchor-5" 306 836 basechar 0
AnchorPoint: "Anchor-4" 306 0 basechar 0
LayerCount: 2
Fore
SplineSet
141 787 m 0x0b
 141 815 162 841 199 841 c 0
 237 841 257 815 257 787 c 0
 257 759 237 732 199 732 c 0
 162 732 141 759 141 787 c 0x0b
349 787 m 0
 349 815 370 841 407 841 c 0
 445 841 465 815 465 787 c 0
 465 759 445 732 407 732 c 0
 370 732 349 759 349 787 c 0
35 0 m 1xe4e0
 35 29 l 1
 123 35 125 37 125 93 c 2
 125 599 l 2
 125 655 123 657 35 663 c 1
 35 692 l 1
 540 692 l 1
 540 528 l 1
 510 528 l 1
 496 632 473 657 359 657 c 2
 261 657 l 2
 229 657 224 653 224 621 c 2
 224 379 l 1
 364 379 l 2
 449 379 453 403 462 465 c 1
 492 465 l 1
 492 254 l 1
 462 254 l 1
 453 317 449 341 364 341 c 2
 224 341 l 1
 224 120 l 2
 224 71 228 54 249 45 c 0
 270 37 306 35 353 35 c 0
 479 35 524 51 547 173 c 1
 577 173 l 1
 565 0 l 1
 35 0 l 1xe4e0
EndSplineSet
Substitution2: "'c2sc' Capitals to Small Capitals lookup 4 subtable" Edieresis.sc
EndChar

StartChar: Igrave
Encoding: 204 204 140
Width: 349
GlyphClass: 2
Flags: MW
HStem: 0 29<35 35 35 314> 663 29<35 314 35 314>
VStem: 125 99<93 599>
AnchorPoint: "Anchor-5" 174 886 basechar 0
AnchorPoint: "Anchor-4" 174 0 basechar 0
LayerCount: 2
Fore
SplineSet
18 838 m 0
 16 858 35 887 50 890 c 0
 66 893 80 887 115 863 c 2
 260 764 l 1
 249 742 l 1
 79 798 l 2
 34 812 20 819 18 838 c 0
35 0 m 1
 35 29 l 1
 123 35 125 37 125 93 c 2
 125 599 l 2
 125 655 123 657 35 663 c 1
 35 692 l 1
 314 692 l 1
 314 663 l 1
 227 657 224 655 224 599 c 2
 224 93 l 2
 224 37 227 35 314 29 c 1
 314 0 l 1
 35 0 l 1
EndSplineSet
Substitution2: "'c2sc' Capitals to Small Capitals lookup 4 subtable" Igrave.sc
EndChar

StartChar: Iacute
Encoding: 205 205 141
Width: 349
GlyphClass: 2
Flags: MW
HStem: 0 29<35 35 35 314> 663 29<35 314 35 314>
VStem: 125 99<93 599>
AnchorPoint: "Anchor-5" 174 886 basechar 0
AnchorPoint: "Anchor-4" 174 0 basechar 0
LayerCount: 2
Fore
SplineSet
89 764 m 1
 234 863 l 2
 269 887 283 893 299 890 c 0
 314 887 333 858 331 838 c 0
 329 819 315 812 270 798 c 2
 100 742 l 1
 89 764 l 1
35 0 m 1
 35 29 l 1
 123 35 125 37 125 93 c 2
 125 599 l 2
 125 655 123 657 35 663 c 1
 35 692 l 1
 314 692 l 1
 314 663 l 1
 227 657 224 655 224 599 c 2
 224 93 l 2
 224 37 227 35 314 29 c 1
 314 0 l 1
 35 0 l 1
EndSplineSet
Substitution2: "'c2sc' Capitals to Small Capitals lookup 4 subtable" Iacute.sc
EndChar

StartChar: Icircumflex
Encoding: 206 206 142
Width: 349
GlyphClass: 2
Flags: MW
HStem: 0 29<35 35 35 314> 663 29<35 314 35 314> 792 84<171 179.5>
VStem: 125 99<93 599>
AnchorPoint: "Anchor-5" 174 871 basechar 0
AnchorPoint: "Anchor-4" 174 0 basechar 0
LayerCount: 2
Fore
SplineSet
22 738 m 1
 138 852 l 2
 152 865 163 876 175 876 c 0
 187 876 199 864 212 852 c 2
 328 738 l 1
 315 717 l 1
 208 778 l 2
 195 785 184 792 175 792 c 0
 167 792 155 785 142 778 c 2
 35 717 l 1
 22 738 l 1
35 0 m 1
 35 29 l 1
 123 35 125 37 125 93 c 2
 125 599 l 2
 125 655 123 657 35 663 c 1
 35 692 l 1
 314 692 l 1
 314 663 l 1
 227 657 224 655 224 599 c 2
 224 93 l 2
 224 37 227 35 314 29 c 1
 314 0 l 1
 35 0 l 1
EndSplineSet
Substitution2: "'c2sc' Capitals to Small Capitals lookup 4 subtable" Icircumflex.sc
EndChar

StartChar: Idieresis
Encoding: 207 207 143
Width: 349
GlyphClass: 2
Flags: MW
HStem: 0 29<35 35 35 314> 663 29<35 314 35 314> 732 109<52.5 90 260.5 298>
VStem: 13 116<773 801> 125 99<93 599> 221 116<773 801>
AnchorPoint: "Anchor-5" 174 836 basechar 0
AnchorPoint: "Anchor-4" 174 0 basechar 0
LayerCount: 2
Fore
SplineSet
13 787 m 0x34
 13 815 34 841 71 841 c 0
 109 841 129 815 129 787 c 0
 129 759 109 732 71 732 c 0
 34 732 13 759 13 787 c 0x34
221 787 m 0
 221 815 242 841 279 841 c 0
 317 841 337 815 337 787 c 0
 337 759 317 732 279 732 c 0
 242 732 221 759 221 787 c 0
35 0 m 1xc8
 35 29 l 1
 123 35 125 37 125 93 c 2
 125 599 l 2
 125 655 123 657 35 663 c 1
 35 692 l 1
 314 692 l 1
 314 663 l 1
 227 657 224 655 224 599 c 2
 224 93 l 2
 224 37 227 35 314 29 c 1
 314 0 l 1
 35 0 l 1xc8
EndSplineSet
Substitution2: "'c2sc' Capitals to Small Capitals lookup 4 subtable" Idieresis.sc
EndChar

StartChar: Eth
Encoding: 208 208 144
Width: 785
GlyphClass: 2
Flags: MW
HStem: 0 35<290.5 353> 341 38<20 131 20 131 230 368> 657 35<292.5 346>
VStem: 131 99<93 125 125 341 379 599 599 600> 625 112<283 408.5 283 438.5>
LayerCount: 2
Fore
SplineSet
20 341 m 1
 20 379 l 1
 131 379 l 1
 131 599 l 2
 131 655 129 657 41 663 c 1
 41 692 l 1
 373 692 l 1
 493 691 582 666 647 605 c 1
 708 546 737 459 737 358 c 0
 737 208 681 115 607 64 c 0
 533 13 442 0 353 0 c 2
 41 0 l 1
 41 29 l 1
 129 35 131 37 131 93 c 2
 131 341 l 1
 20 341 l 1
230 125 m 2
 230 46 247 35 334 35 c 0
 502 35 625 102 625 354 c 0
 625 523 561 653 346 657 c 1
 239 657 230 652 230 600 c 2
 230 379 l 1
 368 379 l 1
 368 341 l 1
 230 341 l 1
 230 125 l 2
EndSplineSet
Substitution2: "'c2sc' Capitals to Small Capitals lookup 4 subtable" Eth.sc
EndChar

StartChar: Ntilde
Encoding: 209 209 145
Width: 780
GlyphClass: 2
Flags: MW
HStem: 0 29<35 35 35 272> 663 29<34 226> 736 60<474.5 493.5> 774 60<298 320>
VStem: 124 46<203 599 599 602> 618 46<138 489 0 515.5>
LayerCount: 2
Fore
SplineSet
218 736 m 1x20
 238 776 266 834 330 834 c 0x10
 354 834 382 825 409 815 c 1
 437 806 464 796 485 796 c 0
 513 796 525 807 553 842 c 1
 573 831 l 1
 544 774 518 736 469 736 c 0x20
 447 736 418 746 389 755 c 0
 360 765 331 774 309 774 c 0x10
 276 774 259 758 237 723 c 1
 218 736 l 1x20
35 0 m 1xcc
 35 29 l 1
 87 33 111 37 117 79 c 0
 122 112 124 150 124 203 c 2
 124 599 l 2
 124 655 122 657 34 663 c 1
 34 692 l 1
 226 692 l 1
 355 508 485 324 616 140 c 1
 618 138 l 1
 618 489 l 2
 618 542 616 580 611 613 c 0
 605 655 581 658 516 663 c 1
 516 692 l 1
 753 692 l 1
 753 663 l 1
 701 659 677 655 671 613 c 0
 666 580 664 542 664 489 c 2
 664 0 l 1
 598 0 l 1
 457 201 315 401 172 602 c 1
 170 602 l 1
 170 203 l 2
 170 150 172 112 177 79 c 0
 183 37 207 34 272 29 c 1
 272 0 l 1
 35 0 l 1xcc
EndSplineSet
Substitution2: "'c2sc' Capitals to Small Capitals lookup 4 subtable" Ntilde.sc
EndChar

StartChar: Ograve
Encoding: 210 210 146
Width: 762
GlyphClass: 2
Flags: MW
HStem: -15 35<326 436> 672 35<326 436 326 470> 742 21<444 444> 798 92
VStem: 48 112<290 402> 213 242 602 112<290 402 290 419.5>
AnchorPoint: "Anchor-5" 380 871 basechar 0
AnchorPoint: "Anchor-4" 381 0 basechar 0
LayerCount: 2
Fore
SplineSet
213 838 m 0
 211 858 230 887 245 890 c 0
 261 893 275 887 310 863 c 2
 455 764 l 1
 444 742 l 1
 274 798 l 2
 229 812 215 819 213 838 c 0
48 346 m 0
 48 458 79 550 133 610 c 0
 189 673 271 707 381 707 c 0
 491 707 573 673 629 610 c 0
 683 550 714 458 714 346 c 0
 714 234 683 142 629 82 c 0
 573 19 491 -15 381 -15 c 0
 271 -15 189 19 133 82 c 0
 79 142 48 234 48 346 c 0
160 346 m 0
 160 199 203 20 381 20 c 0
 559 20 602 199 602 346 c 0
 602 493 559 672 381 672 c 0
 203 672 160 493 160 346 c 0
EndSplineSet
Substitution2: "'c2sc' Capitals to Small Capitals lookup 4 subtable" Ograve.sc
EndChar

StartChar: Oacute
Encoding: 211 211 147
Width: 762
GlyphClass: 2
Flags: MW
HStem: -15 35<326 436> 672 35<326 436 326 470> 742 21<293 293> 798 92
VStem: 48 112<290 402> 282 242 602 112<290 402 290 419.5>
AnchorPoint: "Anchor-5" 380 871 basechar 0
AnchorPoint: "Anchor-4" 381 0 basechar 0
LayerCount: 2
Fore
SplineSet
282 764 m 1
 427 863 l 2
 462 887 476 893 492 890 c 0
 507 887 526 858 524 838 c 0
 522 819 508 812 463 798 c 2
 293 742 l 1
 282 764 l 1
48 346 m 0
 48 458 79 550 133 610 c 0
 189 673 271 707 381 707 c 0
 491 707 573 673 629 610 c 0
 683 550 714 458 714 346 c 0
 714 234 683 142 629 82 c 0
 573 19 491 -15 381 -15 c 0
 271 -15 189 19 133 82 c 0
 79 142 48 234 48 346 c 0
160 346 m 0
 160 199 203 20 381 20 c 0
 559 20 602 199 602 346 c 0
 602 493 559 672 381 672 c 0
 203 672 160 493 160 346 c 0
EndSplineSet
Substitution2: "'c2sc' Capitals to Small Capitals lookup 4 subtable" Oacute.sc
EndChar

StartChar: Ocircumflex
Encoding: 212 212 148
Width: 762
GlyphClass: 2
Flags: MW
HStem: -15 35<326 436> 672 35<326 436 326 470> 792 84<377 385.5>
VStem: 48 112<290 402> 602 112<290 402 290 419.5>
AnchorPoint: "Anchor-5" 380 856 basechar 0
AnchorPoint: "Anchor-4" 381 0 basechar 0
LayerCount: 2
Fore
SplineSet
228 738 m 1
 344 852 l 2
 358 865 369 876 381 876 c 0
 393 876 405 864 418 852 c 2
 534 738 l 1
 521 717 l 1
 414 778 l 2
 401 785 390 792 381 792 c 0
 373 792 361 785 348 778 c 2
 241 717 l 1
 228 738 l 1
48 346 m 0
 48 458 79 550 133 610 c 0
 189 673 271 707 381 707 c 0
 491 707 573 673 629 610 c 0
 683 550 714 458 714 346 c 0
 714 234 683 142 629 82 c 0
 573 19 491 -15 381 -15 c 0
 271 -15 189 19 133 82 c 0
 79 142 48 234 48 346 c 0
160 346 m 0
 160 199 203 20 381 20 c 0
 559 20 602 199 602 346 c 0
 602 493 559 672 381 672 c 0
 203 672 160 493 160 346 c 0
EndSplineSet
Substitution2: "'c2sc' Capitals to Small Capitals lookup 4 subtable" Ocircumflex.sc
EndChar

StartChar: Otilde
Encoding: 213 213 149
Width: 762
GlyphClass: 2
Flags: MW
HStem: -15 35<326 436> 672 35<326 436 326 470> 736 60<459.5 478.5> 774 60<283 305>
VStem: 48 112<290 402> 602 112<290 402 290 419.5>
AnchorPoint: "Anchor-5" 380 822 basechar 0
AnchorPoint: "Anchor-4" 381 0 basechar 0
LayerCount: 2
Fore
SplineSet
203 736 m 1x20
 223 776 251 834 315 834 c 0x10
 339 834 367 825 394 815 c 1
 422 806 449 796 470 796 c 0
 498 796 510 807 538 842 c 1
 558 831 l 1
 529 774 503 736 454 736 c 0x20
 432 736 403 746 374 755 c 0
 345 765 316 774 294 774 c 0x10
 261 774 244 758 222 723 c 1
 203 736 l 1x20
48 346 m 0xcc
 48 458 79 550 133 610 c 0
 189 673 271 707 381 707 c 0
 491 707 573 673 629 610 c 0
 683 550 714 458 714 346 c 0
 714 234 683 142 629 82 c 0
 573 19 491 -15 381 -15 c 0
 271 -15 189 19 133 82 c 0
 79 142 48 234 48 346 c 0xcc
160 346 m 0
 160 199 203 20 381 20 c 0
 559 20 602 199 602 346 c 0
 602 493 559 672 381 672 c 0
 203 672 160 493 160 346 c 0
EndSplineSet
Substitution2: "'c2sc' Capitals to Small Capitals lookup 4 subtable" Otilde.sc
EndChar

StartChar: Odieresis
Encoding: 214 214 150
Width: 762
GlyphClass: 2
Flags: MW
HStem: -15 35<326 436> 672 35<326 436 326 470> 732 109<258.5 296 466.5 504>
VStem: 48 112<290 402> 219 116<773 801> 427 116<773 801> 602 112<290 402 290 419.5>
AnchorPoint: "Anchor-5" 380 821 basechar 0
AnchorPoint: "Anchor-4" 381 0 basechar 0
LayerCount: 2
Fore
SplineSet
219 787 m 0
 219 815 240 841 277 841 c 0
 315 841 335 815 335 787 c 0
 335 759 315 732 277 732 c 0
 240 732 219 759 219 787 c 0
427 787 m 0
 427 815 448 841 485 841 c 0
 523 841 543 815 543 787 c 0
 543 759 523 732 485 732 c 0
 448 732 427 759 427 787 c 0
48 346 m 0
 48 458 79 550 133 610 c 0
 189 673 271 707 381 707 c 0
 491 707 573 673 629 610 c 0
 683 550 714 458 714 346 c 0
 714 234 683 142 629 82 c 0
 573 19 491 -15 381 -15 c 0
 271 -15 189 19 133 82 c 0
 79 142 48 234 48 346 c 0
160 346 m 0
 160 199 203 20 381 20 c 0
 559 20 602 199 602 346 c 0
 602 493 559 672 381 672 c 0
 203 672 160 493 160 346 c 0
EndSplineSet
Substitution2: "'c2sc' Capitals to Small Capitals lookup 4 subtable" Odieresis.sc
EndChar

StartChar: multiply
Encoding: 215 215 151
Width: 570
GlyphClass: 2
Flags: MW
HStem: 22 456<104 104 104 465>
VStem: 63 444<66 66 66 432>
LayerCount: 2
Fore
SplineSet
63 66 m 1
 242 250 l 1
 63 432 l 1
 104 478 l 1
 285 294 l 1
 465 478 l 1
 507 432 l 1
 328 250 l 1
 507 66 l 1
 465 22 l 1
 285 206 l 1
 104 22 l 1
 63 66 l 1
EndSplineSet
EndChar

StartChar: Oslash
Encoding: 216 216 152
Width: 762
GlyphClass: 2
Flags: MW
HStem: -15 35<348.5 436.5> 672 35<326 413.5>
VStem: 48 112<346 346> 602 112<346 346>
LayerCount: 2
Fore
SplineSet
48 346 m 0
 48 459 79 550 133 610 c 0
 189 673 271 707 381 707 c 0
 452 707 511 693 559 665 c 1
 605 739 l 1
 639 718 l 1
 592 644 l 1
 606 634 618 622 629 610 c 0
 684 550 714 459 714 346 c 0
 714 234 684 142 629 82 c 1
 573 19 492 -15 381 -15 c 0
 310 -15 251 -1 202 28 c 1
 151 -53 l 1
 119 -29 l 1
 168 49 l 1
 156 58 144 70 133 82 c 0
 79 142 48 234 48 346 c 0
160 346 m 1
 161 268 173 182 211 117 c 1
 525 612 l 1
 492 649 446 672 381 672 c 0
 203 672 162 493 160 346 c 1
236 82 m 1
 269 44 316 20 381 20 c 0
 559 20 600 199 602 346 c 1
 601 425 589 513 550 577 c 1
 236 82 l 1
EndSplineSet
Substitution2: "'c2sc' Capitals to Small Capitals lookup 4 subtable" Oslash.sc
EndChar

StartChar: Ugrave
Encoding: 217 217 153
Width: 791
GlyphClass: 2
Flags: MW
HStem: -15 35<366.5 424 366.5 444.5> 663 29<29 308 29 308> 742 21<446 446> 798 92
VStem: 119 99<253 275 275 599> 215 242 573 99<275 599>
AnchorPoint: "Anchor-5" 396 886 basechar 0
AnchorPoint: "Anchor-4" 395 0 basechar 0
LayerCount: 2
Fore
SplineSet
215 838 m 0x34
 213 858 232 887 247 890 c 0
 263 893 277 887 312 863 c 2
 457 764 l 1
 446 742 l 1
 276 798 l 2
 231 812 217 819 215 838 c 0x34
29 663 m 1xca
 29 692 l 1
 308 692 l 1
 308 663 l 1
 221 657 218 655 218 599 c 2
 218 275 l 2
 218 180 233 120 263 80 c 0
 294 40 338 20 395 20 c 0
 453 20 497 40 528 80 c 0
 558 120 573 180 573 275 c 2
 573 599 l 2
 573 655 571 657 483 663 c 1
 483 692 l 1
 762 692 l 1
 762 663 l 1
 675 657 672 655 672 599 c 2
 672 255 l 2
 672 195 662 142 645 107 c 0
 599 8 494 -15 395 -15 c 0
 297 -15 192 9 146 107 c 0
 129 141 119 194 119 253 c 2
 119 599 l 2
 119 655 117 657 29 663 c 1xca
EndSplineSet
Substitution2: "'c2sc' Capitals to Small Capitals lookup 4 subtable" Ugrave.sc
EndChar

StartChar: Uacute
Encoding: 218 218 154
Width: 791
GlyphClass: 2
Flags: MW
HStem: -15 35<366.5 424 366.5 444.5> 663 29<29 308 29 308> 742 21<318 318> 798 92
VStem: 119 99<253 275 275 599> 307 242 573 99<275 599>
AnchorPoint: "Anchor-5" 396 886 basechar 0
AnchorPoint: "Anchor-4" 395 0 basechar 0
LayerCount: 2
Fore
SplineSet
307 764 m 1
 452 863 l 2
 487 887 501 893 517 890 c 0
 532 887 551 858 549 838 c 0
 547 819 533 812 488 798 c 2
 318 742 l 1
 307 764 l 1
29 663 m 1
 29 692 l 1
 308 692 l 1
 308 663 l 1
 221 657 218 655 218 599 c 2
 218 275 l 2
 218 180 233 120 263 80 c 0
 294 40 338 20 395 20 c 0
 453 20 497 40 528 80 c 0
 558 120 573 180 573 275 c 2
 573 599 l 2
 573 655 571 657 483 663 c 1
 483 692 l 1
 762 692 l 1
 762 663 l 1
 675 657 672 655 672 599 c 2
 672 255 l 2
 672 195 662 142 645 107 c 0
 599 8 494 -15 395 -15 c 0
 297 -15 192 9 146 107 c 0
 129 141 119 194 119 253 c 2
 119 599 l 2
 119 655 117 657 29 663 c 1
EndSplineSet
Substitution2: "'c2sc' Capitals to Small Capitals lookup 4 subtable" Uacute.sc
EndChar

StartChar: Ucircumflex
Encoding: 219 219 155
Width: 791
GlyphClass: 2
Flags: MW
HStem: -15 35<366.5 424 366.5 444.5> 663 29<29 308 29 308> 792 84<392 400.5>
VStem: 119 99<253 275 275 599> 573 99<275 599>
AnchorPoint: "Anchor-5" 396 871 basechar 0
AnchorPoint: "Anchor-4" 395 0 basechar 0
LayerCount: 2
Fore
SplineSet
243 738 m 1
 359 852 l 2
 373 865 384 876 396 876 c 0
 408 876 420 864 433 852 c 2
 549 738 l 1
 536 717 l 1
 429 778 l 2
 416 785 405 792 396 792 c 0
 388 792 376 785 363 778 c 2
 256 717 l 1
 243 738 l 1
29 663 m 1
 29 692 l 1
 308 692 l 1
 308 663 l 1
 221 657 218 655 218 599 c 2
 218 275 l 2
 218 180 233 120 263 80 c 0
 294 40 338 20 395 20 c 0
 453 20 497 40 528 80 c 0
 558 120 573 180 573 275 c 2
 573 599 l 2
 573 655 571 657 483 663 c 1
 483 692 l 1
 762 692 l 1
 762 663 l 1
 675 657 672 655 672 599 c 2
 672 255 l 2
 672 195 662 142 645 107 c 0
 599 8 494 -15 395 -15 c 0
 297 -15 192 9 146 107 c 0
 129 141 119 194 119 253 c 2
 119 599 l 2
 119 655 117 657 29 663 c 1
EndSplineSet
Substitution2: "'c2sc' Capitals to Small Capitals lookup 4 subtable" Ucircumflex.sc
EndChar

StartChar: Udieresis
Encoding: 220 220 156
Width: 791
GlyphClass: 2
Flags: MW
HStem: -15 35<366.5 424 366.5 444.5> 663 29<29 308 29 308> 732 109<273.5 311 481.5 519>
VStem: 119 99<253 275 275 599> 234 116<773 801> 442 116<773 801> 573 99<275 599>
AnchorPoint: "Anchor-5" 396 836 basechar 0
AnchorPoint: "Anchor-4" 395 0 basechar 0
LayerCount: 2
Fore
SplineSet
234 787 m 0
 234 815 255 841 292 841 c 0
 330 841 350 815 350 787 c 0
 350 759 330 732 292 732 c 0
 255 732 234 759 234 787 c 0
442 787 m 0
 442 815 463 841 500 841 c 0
 538 841 558 815 558 787 c 0
 558 759 538 732 500 732 c 0
 463 732 442 759 442 787 c 0
29 663 m 1
 29 692 l 1
 308 692 l 1
 308 663 l 1
 221 657 218 655 218 599 c 2
 218 275 l 2
 218 180 233 120 263 80 c 0
 294 40 338 20 395 20 c 0
 453 20 497 40 528 80 c 0
 558 120 573 180 573 275 c 2
 573 599 l 2
 573 655 571 657 483 663 c 1
 483 692 l 1
 762 692 l 1
 762 663 l 1
 675 657 672 655 672 599 c 2
 672 255 l 2
 672 195 662 142 645 107 c 0
 599 8 494 -15 395 -15 c 0
 297 -15 192 9 146 107 c 0
 129 141 119 194 119 253 c 2
 119 599 l 2
 119 655 117 657 29 663 c 1
EndSplineSet
Substitution2: "'c2sc' Capitals to Small Capitals lookup 4 subtable" Udieresis.sc
EndChar

StartChar: Yacute
Encoding: 221 221 157
Width: 588
GlyphClass: 2
Flags: MW
HStem: 0 29<150 461 150 150> 663 29<-12 247 -12 247>
VStem: -12 185 256 99<93 242 242 246> 483 149
AnchorPoint: "Anchor-5" 302 886 basechar 0
AnchorPoint: "Anchor-4" 302 0 basechar 0
LayerCount: 2
Fore
SplineSet
253 764 m 1
 398 863 l 2
 433 887 447 893 463 890 c 0
 478 887 497 858 495 838 c 0
 493 819 479 812 434 798 c 2
 264 742 l 1
 253 764 l 1
-12 663 m 1
 -12 692 l 1
 247 692 l 1
 247 663 l 1
 188 657 l 2
 173 655 169 645 177 627 c 0
 221 531 273 430 331 325 c 1
 333 325 l 1
 386 429 454 566 479 626 c 0
 487 645 485 656 467 658 c 2
 413 663 l 1
 413 692 l 1
 632 692 l 1
 632 663 l 1
 565 660 559 652 525 597 c 0
 494 547 419 407 368 305 c 0
 358 285 355 270 355 246 c 2
 355 93 l 2
 355 38 358 35 461 29 c 1
 461 0 l 1
 150 0 l 1
 150 29 l 1
 253 35 256 38 256 93 c 2
 256 242 l 2
 256 262 252 279 241 300 c 0
 192 399 133 510 77 613 c 0
 55 655 41 661 -12 663 c 1
EndSplineSet
Substitution2: "'c2sc' Capitals to Small Capitals lookup 4 subtable" Yacute.sc
EndChar

StartChar: Thorn
Encoding: 222 222 158
Width: 593
GlyphClass: 2
Flags: MW
HStem: 0 29<35 35 35 322> 182 35<257 302 224 335> 518 35<269 305 305 338 224 344.5> 663 29<35 314 35 314>
VStem: 125 99<93 182 244 258 258 481 553 599> 449 107<312.5 406.5 300.5 416.5>
LayerCount: 2
Fore
SplineSet
35 0 m 1
 35 29 l 1
 123 35 125 37 125 93 c 2
 125 599 l 2
 125 655 123 657 35 663 c 1
 35 692 l 1
 314 692 l 1
 314 663 l 1
 227 657 224 655 224 599 c 2
 224 553 l 1
 305 553 l 2
 371 553 433 547 481 517 c 0
 526 489 556 438 556 375 c 0
 556 226 427 182 302 182 c 2
 224 182 l 1
 224 93 l 2
 224 37 227 35 322 29 c 1
 322 0 l 1
 35 0 l 1
224 258 m 2
 224 230 231 217 283 217 c 0
 387 217 449 256 449 369 c 0
 449 464 392 518 297 518 c 0
 241 518 224 515 224 481 c 2
 224 258 l 2
EndSplineSet
Substitution2: "'c2sc' Capitals to Small Capitals lookup 4 subtable" Thorn.sc
EndChar

StartChar: germandbls
Encoding: 223 223 159
Width: 601
GlyphClass: 2
Flags: MW
HStem: -12 35<413 440 413 462> 0 29<22 22 22 266> 707 35<290.5 349.5>
VStem: 97 94<87 448> 290 81<387.5 413> 429 86<574.5 608 572.5 621.5> 492 81<86 126>
LayerCount: 2
Fore
SplineSet
22 0 m 1x7c
 22 29 l 1
 94 34 97 36 97 87 c 2
 97 455 l 2
 97 555 110 626 153 674 c 1
 189 716 245 742 322 742 c 0
 495 742 515 628 515 588 c 0x7c
 515 557 505 529 488 507 c 1
 416 497 371 464 371 410 c 0
 371 365 398 337 472 287 c 0
 521 254 573 204 573 128 c 0
 573 44 510 -12 414 -12 c 0
 340 -12 288 19 288 53 c 0
 288 73 306 91 325 91 c 0
 336 91 344 84 348 76 c 0
 372 33 400 23 426 23 c 0
 454 23 492 44 492 96 c 0xba
 492 156 458 192 400 230 c 0
 343 268 290 311 290 379 c 0
 290 447 331 493 407 514 c 1
 423 531 429 563 429 586 c 0
 429 657 381 707 318 707 c 0
 263 707 231 677 212 629 c 0
 193 582 191 517 191 448 c 2
 191 87 l 2
 191 36 195 34 266 29 c 1
 266 0 l 1
 22 0 l 1x7c
EndSplineSet
MultipleSubs2: "'smcp' Lowercase to Small Capitals lookup 12-1" S.sc S.sc
EndChar

StartChar: agrave
Encoding: 224 224 160
Width: 523
GlyphClass: 2
Flags: MW
HStem: -12 53<211 222> 467 35<238 277.5>
VStem: 49 101<114.5 153.5> 343 90<143 284 284 284 325 367 367 369>
AnchorPoint: "Anchor-5" 269 703 basechar 0
AnchorPoint: "Anchor-4" 269 0 basechar 0
LayerCount: 2
Fore
SplineSet
111 680 m 0
 111 700 135 723 150 723 c 0
 167 723 184 713 214 682 c 2
 333 562 l 1
 318 542 l 1
 167 626 l 2
 137 642 111 659 111 680 c 0
49 130 m 0
 49 177 70 227 142 249 c 0
 221 274 318 299 343 325 c 1
 343 367 l 2
 343 447 297 467 258 467 c 0
 218 467 177 443 155 369 c 0
 150 352 144 341 123 341 c 0
 104 341 67 356 67 388 c 0
 67 443 156 502 269 502 c 0
 420 502 433 427 433 369 c 2
 433 127 l 2
 433 64 450 45 468 41 c 0
 483 37 505 39 519 42 c 1
 525 18 l 1
 487 -1 444 -12 407 -12 c 0
 372 -12 356 11 342 48 c 1
 310 27 251 -12 193 -12 c 0
 99 -12 49 55 49 130 c 0
150 144 m 0
 150 85 180 41 242 41 c 0
 281 41 343 62 343 143 c 2
 343 284 l 1
 321 270 268 251 228 236 c 0
 172 215 150 191 150 144 c 0
EndSplineSet
Substitution2: "'smcp' Lowercase to Small Capitals lookup 3 subtable" Agrave.sc
EndChar

StartChar: aacute
Encoding: 225 225 161
Width: 523
GlyphClass: 2
Flags: MW
HStem: -12 53<211 222> 467 35<238 277.5>
VStem: 49 101<114.5 153.5> 343 90<143 284 284 284 325 367 367 369>
AnchorPoint: "Anchor-5" 269 703 basechar 0
AnchorPoint: "Anchor-4" 269 0 basechar 0
LayerCount: 2
Fore
SplineSet
196 562 m 1
 315 682 l 2
 345 713 362 723 379 723 c 0
 394 723 418 700 418 680 c 0
 418 659 392 642 362 626 c 2
 211 542 l 1
 196 562 l 1
49 130 m 0
 49 177 70 227 142 249 c 0
 221 274 318 299 343 325 c 1
 343 367 l 2
 343 447 297 467 258 467 c 0
 218 467 177 443 155 369 c 0
 150 352 144 341 123 341 c 0
 104 341 67 356 67 388 c 0
 67 443 156 502 269 502 c 0
 420 502 433 427 433 369 c 2
 433 127 l 2
 433 64 450 45 468 41 c 0
 483 37 505 39 519 42 c 1
 525 18 l 1
 487 -1 444 -12 407 -12 c 0
 372 -12 356 11 342 48 c 1
 310 27 251 -12 193 -12 c 0
 99 -12 49 55 49 130 c 0
150 144 m 0
 150 85 180 41 242 41 c 0
 281 41 343 62 343 143 c 2
 343 284 l 1
 321 270 268 251 228 236 c 0
 172 215 150 191 150 144 c 0
EndSplineSet
Substitution2: "'smcp' Lowercase to Small Capitals lookup 3 subtable" Aacute.sc
EndChar

StartChar: acircumflex
Encoding: 226 226 162
Width: 523
GlyphClass: 2
Flags: MW
HStem: -12 53<211 222> 467 35<238 277.5> 633 87<256 264.5>
VStem: 49 101<114.5 153.5> 343 90<143 284 284 284 325 367 367 369>
AnchorPoint: "Anchor-5" 269 700 basechar 0
AnchorPoint: "Anchor-4" 269 0 basechar 0
LayerCount: 2
Fore
SplineSet
107 562 m 1
 224 695 l 2
 237 709 248 720 260 720 c 0
 272 720 284 708 296 695 c 2
 413 562 l 1
 394 541 l 1
 291 618 l 2
 280 626 269 633 260 633 c 0
 252 633 240 626 229 618 c 2
 126 541 l 1
 107 562 l 1
49 130 m 0
 49 177 70 227 142 249 c 0
 221 274 318 299 343 325 c 1
 343 367 l 2
 343 447 297 467 258 467 c 0
 218 467 177 443 155 369 c 0
 150 352 144 341 123 341 c 0
 104 341 67 356 67 388 c 0
 67 443 156 502 269 502 c 0
 420 502 433 427 433 369 c 2
 433 127 l 2
 433 64 450 45 468 41 c 0
 483 37 505 39 519 42 c 1
 525 18 l 1
 487 -1 444 -12 407 -12 c 0
 372 -12 356 11 342 48 c 1
 310 27 251 -12 193 -12 c 0
 99 -12 49 55 49 130 c 0
150 144 m 0
 150 85 180 41 242 41 c 0
 281 41 343 62 343 143 c 2
 343 284 l 1
 321 270 268 251 228 236 c 0
 172 215 150 191 150 144 c 0
EndSplineSet
Substitution2: "'smcp' Lowercase to Small Capitals lookup 3 subtable" Acircumflex.sc
EndChar

StartChar: atilde
Encoding: 227 227 163
Width: 523
GlyphClass: 2
Flags: MW
HStem: -12 53<211 222> 467 35<238 277.5> 576 60<340.5 347.5> 614 60<164 186>
VStem: 49 101<114.5 153.5> 343 90<143 284 284 284 325 367 367 369>
AnchorPoint: "Anchor-5" 269 662 basechar 0
AnchorPoint: "Anchor-4" 269 0 basechar 0
LayerCount: 2
Fore
SplineSet
84 576 m 1x20
 104 616 132 674 196 674 c 0x10
 220 674 248 665 275 655 c 1
 303 646 330 636 351 636 c 0
 379 636 391 647 419 682 c 1
 439 671 l 1
 425 643 411 619 395 602 c 1
 378 586 360 576 335 576 c 0x20
 313 576 284 586 255 595 c 0
 226 605 197 614 175 614 c 0x10
 142 614 125 598 103 563 c 1
 84 576 l 1x20
49 130 m 0xcc
 49 177 70 227 142 249 c 0
 221 274 318 299 343 325 c 1
 343 367 l 2
 343 447 297 467 258 467 c 0
 218 467 177 443 155 369 c 0
 150 352 144 341 123 341 c 0
 104 341 67 356 67 388 c 0
 67 443 156 502 269 502 c 0
 420 502 433 427 433 369 c 2
 433 127 l 2
 433 64 450 45 468 41 c 0
 483 37 505 39 519 42 c 1
 525 18 l 1
 487 -1 444 -12 407 -12 c 0
 372 -12 356 11 342 48 c 1
 310 27 251 -12 193 -12 c 0
 99 -12 49 55 49 130 c 0xcc
150 144 m 0
 150 85 180 41 242 41 c 0
 281 41 343 62 343 143 c 2
 343 284 l 1
 321 270 268 251 228 236 c 0
 172 215 150 191 150 144 c 0
EndSplineSet
Substitution2: "'smcp' Lowercase to Small Capitals lookup 3 subtable" Atilde.sc
EndChar

StartChar: adieresis
Encoding: 228 228 164
Width: 523
GlyphClass: 2
Flags: MW
HStem: -12 53<211 222> 467 35<238 277.5> 570 113<138.5 177.5 346.5 385.5>
VStem: 49 101<114.5 153.5> 98 120<612.5 641.5> 306 120<612.5 641.5> 343 90<143 284 284 284 325 367 367 369>
AnchorPoint: "Anchor-5" 269 663 basechar 0
AnchorPoint: "Anchor-4" 269 0 basechar 0
LayerCount: 2
Fore
SplineSet
306 627 m 0x2c
 306 656 327 683 366 683 c 0
 405 683 426 656 426 627 c 0
 426 598 405 570 366 570 c 0
 327 570 306 598 306 627 c 0x2c
98 627 m 0
 98 656 119 683 158 683 c 0
 197 683 218 656 218 627 c 0
 218 598 197 570 158 570 c 0
 119 570 98 598 98 627 c 0
49 130 m 0xd2
 49 177 70 227 142 249 c 0
 221 274 318 299 343 325 c 1
 343 367 l 2
 343 447 297 467 258 467 c 0
 218 467 177 443 155 369 c 0
 150 352 144 341 123 341 c 0
 104 341 67 356 67 388 c 0
 67 443 156 502 269 502 c 0
 420 502 433 427 433 369 c 2
 433 127 l 2
 433 64 450 45 468 41 c 0
 483 37 505 39 519 42 c 1
 525 18 l 1
 487 -1 444 -12 407 -12 c 0
 372 -12 356 11 342 48 c 1
 310 27 251 -12 193 -12 c 0
 99 -12 49 55 49 130 c 0xd2
150 144 m 0
 150 85 180 41 242 41 c 0
 281 41 343 62 343 143 c 2
 343 284 l 1
 321 270 268 251 228 236 c 0
 172 215 150 191 150 144 c 0
EndSplineSet
Substitution2: "'smcp' Lowercase to Small Capitals lookup 3 subtable" Adieresis.sc
EndChar

StartChar: aring
Encoding: 229 229 165
Width: 523
GlyphClass: 2
Flags: MW
HStem: -12 53<211 222> 467 35<238 277.5> 550 33<248 276 248 289> 719 33<248 276>
VStem: 49 101<114.5 153.5> 154 58<625 677 625 688.5> 312 58<625 677> 343 90<143 284 284 284 325 367 367 369>
LayerCount: 2
Fore
SplineSet
154 651 m 0x36
 154 726 208 752 262 752 c 0
 316 752 370 726 370 651 c 0
 370 576 316 550 262 550 c 0
 208 550 154 576 154 651 c 0x36
212 651 m 0
 212 599 234 583 262 583 c 0
 290 583 312 599 312 651 c 0
 312 703 290 719 262 719 c 0
 234 719 212 703 212 651 c 0
49 130 m 0xc9
 49 177 70 227 142 249 c 0
 221 274 318 299 343 325 c 1
 343 367 l 2
 343 447 297 467 258 467 c 0
 218 467 177 443 155 369 c 0
 150 352 144 341 123 341 c 0
 104 341 67 356 67 388 c 0
 67 443 156 502 269 502 c 0
 420 502 433 427 433 369 c 2
 433 127 l 2
 433 64 450 45 468 41 c 0
 483 37 505 39 519 42 c 1
 525 18 l 1
 487 -1 444 -12 407 -12 c 0
 372 -12 356 11 342 48 c 1
 310 27 251 -12 193 -12 c 0
 99 -12 49 55 49 130 c 0xc9
150 144 m 0
 150 85 180 41 242 41 c 0
 281 41 343 62 343 143 c 2
 343 284 l 1
 321 270 268 251 228 236 c 0
 172 215 150 191 150 144 c 0
EndSplineSet
Substitution2: "'smcp' Lowercase to Small Capitals lookup 3 subtable" Aring.sc
EndChar

StartChar: ae
Encoding: 230 230 166
Width: 797
GlyphClass: 2
Flags: MW
HStem: -12 51 263 38<437 626 626 640 437 724 436 626> 467 35<238 278 529 602.5>
VStem: 49 101<114.5 153.5> 343 93<263 263 263 284 263 284 263 369> 660 104<323.5 330.5 284.5 352.5>
AnchorPoint: "Anchor-5" 412 502 basechar 0
AnchorPoint: "Anchor-4" 406 0 basechar 0
LayerCount: 2
Fore
SplineSet
49 130 m 0
 49 177 70 227 142 249 c 0
 221 274 318 299 343 325 c 1
 343 369 l 2
 343 447 297 467 259 467 c 0
 217 467 176 443 154 369 c 0
 149 352 143 341 124 341 c 0
 103 341 66 356 66 388 c 0
 66 443 155 502 270 502 c 0
 344 502 387 477 409 440 c 1
 447 481 496 502 562 502 c 0
 745 502 764 360 764 301 c 0
 764 268 745 263 724 263 c 2
 436 263 l 1
 434 159 459 39 583 39 c 0
 662 39 700 87 728 145 c 1
 758 129 l 1
 731 50 674 -11 563 -12 c 0
 468 -13 410 20 378 75 c 1
 341 48 l 2
 312 27 257 -10 195 -12 c 1
 99 -12 49 55 49 130 c 0
150 144 m 0
 150 85 180 41 242 41 c 0
 281 41 343 64 343 143 c 2
 343 284 l 1
 321 270 268 251 228 236 c 0
 172 215 150 191 150 144 c 0
437 301 m 1
 626 301 l 2
 654 301 660 314 660 333 c 0
 660 372 649 467 556 467 c 0
 453 467 437 342 437 301 c 1
EndSplineSet
Substitution2: "'smcp' Lowercase to Small Capitals lookup 3 subtable" AE.sc
EndChar

StartChar: ccedilla
Encoding: 231 231 167
Width: 496
GlyphClass: 2
Flags: MW
HStem: -230 29<199 258.5> -10 50<261 261 302 302> 467 35<246.5 303.5>
VStem: 49 104<211 306.5> 287 78<-165.5 -120.5>
AnchorPoint: "Anchor-5" 292 502 basechar 0
LayerCount: 2
Fore
SplineSet
49 240 m 0
 49 373 110 502 292 502 c 0
 400 502 466 451 466 405 c 0
 466 367 427 354 406 354 c 0
 387 354 381 364 375 380 c 0
 355 434 326 467 281 467 c 0
 212 467 153 407 153 258 c 0
 153 164 181 40 300 40 c 0
 373 40 413 76 444 146 c 1
 473 132 l 1
 448 36 369 -4 302 -10 c 1
 276 -55 l 1
 313 -60 365 -78 365 -142 c 0
 365 -219 274 -230 243 -230 c 0
 225 -230 213 -229 199 -227 c 1
 199 -201 l 1
 248 -201 287 -186 287 -145 c 0
 287 -96 243 -92 225 -91 c 1
 221 -84 l 1
 261 -10 l 1
 124 -4 49 81 49 240 c 0
EndSplineSet
Substitution2: "'smcp' Lowercase to Small Capitals lookup 3 subtable" Ccedilla.sc
EndChar

StartChar: egrave
Encoding: 232 232 168
Width: 514
GlyphClass: 2
Flags: MW
HStem: -12 51<238 335.5> 263 38<154 343 343 357 154 441 153 343> 467 35<221 319.5>
VStem: 49 104<263 263 263 316> 377 104<323.5 330.5 284.5 352.5>
AnchorPoint: "Anchor-5" 278 703 basechar 0
AnchorPoint: "Anchor-4" 280 0 basechar 0
LayerCount: 2
Fore
SplineSet
121 680 m 0
 121 700 145 723 160 723 c 0
 177 723 194 713 224 682 c 2
 343 562 l 1
 328 542 l 1
 177 626 l 2
 147 642 121 659 121 680 c 0
49 241 m 0
 49 391 123 502 279 502 c 0
 462 502 481 360 481 301 c 0
 481 268 462 263 441 263 c 2
 153 263 l 1
 151 159 176 39 300 39 c 0
 379 39 417 87 445 145 c 1
 475 129 l 1
 448 50 391 -12 280 -12 c 0
 117 -12 49 83 49 241 c 0
154 301 m 1
 343 301 l 2
 371 301 377 314 377 333 c 0
 377 372 366 467 273 467 c 0
 169 467 154 342 154 301 c 1
EndSplineSet
Substitution2: "'smcp' Lowercase to Small Capitals lookup 3 subtable" Egrave.sc
EndChar

StartChar: eacute
Encoding: 233 233 169
Width: 514
GlyphClass: 2
Flags: MW
HStem: -12 51<238 335.5> 263 38<154 343 343 357 154 441 153 343> 467 35<221 319.5>
VStem: 49 104<263 263 263 316> 377 104<323.5 330.5 284.5 352.5>
AnchorPoint: "Anchor-5" 278 703 basechar 0
AnchorPoint: "Anchor-4" 280 0 basechar 0
LayerCount: 2
Fore
SplineSet
201 562 m 1
 320 682 l 2
 350 713 367 723 384 723 c 0
 399 723 423 700 423 680 c 0
 423 659 397 642 367 626 c 2
 216 542 l 1
 201 562 l 1
49 241 m 0
 49 391 123 502 279 502 c 0
 462 502 481 360 481 301 c 0
 481 268 462 263 441 263 c 2
 153 263 l 1
 151 159 176 39 300 39 c 0
 379 39 417 87 445 145 c 1
 475 129 l 1
 448 50 391 -12 280 -12 c 0
 117 -12 49 83 49 241 c 0
154 301 m 1
 343 301 l 2
 371 301 377 314 377 333 c 0
 377 372 366 467 273 467 c 0
 169 467 154 342 154 301 c 1
EndSplineSet
Substitution2: "'smcp' Lowercase to Small Capitals lookup 3 subtable" Eacute.sc
EndChar

StartChar: ecircumflex
Encoding: 234 234 170
Width: 514
GlyphClass: 2
Flags: MW
HStem: -12 51<238 335.5> 263 38<154 343 343 357 154 441 153 343> 467 35<221 319.5> 633 87<269 277.5>
VStem: 49 104<263 263 263 316> 377 104<323.5 330.5 284.5 352.5>
AnchorPoint: "Anchor-5" 278 700 basechar 0
AnchorPoint: "Anchor-4" 280 0 basechar 0
LayerCount: 2
Fore
SplineSet
120 562 m 1
 237 695 l 2
 250 709 261 720 273 720 c 0
 285 720 297 708 309 695 c 2
 426 562 l 1
 407 541 l 1
 304 618 l 2
 293 626 282 633 273 633 c 0
 265 633 253 626 242 618 c 2
 139 541 l 1
 120 562 l 1
49 241 m 0
 49 391 123 502 279 502 c 0
 462 502 481 360 481 301 c 0
 481 268 462 263 441 263 c 2
 153 263 l 1
 151 159 176 39 300 39 c 0
 379 39 417 87 445 145 c 1
 475 129 l 1
 448 50 391 -12 280 -12 c 0
 117 -12 49 83 49 241 c 0
154 301 m 1
 343 301 l 2
 371 301 377 314 377 333 c 0
 377 372 366 467 273 467 c 0
 169 467 154 342 154 301 c 1
EndSplineSet
Substitution2: "'smcp' Lowercase to Small Capitals lookup 3 subtable" Ecircumflex.sc
EndChar

StartChar: edieresis
Encoding: 235 235 171
Width: 514
GlyphClass: 2
Flags: MW
HStem: -12 51<238 335.5> 263 38<154 343 343 357 154 441 153 343> 467 35<221 319.5> 570 113<133.5 172.5 341.5 380.5>
VStem: 49 104<263 263 263 316> 93 120<612.5 641.5> 301 120<612.5 641.5> 377 104<323.5 330.5 284.5 352.5>
AnchorPoint: "Anchor-5" 278 663 basechar 0
AnchorPoint: "Anchor-4" 280 0 basechar 0
LayerCount: 2
Fore
SplineSet
301 627 m 0x16
 301 656 322 683 361 683 c 0
 400 683 421 656 421 627 c 0
 421 598 400 570 361 570 c 0
 322 570 301 598 301 627 c 0x16
93 627 m 0
 93 656 114 683 153 683 c 0
 192 683 213 656 213 627 c 0
 213 598 192 570 153 570 c 0
 114 570 93 598 93 627 c 0
49 241 m 0xe9
 49 391 123 502 279 502 c 0
 462 502 481 360 481 301 c 0
 481 268 462 263 441 263 c 2
 153 263 l 1
 151 159 176 39 300 39 c 0
 379 39 417 87 445 145 c 1
 475 129 l 1
 448 50 391 -12 280 -12 c 0
 117 -12 49 83 49 241 c 0xe9
154 301 m 1
 343 301 l 2
 371 301 377 314 377 333 c 0
 377 372 366 467 273 467 c 0
 169 467 154 342 154 301 c 1
EndSplineSet
Substitution2: "'smcp' Lowercase to Small Capitals lookup 3 subtable" Edieresis.sc
EndChar

StartChar: igrave
Encoding: 236 236 172
Width: 291
GlyphClass: 3
Flags: MW
HStem: 0 29<32 32 32 276> 452 25<37 37> 482 20<194 194> 542 181<36.5 212>
VStem: 5 222<562 690> 107 94<87 402 402 420>
AnchorPoint: "Anchor-5" 154 703 basechar 0
AnchorPoint: "Anchor-4" 154 0 basechar 0
LayerCount: 2
Fore
SplineSet
32 0 m 1xe4
 32 29 l 1
 104 34 107 36 107 87 c 2
 107 402 l 2
 107 438 101 443 75 447 c 2
 37 452 l 1
 37 477 l 1
 194 502 l 1
 201 496 l 1
 201 87 l 2
 201 36 205 34 276 29 c 1
 276 0 l 1
 32 0 l 1xe4
5 680 m 0x18
 5 700 29 723 44 723 c 0
 61 723 78 713 108 682 c 2
 227 562 l 1
 212 542 l 1
 61 626 l 2
 31 642 5 659 5 680 c 0x18
EndSplineSet
Substitution2: "'smcp' Lowercase to Small Capitals lookup 3 subtable" Igrave.sc
Ligature2: "'liga' Standard Ligatures in Latin lookup 1 subtable" i gravecomb
EndChar

StartChar: iacute
Encoding: 237 237 173
Width: 291
GlyphClass: 3
Flags: MW
HStem: 0 29<32 32 32 276> 452 25<37 37> 482 20<194 194> 542 181<70 245.5>
VStem: 55 222<562 690> 107 94<87 402 402 420>
AnchorPoint: "Anchor-5" 154 703 basechar 0
AnchorPoint: "Anchor-4" 154 0 basechar 0
LayerCount: 2
Fore
SplineSet
32 0 m 1xe4
 32 29 l 1
 104 34 107 36 107 87 c 2
 107 402 l 2
 107 438 101 443 75 447 c 2
 37 452 l 1
 37 477 l 1
 194 502 l 1
 201 496 l 1
 201 87 l 2
 201 36 205 34 276 29 c 1
 276 0 l 1
 32 0 l 1xe4
55 562 m 1x18
 174 682 l 2
 204 713 221 723 238 723 c 0
 253 723 277 700 277 680 c 0
 277 659 251 642 221 626 c 2
 70 542 l 1
 55 562 l 1x18
EndSplineSet
Substitution2: "'smcp' Lowercase to Small Capitals lookup 3 subtable" Iacute.sc
Ligature2: "'liga' Standard Ligatures in Latin lookup 1 subtable" i acutecomb
Ligature2: "'liga' Standard Ligatures in Cyrillic lookup 0 subtable" afii10103 acutecomb
EndChar

StartChar: icircumflex
Encoding: 238 238 174
Width: 291
GlyphClass: 3
Flags: MW
HStem: 0 29<32 32 32 276> 452 25<37 37> 482 20<194 194> 633 87<147 155.5>
VStem: -3 307<562 562> 107 94<87 402 402 420>
AnchorPoint: "Anchor-5" 154 700 basechar 0
AnchorPoint: "Anchor-4" 154 0 basechar 0
LayerCount: 2
Fore
SplineSet
-3 562 m 1xf8
 115 695 l 2
 128 709 139 720 151 720 c 0
 163 720 175 708 187 695 c 2
 304 562 l 1
 285 541 l 1
 182 618 l 2
 171 626 160 633 151 633 c 0
 143 633 131 626 120 618 c 2
 17 541 l 1
 -3 562 l 1xf8
32 0 m 1xe4
 32 29 l 1
 104 34 107 36 107 87 c 2
 107 402 l 2
 107 438 101 443 75 447 c 2
 37 452 l 1
 37 477 l 1
 194 502 l 1
 201 496 l 1
 201 87 l 2
 201 36 205 34 276 29 c 1
 276 0 l 1
 32 0 l 1xe4
EndSplineSet
Substitution2: "'smcp' Lowercase to Small Capitals lookup 3 subtable" Icircumflex.sc
Ligature2: "'liga' Standard Ligatures in Latin lookup 1 subtable" i uni0302
EndChar

StartChar: idieresis
Encoding: 239 239 175
Width: 291
GlyphClass: 3
Flags: MW
HStem: 0 29<32 32 32 276> 452 25<37 37> 482 20<194 194> 570 113<22.5 61.5 230.5 270>
VStem: -19 121<612.5 641.5> 107 94<87 402 402 420> 190 120<612.5 641.5>
AnchorPoint: "Anchor-5" 154 663 basechar 0
LayerCount: 2
Fore
SplineSet
-19 627 m 0xf8
 -19 656 3 683 42 683 c 0
 81 683 102 656 102 627 c 0
 102 598 81 570 42 570 c 0
 3 570 -19 598 -19 627 c 0xf8
190 627 m 0xfa
 190 656 211 683 250 683 c 0
 290 683 310 656 310 627 c 0
 310 598 290 570 250 570 c 0
 211 570 190 598 190 627 c 0xfa
32 0 m 1xe4
 32 29 l 1
 104 34 107 36 107 87 c 2
 107 402 l 2
 107 438 101 443 75 447 c 2
 37 452 l 1
 37 477 l 1
 194 502 l 1
 201 496 l 1
 201 87 l 2
 201 36 205 34 276 29 c 1
 276 0 l 1
 32 0 l 1xe4
EndSplineSet
Substitution2: "'smcp' Lowercase to Small Capitals lookup 3 subtable" Idieresis.sc
Ligature2: "'liga' Standard Ligatures in Latin lookup 1 subtable" i uni0308
EndChar

StartChar: eth
Encoding: 240 240 176
Width: 577
GlyphClass: 2
Flags: MW
HStem: -12 35<237.5 338.5 237.5 366> 467 35<237.5 301.5 210.5 342> 722 20G<160 160> 722 20G<160 160>
VStem: 49 104<178 312 178 325> 424 104<178 311 165 319.5>
LayerCount: 2
Fore
SplineSet
49 245 m 0xec
 49 405 129 502 292 502 c 0
 311 502 327 499 344 496 c 1
 346 499 l 1
 324 529 296 561 262 594 c 1
 132 535 l 1
 107 571 l 1
 229 625 l 1
 197 654 158 685 117 716 c 1
 117 725 l 1
 160 742 l 1
 207 714 253 682 290 652 c 1
 421 713 l 1
 446 677 l 1
 327 623 l 1
 365 592 398 560 422 531 c 0
 496 442 528 367 528 255 c 0
 528 75 445 -12 287 -12 c 0
 129 -12 49 85 49 245 c 0xec
153 245 m 0
 153 111 188 23 287 23 c 0
 390 23 424 111 424 245 c 0
 424 394 397 467 287 467 c 0
 188 467 153 379 153 245 c 0
EndSplineSet
Substitution2: "'smcp' Lowercase to Small Capitals lookup 3 subtable" Eth.sc
EndChar

StartChar: ntilde
Encoding: 241 241 177
Width: 619
GlyphClass: 2
Flags: MW
HStem: 0 29<32 32 32 276> 448 54<345 364> 576 60<388.5 395.5> 614 60<212 234>
VStem: 107 94<87 321> 435 94<87 323 323 343>
LayerCount: 2
Fore
SplineSet
132 576 m 1x20
 152 616 180 674 244 674 c 0x10
 268 674 296 665 323 655 c 1
 351 646 378 636 399 636 c 0
 427 636 439 647 467 682 c 1
 487 671 l 1
 473 643 459 619 443 602 c 1
 426 586 408 576 383 576 c 0x20
 361 576 332 586 303 595 c 0
 274 605 245 614 223 614 c 0x10
 190 614 173 598 151 563 c 1
 132 576 l 1x20
32 0 m 1xcc
 32 29 l 1
 104 34 107 36 107 87 c 2
 107 402 l 2
 107 438 101 443 75 447 c 2
 37 452 l 1
 37 477 l 1
 186 502 l 1
 200 426 l 1
 262 466 308 502 382 502 c 0
 474 502 529 444 529 343 c 2
 529 87 l 2
 529 36 533 34 604 29 c 1
 604 0 l 1
 360 0 l 1
 360 29 l 1
 432 34 435 36 435 87 c 2
 435 323 l 2
 435 410 398 448 330 448 c 0
 277 448 232 415 211 376 c 0
 203 360 201 346 201 321 c 2
 201 87 l 2
 201 36 205 34 276 29 c 1
 276 0 l 1
 32 0 l 1xcc
EndSplineSet
Substitution2: "'smcp' Lowercase to Small Capitals lookup 3 subtable" Ntilde.sc
EndChar

StartChar: ograve
Encoding: 242 242 178
Width: 577
GlyphClass: 2
Flags: MW
HStem: -12 35<243 335 243 369.5> 467 35<243 335>
VStem: 49 104<176 314 176 326> 424 104
AnchorPoint: "Anchor-5" 288 703 basechar 0
AnchorPoint: "Anchor-4" 289 0 basechar 0
LayerCount: 2
Fore
SplineSet
128 680 m 0
 128 700 152 723 167 723 c 0
 184 723 201 713 231 682 c 2
 350 562 l 1
 335 542 l 1
 184 626 l 2
 154 642 128 659 128 680 c 0
49 245 m 0
 49 407 128 502 289 502 c 0
 450 502 529 407 529 245 c 0
 529 83 450 -12 289 -12 c 0
 128 -12 49 83 49 245 c 0
153 245 m 0
 153 107 197 23 289 23 c 0
 381 23 425 107 425 245 c 0
 425 383 381 467 289 467 c 0
 197 467 153 383 153 245 c 0
EndSplineSet
Substitution2: "'smcp' Lowercase to Small Capitals lookup 3 subtable" Ograve.sc
EndChar

StartChar: oacute
Encoding: 243 243 179
Width: 577
GlyphClass: 2
Flags: MW
HStem: -12 35<243 335 243 369.5> 467 35<243 335>
VStem: 49 104<176 314 176 326> 424 104
AnchorPoint: "Anchor-5" 288 703 basechar 0
AnchorPoint: "Anchor-4" 289 0 basechar 0
LayerCount: 2
Fore
SplineSet
208 562 m 1
 327 682 l 2
 357 713 374 723 391 723 c 0
 406 723 430 700 430 680 c 0
 430 659 404 642 374 626 c 2
 223 542 l 1
 208 562 l 1
49 245 m 0
 49 407 128 502 289 502 c 0
 450 502 529 407 529 245 c 0
 529 83 450 -12 289 -12 c 0
 128 -12 49 83 49 245 c 0
153 245 m 0
 153 107 197 23 289 23 c 0
 381 23 425 107 425 245 c 0
 425 383 381 467 289 467 c 0
 197 467 153 383 153 245 c 0
EndSplineSet
Substitution2: "'smcp' Lowercase to Small Capitals lookup 3 subtable" Oacute.sc
EndChar

StartChar: ocircumflex
Encoding: 244 244 180
Width: 577
GlyphClass: 2
Flags: MW
HStem: -12 35<243 335 243 369.5> 467 35<243 335> 633 87<285 293.5>
VStem: 49 104<176 314 176 326> 424 104
AnchorPoint: "Anchor-5" 288 700 basechar 0
AnchorPoint: "Anchor-4" 289 0 basechar 0
LayerCount: 2
Fore
SplineSet
136 562 m 1
 253 695 l 2
 266 709 277 720 289 720 c 0
 301 720 313 708 325 695 c 2
 442 562 l 1
 423 541 l 1
 320 618 l 2
 309 626 298 633 289 633 c 0
 281 633 269 626 258 618 c 2
 155 541 l 1
 136 562 l 1
49 245 m 0
 49 407 128 502 289 502 c 0
 450 502 529 407 529 245 c 0
 529 83 450 -12 289 -12 c 0
 128 -12 49 83 49 245 c 0
153 245 m 0
 153 107 197 23 289 23 c 0
 381 23 425 107 425 245 c 0
 425 383 381 467 289 467 c 0
 197 467 153 383 153 245 c 0
EndSplineSet
Substitution2: "'smcp' Lowercase to Small Capitals lookup 3 subtable" Ocircumflex.sc
EndChar

StartChar: otilde
Encoding: 245 245 181
Width: 577
GlyphClass: 2
Flags: MW
HStem: -12 35<243 335 243 369.5> 467 35<243 335> 576 60<367.5 374.5> 614 60<191 213>
VStem: 49 104<176 314 176 326> 425 104<176 314>
AnchorPoint: "Anchor-5" 288 662 basechar 0
AnchorPoint: "Anchor-4" 289 0 basechar 0
LayerCount: 2
Fore
SplineSet
111 576 m 1x20
 131 616 159 674 223 674 c 0x10
 247 674 275 665 302 655 c 1
 330 646 357 636 378 636 c 0
 406 636 418 647 446 682 c 1
 466 671 l 1
 452 643 438 619 422 602 c 1
 405 586 387 576 362 576 c 0x20
 340 576 311 586 282 595 c 0
 253 605 224 614 202 614 c 0x10
 169 614 152 598 130 563 c 1
 111 576 l 1x20
49 245 m 0xcc
 49 407 128 502 289 502 c 0
 450 502 529 407 529 245 c 0
 529 83 450 -12 289 -12 c 0
 128 -12 49 83 49 245 c 0xcc
153 245 m 0
 153 107 197 23 289 23 c 0
 381 23 425 107 425 245 c 0
 425 383 381 467 289 467 c 0
 197 467 153 383 153 245 c 0
EndSplineSet
Substitution2: "'smcp' Lowercase to Small Capitals lookup 3 subtable" Otilde.sc
EndChar

StartChar: odieresis
Encoding: 246 246 182
Width: 577
GlyphClass: 2
Flags: MW
HStem: -12 35<243 335 243 369.5> 467 35<243 335> 570 113<165.5 204.5 373.5 412.5>
VStem: 49 104<176 314 176 326> 125 120<612.5 641.5> 333 120<612.5 641.5> 425 104<176 314>
AnchorPoint: "Anchor-5" 288 663 basechar 0
AnchorPoint: "Anchor-4" 289 0 basechar 0
LayerCount: 2
Fore
SplineSet
333 627 m 0x2c
 333 656 354 683 393 683 c 0
 432 683 453 656 453 627 c 0
 453 598 432 570 393 570 c 0
 354 570 333 598 333 627 c 0x2c
125 627 m 0
 125 656 146 683 185 683 c 0
 224 683 245 656 245 627 c 0
 245 598 224 570 185 570 c 0
 146 570 125 598 125 627 c 0
49 245 m 0xd2
 49 407 128 502 289 502 c 0
 450 502 529 407 529 245 c 0
 529 83 450 -12 289 -12 c 0
 128 -12 49 83 49 245 c 0xd2
153 245 m 0
 153 107 197 23 289 23 c 0
 381 23 425 107 425 245 c 0
 425 383 381 467 289 467 c 0
 197 467 153 383 153 245 c 0
EndSplineSet
Substitution2: "'smcp' Lowercase to Small Capitals lookup 3 subtable" Odieresis.sc
EndChar

StartChar: divide
Encoding: 247 247 183
Width: 570
GlyphClass: 2
Flags: MW
HStem: 26 118<268 301> 221 58<43 527 43 527> 356 118<268 301>
VStem: 225 117<69 101.5 399 431.5>
LayerCount: 2
Fore
SplineSet
225 86 m 0
 225 117 251 144 285 144 c 0
 317 144 342 117 342 86 c 0
 342 52 317 26 285 26 c 0
 251 26 225 52 225 86 c 0
225 416 m 0
 225 447 251 474 285 474 c 0
 317 474 342 447 342 416 c 0
 342 382 317 356 285 356 c 0
 251 356 225 382 225 416 c 0
43 221 m 1
 43 279 l 1
 527 279 l 1
 527 221 l 1
 43 221 l 1
EndSplineSet
EndChar

StartChar: oslash
Encoding: 248 248 184
Width: 577
GlyphClass: 2
Flags: MW
HStem: -12 35<268.5 337 268.5 369> 467 35<241 307>
VStem: 49 99<216 245 216 326> 429 99<176 277>
LayerCount: 2
Fore
SplineSet
49 245 m 0
 49 407 128 502 288 502 c 0
 334 502 374 494 407 479 c 1
 440 532 l 1
 472 511 l 1
 440 460 l 1
 499 418 528 344 528 245 c 0
 528 83 450 -12 288 -12 c 0
 238 -12 196 -3 163 16 c 1
 127 -41 l 1
 96 -18 l 1
 130 37 l 1
 75 80 49 151 49 245 c 0
148 245 m 0
 148 187 156 138 172 104 c 1
 377 431 l 1
 355 455 326 467 288 467 c 0
 194 467 146 383 148 245 c 0
194 66 m 1
 218 37 249 23 288 23 c 0
 386 23 429 107 429 245 c 0
 429 309 420 361 401 397 c 1
 194 66 l 1
EndSplineSet
Substitution2: "'smcp' Lowercase to Small Capitals lookup 3 subtable" Oslash.sc
EndChar

StartChar: ugrave
Encoding: 249 249 185
Width: 606
GlyphClass: 2
Flags: MW
HStem: -12 54<262 280.5> 0 29<431 591> 452 25<26 26> 482 20<183 183 509 509> 542 181<153.5 329>
VStem: 96 94<138 156 156 402 402 420> 122 222<562 690> 422 94<177 402 402 420>
AnchorPoint: "Anchor-5" 306 703 basechar 0
AnchorPoint: "Anchor-4" 306 0 basechar 0
LayerCount: 2
Fore
SplineSet
122 680 m 0x0a
 122 700 146 723 161 723 c 0
 178 723 195 713 225 682 c 2
 344 562 l 1
 329 542 l 1
 178 626 l 2
 148 642 122 659 122 680 c 0x0a
26 452 m 1xb5
 26 477 l 1
 183 502 l 1
 190 496 l 1
 190 156 l 2
 190 78 233 42 291 42 c 0xb5
 343 42 391 71 414 117 c 0
 419 127 422 149 422 177 c 2
 422 402 l 2
 422 438 416 443 390 447 c 2
 352 452 l 1
 352 477 l 1
 509 502 l 1
 516 496 l 1
 516 87 l 2
 516 36 522 34 591 29 c 1
 591 0 l 1
 431 0 l 1x75
 421 60 l 1
 392 46 323 -12 238 -12 c 0
 164 -12 96 23 96 138 c 2
 96 402 l 2
 96 438 90 443 64 447 c 2
 26 452 l 1xb5
EndSplineSet
Substitution2: "'smcp' Lowercase to Small Capitals lookup 3 subtable" Ugrave.sc
EndChar

StartChar: uacute
Encoding: 250 250 186
Width: 606
GlyphClass: 2
Flags: MW
HStem: -12 54<262 280.5> 0 29<431 591> 452 25<26 26> 482 20<183 183 509 509> 542 181<247 422.5>
VStem: 96 94<138 156 156 402 402 420> 232 222<562 690> 422 94<177 402 402 420>
AnchorPoint: "Anchor-5" 306 703 basechar 0
AnchorPoint: "Anchor-4" 306 0 basechar 0
LayerCount: 2
Fore
SplineSet
232 562 m 1x0a
 351 682 l 2
 381 713 398 723 415 723 c 0
 430 723 454 700 454 680 c 0
 454 659 428 642 398 626 c 2
 247 542 l 1
 232 562 l 1x0a
26 452 m 1xb5
 26 477 l 1
 183 502 l 1
 190 496 l 1
 190 156 l 2
 190 78 233 42 291 42 c 0xb5
 343 42 391 71 414 117 c 0
 419 127 422 149 422 177 c 2
 422 402 l 2
 422 438 416 443 390 447 c 2
 352 452 l 1
 352 477 l 1
 509 502 l 1
 516 496 l 1
 516 87 l 2
 516 36 522 34 591 29 c 1
 591 0 l 1
 431 0 l 1x75
 421 60 l 1
 392 46 323 -12 238 -12 c 0
 164 -12 96 23 96 138 c 2
 96 402 l 2
 96 438 90 443 64 447 c 2
 26 452 l 1xb5
EndSplineSet
Substitution2: "'smcp' Lowercase to Small Capitals lookup 3 subtable" Uacute.sc
EndChar

StartChar: ucircumflex
Encoding: 251 251 187
Width: 606
GlyphClass: 2
Flags: MW
HStem: -12 54<262 280.5> 0 29<431 591> 452 25<26 26> 482 20<183 183 509 509> 541 20 633 87<295 303.5>
VStem: 96 94<138 156 156 402 402 420> 146 306<562 562> 422 94<177 402 402 420>
AnchorPoint: "Anchor-5" 306 700 basechar 0
AnchorPoint: "Anchor-4" 306 0 basechar 0
LayerCount: 2
Fore
SplineSet
146 562 m 1x0d
 263 695 l 2
 276 709 287 720 299 720 c 0
 311 720 323 708 335 695 c 2
 452 562 l 1
 433 541 l 1
 330 618 l 2
 319 626 308 633 299 633 c 0
 291 633 279 626 268 618 c 2
 165 541 l 1
 146 562 l 1x0d
26 452 m 1xb280
 26 477 l 1
 183 502 l 1
 190 496 l 1
 190 156 l 2
 190 78 233 42 291 42 c 0xb280
 343 42 391 71 414 117 c 0
 419 127 422 149 422 177 c 2
 422 402 l 2
 422 438 416 443 390 447 c 2
 352 452 l 1
 352 477 l 1
 509 502 l 1
 516 496 l 1
 516 87 l 2
 516 36 522 34 591 29 c 1
 591 0 l 1
 431 0 l 1x7280
 421 60 l 1
 392 46 323 -12 238 -12 c 0
 164 -12 96 23 96 138 c 2
 96 402 l 2
 96 438 90 443 64 447 c 2
 26 452 l 1xb280
EndSplineSet
Substitution2: "'smcp' Lowercase to Small Capitals lookup 3 subtable" Ucircumflex.sc
EndChar

StartChar: udieresis
Encoding: 252 252 188
Width: 606
GlyphClass: 2
Flags: MW
HStem: -12 54<262 280.5> 0 29<431 591> 452 25<26 26> 482 20<183 183 509 509> 570 113<179.5 218.5 387.5 426.5>
VStem: 96 94<138 156 156 402 402 420> 139 120<612.5 641.5> 347 120<612.5 641.5> 422 94<177 402 402 420>
AnchorPoint: "Anchor-5" 306 663 basechar 0
AnchorPoint: "Anchor-4" 306 0 basechar 0
LayerCount: 2
Fore
SplineSet
347 627 m 0x0b
 347 656 368 683 407 683 c 0
 446 683 467 656 467 627 c 0
 467 598 446 570 407 570 c 0
 368 570 347 598 347 627 c 0x0b
139 627 m 0
 139 656 160 683 199 683 c 0
 238 683 259 656 259 627 c 0
 259 598 238 570 199 570 c 0
 160 570 139 598 139 627 c 0
26 452 m 1xb480
 26 477 l 1
 183 502 l 1
 190 496 l 1
 190 156 l 2
 190 78 233 42 291 42 c 0xb480
 343 42 391 71 414 117 c 0
 419 127 422 149 422 177 c 2
 422 402 l 2
 422 438 416 443 390 447 c 2
 352 452 l 1
 352 477 l 1
 509 502 l 1
 516 496 l 1
 516 87 l 2
 516 36 522 34 591 29 c 1
 591 0 l 1
 431 0 l 1x7480
 421 60 l 1
 392 46 323 -12 238 -12 c 0
 164 -12 96 23 96 138 c 2
 96 402 l 2
 96 438 90 443 64 447 c 2
 26 452 l 1xb480
EndSplineSet
Substitution2: "'smcp' Lowercase to Small Capitals lookup 3 subtable" Udieresis.sc
EndChar

StartChar: yacute
Encoding: 253 253 189
Width: 506
GlyphClass: 2
Flags: MW
HStem: -242 73<106 173.5> 461 29<-5 224 -5 224> 542 181<227 402.5>
VStem: 212 222<562 690>
AnchorPoint: "Anchor-5" 262 715 basechar 0
AnchorPoint: "Anchor-4" 262 -230 basechar 0
LayerCount: 2
Fore
SplineSet
212 562 m 1
 331 682 l 2
 361 713 378 723 395 723 c 0
 410 723 434 700 434 680 c 0
 434 659 408 642 378 626 c 2
 227 542 l 1
 212 562 l 1
-5 461 m 1
 -5 490 l 1
 224 490 l 1
 224 461 l 1
 181 457 l 2
 158 455 160 444 166 426 c 0
 203 321 243 212 289 91 c 1
 291 91 l 1
 335 211 387 362 402 422 c 0
 407 442 405 454 388 456 c 2
 336 461 l 1
 336 490 l 1
 528 490 l 1
 528 461 l 1
 478 458 472 450 454 410 c 0
 423 340 331 96 269 -82 c 0
 218 -230 167 -242 127 -242 c 0
 85 -242 57 -214 57 -190 c 0
 57 -161 82 -134 101 -134 c 0
 113 -134 121 -139 131 -148 c 0
 149 -166 158 -169 168 -169 c 0
 179 -169 197 -160 212 -127 c 0
 227 -95 236 -65 236 -42 c 0
 236 -25 234 -10 228 7 c 0
 204 76 121 289 71 409 c 0
 53 453 43 459 -5 461 c 1
EndSplineSet
Substitution2: "'smcp' Lowercase to Small Capitals lookup 3 subtable" Yacute.sc
EndChar

StartChar: thorn
Encoding: 254 254 190
Width: 606
GlyphClass: 2
Flags: MW
HStem: -230 29<23 282 23 23> -12 35<283 357 281 373.5> 448 54<325.5 344> 672 25<28 28>
VStem: 98 94<-143 11 145.5 157 157 321 430 622 622 641> 453 104<176.5 291.5 153 336>
LayerCount: 2
Fore
SplineSet
23 -201 m 1
 93 -196 98 -192 98 -143 c 2
 98 622 l 2
 98 660 92 665 66 668 c 2
 28 672 l 1
 28 697 l 1
 185 722 l 1
 192 716 l 1
 192 430 l 1
 231 453 289 502 362 502 c 0
 544 502 557 327 557 256 c 0
 557 50 441 -12 306 -12 c 0
 260 -12 213 -1 192 11 c 1
 192 -143 l 2
 192 -192 198 -196 282 -201 c 1
 282 -230 l 1
 23 -230 l 1
 23 -201 l 1
192 157 m 2
 192 134 193 114 199 96 c 0
 215 50 255 23 307 23 c 0
 407 23 453 103 453 250 c 0
 453 422 364 448 324 448 c 0
 271 448 228 424 205 378 c 0
 196 360 192 346 192 321 c 2
 192 157 l 2
EndSplineSet
Substitution2: "'smcp' Lowercase to Small Capitals lookup 3 subtable" Thorn.sc
EndChar

StartChar: ydieresis
Encoding: 255 255 191
Width: 506
GlyphClass: 2
Flags: MW
HStem: -242 73<106 173.5> 461 29<-5 224 -5 224> 570 113<144.5 183.5 352.5 391.5>
VStem: 104 120<612.5 641.5> 312 120<612.5 641.5>
AnchorPoint: "Anchor-5" 262 675 basechar 0
AnchorPoint: "Anchor-4" 262 -230 basechar 0
LayerCount: 2
Fore
SplineSet
312 627 m 0
 312 656 333 683 372 683 c 0
 411 683 432 656 432 627 c 0
 432 598 411 570 372 570 c 0
 333 570 312 598 312 627 c 0
104 627 m 0
 104 656 125 683 164 683 c 0
 203 683 224 656 224 627 c 0
 224 598 203 570 164 570 c 0
 125 570 104 598 104 627 c 0
-5 461 m 1
 -5 490 l 1
 224 490 l 1
 224 461 l 1
 181 457 l 2
 158 455 160 444 166 426 c 0
 203 321 243 212 289 91 c 1
 291 91 l 1
 335 211 387 362 402 422 c 0
 407 442 405 454 388 456 c 2
 336 461 l 1
 336 490 l 1
 528 490 l 1
 528 461 l 1
 478 458 472 450 454 410 c 0
 423 340 331 96 269 -82 c 0
 218 -230 167 -242 127 -242 c 0
 85 -242 57 -214 57 -190 c 0
 57 -161 82 -134 101 -134 c 0
 113 -134 121 -139 131 -148 c 0
 149 -166 158 -169 168 -169 c 0
 179 -169 197 -160 212 -127 c 0
 227 -95 236 -65 236 -42 c 0
 236 -25 234 -10 228 7 c 0
 204 76 121 289 71 409 c 0
 53 453 43 459 -5 461 c 1
EndSplineSet
Substitution2: "'smcp' Lowercase to Small Capitals lookup 3 subtable" Ydieresis.sc
EndChar

StartChar: Amacron
Encoding: 256 256 192
Width: 635
GlyphClass: 2
Flags: MW
HStem: 0 29<-29 -29 -29 191> 267 38<188 387 188 399 175 387> 672 20<277 351 351 351> 759 59<156 472 156 472>
VStem: 156 316<759 818 759 818>
AnchorPoint: "Anchor-5" 314 813 basechar 0
AnchorPoint: "Anchor-4" 310 0 basechar 0
LayerCount: 2
Fore
SplineSet
156 759 m 1
 156 818 l 1
 472 818 l 1
 472 759 l 1
 156 759 l 1
-29 0 m 1
 -29 29 l 1
 34 32 43 44 64 98 c 0
 99 189 141 309 172 396 c 2
 277 692 l 1
 351 692 l 1
 563 89 l 2
 581 37 592 34 650 29 c 1
 650 0 l 1
 394 0 l 1
 394 29 l 1
 439 33 l 2
 471 36 476 47 466 76 c 2
 399 267 l 1
 175 267 l 1
 152 196 131 134 114 74 c 0
 106 47 109 37 139 34 c 2
 191 29 l 1
 191 0 l 1
 -29 0 l 1
188 305 m 1
 387 305 l 1
 288 591 l 1
 285 591 l 1
 255 503 220 405 188 305 c 1
EndSplineSet
Substitution2: "'c2sc' Capitals to Small Capitals lookup 4 subtable" Amacron.sc
EndChar

StartChar: amacron
Encoding: 257 257 193
Width: 523
GlyphClass: 2
Flags: MW
HStem: -12 53<211 222> 467 35<238 277.5> 597 59<125 413 125 413>
VStem: 49 101<114.5 153.5> 125 288<597 656 597 656> 343 90<143 284 284 284 325 367 367 369>
AnchorPoint: "Anchor-5" 269 636 basechar 0
AnchorPoint: "Anchor-4" 269 0 basechar 0
LayerCount: 2
Fore
SplineSet
125 597 m 1x28
 125 656 l 1
 413 656 l 1
 413 597 l 1
 125 597 l 1x28
49 130 m 0xd4
 49 177 70 227 142 249 c 0
 221 274 318 299 343 325 c 1
 343 367 l 2
 343 447 297 467 258 467 c 0
 218 467 177 443 155 369 c 0
 150 352 144 341 123 341 c 0
 104 341 67 356 67 388 c 0
 67 443 156 502 269 502 c 0
 420 502 433 427 433 369 c 2
 433 127 l 2
 433 64 450 45 468 41 c 0
 483 37 505 39 519 42 c 1
 525 18 l 1
 487 -1 444 -12 407 -12 c 0
 372 -12 356 11 342 48 c 1
 310 27 251 -12 193 -12 c 0
 99 -12 49 55 49 130 c 0xd4
150 144 m 0
 150 85 180 41 242 41 c 0
 281 41 343 62 343 143 c 2
 343 284 l 1
 321 270 268 251 228 236 c 0
 172 215 150 191 150 144 c 0
EndSplineSet
Substitution2: "'smcp' Lowercase to Small Capitals lookup 3 subtable" Amacron.sc
EndChar

StartChar: Abreve
Encoding: 258 258 194
Width: 635
GlyphClass: 2
Flags: MW
HStem: 0 29<-29 -29 -29 191> 267 38<188 387 188 399 175 387> 672 20<277 351 351 351> 749 62<273 367 273 380.5>
VStem: 170 28<842 870> 442 28<842 870>
AnchorPoint: "Anchor-5" 314 865 basechar 0
AnchorPoint: "Anchor-4" 310 0 basechar 0
LayerCount: 2
Fore
SplineSet
170 870 m 1
 198 870 l 1
 200 851 226 811 320 811 c 0
 414 811 440 851 442 870 c 1
 470 870 l 1
 470 814 441 749 320 749 c 0
 199 749 170 814 170 870 c 1
-29 0 m 1
 -29 29 l 1
 34 32 43 44 64 98 c 0
 99 189 141 309 172 396 c 2
 277 692 l 1
 351 692 l 1
 563 89 l 2
 581 37 592 34 650 29 c 1
 650 0 l 1
 394 0 l 1
 394 29 l 1
 439 33 l 2
 471 36 476 47 466 76 c 2
 399 267 l 1
 175 267 l 1
 152 196 131 134 114 74 c 0
 106 47 109 37 139 34 c 2
 191 29 l 1
 191 0 l 1
 -29 0 l 1
188 305 m 1
 387 305 l 1
 288 591 l 1
 285 591 l 1
 255 503 220 405 188 305 c 1
EndSplineSet
Substitution2: "'c2sc' Capitals to Small Capitals lookup 4 subtable" Abreve.sc
EndChar

StartChar: abreve
Encoding: 259 259 195
Width: 523
GlyphClass: 2
Flags: MW
HStem: -12 53<211 222> 467 35<238 277.5> 568 65<218.5 311.5 218.5 327.5> 684 20<128 152 152 152 378 402 402 402>
VStem: 49 101<114.5 153.5> 128 24<672.5 704> 343 90<143 284 284 284 325 367 367 369> 378 24<672.5 704>
AnchorPoint: "Anchor-5" 269 684 basechar 0
AnchorPoint: "Anchor-4" 269 0 basechar 0
LayerCount: 2
Fore
SplineSet
49 130 m 0xca
 49 177 70 227 142 249 c 0
 221 274 318 299 343 325 c 1
 343 367 l 2
 343 447 297 467 258 467 c 0
 218 467 177 443 155 369 c 0
 150 352 144 341 123 341 c 0
 104 341 67 356 67 388 c 0
 67 443 156 502 269 502 c 0
 420 502 433 427 433 369 c 2
 433 127 l 2
 433 64 450 45 468 41 c 0
 483 37 505 39 519 42 c 1
 525 18 l 1
 487 -1 444 -12 407 -12 c 0
 372 -12 356 11 342 48 c 1
 310 27 251 -12 193 -12 c 0
 99 -12 49 55 49 130 c 0xca
150 144 m 0
 150 85 180 41 242 41 c 0
 281 41 343 62 343 143 c 2
 343 284 l 1
 321 270 268 251 228 236 c 0
 172 215 150 191 150 144 c 0
128 704 m 1x35
 152 704 l 1
 154 683 172 633 265 633 c 0
 358 633 376 683 378 704 c 1
 402 704 l 1
 402 641 390 568 265 568 c 0
 140 568 128 641 128 704 c 1x35
EndSplineSet
Substitution2: "'smcp' Lowercase to Small Capitals lookup 3 subtable" Abreve.sc
EndChar

StartChar: Aogonek
Encoding: 260 260 196
Width: 635
GlyphClass: 3
Flags: MW
HStem: -230 44<524 532> 0 29<-29 -29 -29 191> 267 38<188 387 188 399 175 387> 672 20G<277 351 351 351>
VStem: 408 74<-150 -107.5>
AnchorPoint: "Anchor-5" 314 707 basechar 0
LayerCount: 2
Fore
SplineSet
-29 0 m 1
 -29 29 l 1
 34 32 43 44 64 98 c 0
 99 189 141 309 172 396 c 2
 277 692 l 1
 351 692 l 1
 563 89 l 2
 581 37 592 34 650 29 c 1
 650 0 l 1
 558 0 l 1
 510 -40 482 -82 482 -132 c 0
 482 -168 508 -186 540 -186 c 0
 556 -186 580 -182 597 -174 c 1
 605 -195 l 1
 581 -216 552 -230 512 -230 c 0
 422 -230 408 -170 408 -139 c 0
 408 -76 451 -36 515 0 c 1
 394 0 l 1
 394 29 l 1
 439 33 l 2
 471 36 476 47 466 76 c 2
 399 267 l 1
 175 267 l 1
 152 196 131 134 114 74 c 0
 106 47 109 37 139 34 c 2
 191 29 l 1
 191 0 l 1
 -29 0 l 1
188 305 m 1
 387 305 l 1
 288 591 l 1
 285 591 l 1
 255 503 220 405 188 305 c 1
EndSplineSet
Ligature2: "'liga' Standard Ligatures in Latin lookup 2 subtable" A uni0328
EndChar

StartChar: aogonek
Encoding: 261 261 197
Width: 523
GlyphClass: 2
Flags: MW
HStem: -230 44<402 410> -12 53<211 222> 18 24<519 525> 467 35<238 277.5>
VStem: 49 101<114.5 153.5> 67 88 286 74<-150 -109.5> 343 90<143 284 284 284 325 367 367 369>
AnchorPoint: "Anchor-5" 269 502 basechar 0
LayerCount: 2
Fore
SplineSet
49 130 m 0xda
 49 177 70 226 142 249 c 0
 221 274 318 299 343 325 c 1
 343 367 l 2
 343 447 297 467 258 467 c 0
 218 467 177 443 155 369 c 0
 150 352 144 341 123 341 c 0
 104 341 67 356 67 388 c 0
 67 443 156 502 269 502 c 0
 420 502 433 427 433 369 c 2
 433 127 l 2
 433 53 454 39 488 39 c 0
 499 39 511 40 519 42 c 1
 525 18 l 1xb5
 482 -4 439 -7 421 -20 c 0
 387 -44 360 -83 360 -132 c 0
 360 -168 386 -186 418 -186 c 0
 434 -186 458 -182 475 -174 c 1
 483 -195 l 1
 459 -216 430 -230 390 -230 c 0
 300 -230 286 -170 286 -139 c 0
 286 -80 327 -36 387 -8 c 1
 365 -3 352 21 342 48 c 1
 310 27 251 -12 193 -12 c 0
 99 -12 49 55 49 130 c 0xda
150 144 m 0xd9
 150 85 180 41 242 41 c 0
 281 41 343 62 343 143 c 2
 343 284 l 1
 321 270 268 251 228 236 c 0
 172 215 150 191 150 144 c 0xd9
EndSplineSet
EndChar

StartChar: Cacute
Encoding: 262 262 198
Width: 684
GlyphClass: 2
Flags: MW
HStem: -15 35<359 455> 672 35<359.5 462> 742 21<333 333> 798 92
VStem: 48 112<283.5 397.5> 322 242 603 30<512 668> 619 30<200 200>
AnchorPoint: "Anchor-5" 420 871 basechar 0
AnchorPoint: "Anchor-4" 415 0 basechar 0
LayerCount: 2
Fore
SplineSet
322 764 m 1x34
 467 863 l 2
 502 887 516 893 532 890 c 0
 547 887 566 858 564 838 c 0
 562 819 548 812 503 798 c 2
 333 742 l 1
 322 764 l 1x34
48 341 m 0xc9
 48 454 82 540 139 604 c 0
 199 671 298 707 421 707 c 0
 512 707 588 689 633 668 c 1
 633 512 l 1
 603 512 l 1xca
 584 630 513 672 411 672 c 0
 225 672 160 508 160 344 c 0
 160 223 203 20 409 20 c 0
 540 20 591 96 619 200 c 1
 649 200 l 1
 635 33 l 1
 587 7 495 -15 415 -15 c 0
 303 -15 205 8 143 70 c 0
 83 130 48 224 48 341 c 0xc9
EndSplineSet
EndChar

StartChar: cacute
Encoding: 263 263 199
Width: 496
GlyphClass: 2
Flags: MW
HStem: -12 52<240.5 316> 467 35<246.5 304> 542 181<227 402.5>
VStem: 49 104<211 306.5> 212 222<562 690>
AnchorPoint: "Anchor-5" 292 703 basechar 0
AnchorPoint: "Anchor-4" 281 0 basechar 0
LayerCount: 2
Fore
SplineSet
212 562 m 1
 331 682 l 2
 361 713 378 723 395 723 c 0
 410 723 434 700 434 680 c 0
 434 659 408 642 378 626 c 2
 227 542 l 1
 212 562 l 1
49 240 m 0
 49 373 110 502 292 502 c 0
 400 502 466 451 466 405 c 0
 466 367 427 354 407 354 c 0
 388 354 382 364 376 380 c 0
 356 434 327 467 281 467 c 0
 212 467 153 407 153 258 c 0
 153 164 181 40 300 40 c 0
 373 40 413 76 444 146 c 1
 473 132 l 1
 445 25 351 -12 281 -12 c 0
 131 -12 49 73 49 240 c 0
EndSplineSet
EndChar

StartChar: Ccircumflex
Encoding: 264 264 200
Width: 684
GlyphClass: 2
Flags: MW
HStem: -15 35<359 455> 672 35<359.5 462> 792 84<416 424.5>
VStem: 48 112<283.5 397.5> 267 306<738 738> 603 30<512 668> 619 30<200 200>
AnchorPoint: "Anchor-5" 420 856 basechar 0
AnchorPoint: "Anchor-4" 415 0 basechar 0
LayerCount: 2
Fore
SplineSet
267 738 m 1x28
 383 852 l 2
 397 865 408 876 420 876 c 0
 432 876 444 864 457 852 c 2
 573 738 l 1
 560 717 l 1
 453 778 l 2
 440 785 429 792 420 792 c 0
 412 792 400 785 387 778 c 2
 280 717 l 1
 267 738 l 1x28
48 341 m 0xd2
 48 454 82 540 139 604 c 0
 199 671 298 707 421 707 c 0
 512 707 588 689 633 668 c 1
 633 512 l 1
 603 512 l 1xd4
 584 630 513 672 411 672 c 0
 225 672 160 508 160 344 c 0
 160 223 203 20 409 20 c 0
 540 20 591 96 619 200 c 1
 649 200 l 1
 635 33 l 1
 587 7 495 -15 415 -15 c 0
 303 -15 205 8 143 70 c 0
 83 130 48 224 48 341 c 0xd2
EndSplineSet
EndChar

StartChar: ccircumflex
Encoding: 265 265 201
Width: 496
GlyphClass: 2
Flags: MW
HStem: -12 52<240.5 316> 467 35<246.5 304> 541 20 633 87<288 296.5>
VStem: 49 104<211 306.5> 139 306<562 562>
AnchorPoint: "Anchor-5" 292 700 basechar 0
AnchorPoint: "Anchor-4" 281 0 basechar 0
LayerCount: 2
Fore
SplineSet
139 562 m 1x34
 256 695 l 2
 269 709 280 720 292 720 c 0
 304 720 316 708 328 695 c 2
 445 562 l 1
 426 541 l 1
 323 618 l 2
 312 626 301 633 292 633 c 0
 284 633 272 626 261 618 c 2
 158 541 l 1
 139 562 l 1x34
49 240 m 0xc8
 49 373 110 502 292 502 c 0
 400 502 466 451 466 405 c 0
 466 367 427 354 407 354 c 0
 388 354 382 364 376 380 c 0
 356 434 327 467 281 467 c 0
 212 467 153 407 153 258 c 0
 153 164 181 40 300 40 c 0
 373 40 413 76 444 146 c 1
 473 132 l 1
 445 25 351 -12 281 -12 c 0
 131 -12 49 73 49 240 c 0xc8
EndSplineSet
EndChar

StartChar: Cdotaccent
Encoding: 266 266 202
Width: 684
GlyphClass: 2
Flags: MW
HStem: -15 35<359 455> 672 35<359.5 462> 732 109<401.5 439>
VStem: 48 112<283.5 397.5> 362 116<773 801> 603 30<512 668> 619 30<200 200>
AnchorPoint: "Anchor-5" 420 821 basechar 0
AnchorPoint: "Anchor-4" 415 0 basechar 0
LayerCount: 2
Fore
SplineSet
362 787 m 0x28
 362 815 383 841 420 841 c 0
 458 841 478 815 478 787 c 0
 478 759 458 732 420 732 c 0
 383 732 362 759 362 787 c 0x28
48 341 m 0xd2
 48 454 82 540 139 604 c 0
 199 671 298 707 421 707 c 0
 512 707 588 689 633 668 c 1
 633 512 l 1
 603 512 l 1xd4
 584 630 513 672 411 672 c 0
 225 672 160 508 160 344 c 0
 160 223 203 20 409 20 c 0
 540 20 591 96 619 200 c 1
 649 200 l 1
 635 33 l 1
 587 7 495 -15 415 -15 c 0
 303 -15 205 8 143 70 c 0
 83 130 48 224 48 341 c 0xd2
EndSplineSet
EndChar

StartChar: cdotaccent
Encoding: 267 267 203
Width: 496
GlyphClass: 2
Flags: MW
HStem: -12 52<240.5 316> 467 35<246.5 304> 570 113<272.5 311.5>
VStem: 49 104<211 306.5> 232 120<612.5 641.5>
AnchorPoint: "Anchor-5" 292 663 basechar 0
AnchorPoint: "Anchor-4" 281 0 basechar 0
LayerCount: 2
Fore
SplineSet
232 627 m 0
 232 656 253 683 292 683 c 0
 331 683 352 656 352 627 c 0
 352 598 331 570 292 570 c 0
 253 570 232 598 232 627 c 0
49 240 m 0
 49 373 110 502 292 502 c 0
 400 502 466 451 466 405 c 0
 466 367 427 354 407 354 c 0
 388 354 382 364 376 380 c 0
 356 434 327 467 281 467 c 0
 212 467 153 407 153 258 c 0
 153 164 181 40 300 40 c 0
 373 40 413 76 444 146 c 1
 473 132 l 1
 445 25 351 -12 281 -12 c 0
 131 -12 49 73 49 240 c 0
EndSplineSet
EndChar

StartChar: Ccaron
Encoding: 268 268 204
Width: 684
GlyphClass: 2
Flags: MW
HStem: -15 35<359 455> 672 35<359.5 462> 723 84<416 424.5 416 426>
VStem: 48 112<283.5 397.5> 267 306<861 861> 603 30<512 668> 619 30<200 200>
AnchorPoint: "Anchor-5" 420 862 basechar 0
AnchorPoint: "Anchor-4" 415 0 basechar 0
LayerCount: 2
Fore
SplineSet
267 861 m 1x28
 280 882 l 1
 387 821 l 2
 400 814 412 807 420 807 c 0
 429 807 440 814 453 821 c 2
 560 882 l 1
 573 861 l 1
 457 747 l 2
 444 735 432 723 420 723 c 0
 408 723 397 734 383 747 c 2
 267 861 l 1x28
48 341 m 0xd2
 48 454 82 540 139 604 c 0
 199 671 298 707 421 707 c 0
 512 707 588 689 633 668 c 1
 633 512 l 1
 603 512 l 1xd4
 584 630 513 672 411 672 c 0
 225 672 160 508 160 344 c 0
 160 223 203 20 409 20 c 0
 540 20 591 96 619 200 c 1
 649 200 l 1
 635 33 l 1
 587 7 495 -15 415 -15 c 0
 303 -15 205 8 143 70 c 0
 83 130 48 224 48 341 c 0xd2
EndSplineSet
Substitution2: "'c2sc' Capitals to Small Capitals lookup 4 subtable" Ccaron.sc
EndChar

StartChar: ccaron
Encoding: 269 269 205
Width: 496
GlyphClass: 2
Flags: MW
HStem: -12 52<240.5 316> 467 35<246.5 304> 541 87<288 296.5 288 298> 679 20<139 139 445 445> 700 20<158 158 426 426>
VStem: 49 104<211 306.5> 139 306<699 699>
AnchorPoint: "Anchor-5" 292 700 basechar 0
AnchorPoint: "Anchor-4" 281 0 basechar 0
LayerCount: 2
Fore
SplineSet
139 699 m 1x3a
 158 720 l 1
 261 643 l 2
 272 635 284 628 292 628 c 0
 301 628 312 635 323 643 c 2
 426 720 l 1
 445 699 l 1
 328 566 l 2
 316 553 304 541 292 541 c 0
 280 541 269 552 256 566 c 2
 139 699 l 1x3a
49 240 m 0xc4
 49 373 110 502 292 502 c 0
 400 502 466 451 466 405 c 0
 466 367 427 354 407 354 c 0
 388 354 382 364 376 380 c 0
 356 434 327 467 281 467 c 0
 212 467 153 407 153 258 c 0
 153 164 181 40 300 40 c 0
 373 40 413 76 444 146 c 1
 473 132 l 1
 445 25 351 -12 281 -12 c 0
 131 -12 49 73 49 240 c 0xc4
EndSplineSet
Substitution2: "'smcp' Lowercase to Small Capitals lookup 3 subtable" Ccaron.sc
EndChar

StartChar: Dcaron
Encoding: 270 270 206
Width: 779
GlyphClass: 2
Flags: MW
HStem: 0 35<284.5 347> 657 35<286.5 367 367 446> 723 84<364 372.5 364 374>
VStem: 125 99<93 125 125 599 599 600> 215 306<861 861> 619 112<268.5 438.5>
AnchorPoint: "Anchor-5" 368 877 basechar 0
AnchorPoint: "Anchor-4" 368 0 basechar 0
LayerCount: 2
Fore
SplineSet
215 861 m 1x28
 228 882 l 1
 335 821 l 2
 348 814 360 807 368 807 c 0
 377 807 388 814 401 821 c 2
 508 882 l 1
 521 861 l 1
 405 747 l 2
 392 735 380 723 368 723 c 0
 356 723 345 734 331 747 c 2
 215 861 l 1x28
35 0 m 1xd4
 35 29 l 1
 123 35 125 37 125 93 c 2
 125 599 l 2
 125 655 123 657 35 663 c 1
 35 692 l 1
 367 692 l 2
 658 692 731 522 731 358 c 0
 731 179 654 0 347 0 c 2
 35 0 l 1xd4
224 125 m 2
 224 46 241 35 328 35 c 0
 496 35 619 102 619 354 c 0
 619 523 552 657 340 657 c 0
 233 657 224 652 224 600 c 2
 224 125 l 2
EndSplineSet
Substitution2: "'c2sc' Capitals to Small Capitals lookup 4 subtable" Dcaron.sc
EndChar

StartChar: dcaron
Encoding: 271 271 207
Width: 648
GlyphClass: 2
Flags: MW
HStem: -12 54<245 285> 0 29<421 583> 467 35<262 325.5> 548 242<572 616.5> 692 25<344 344> 722 20<501 501>
VStem: 49 104<189.5 278.5> 414 94<170 346 346 359.5 478 642 642 661> 591 73<670 676.5>
LayerCount: 2
Fore
SplineSet
555 564 m 1x1080
 577 595 591 627 591 656 c 0
 591 697 545 702 545 744 c 0
 545 769 565 790 596 790 c 0
 637 790 664 751 664 701 c 0
 664 639 616 590 572 548 c 1
 555 564 l 1x1080
49 235 m 0xab
 49 322 75 388 118 433 c 0
 160 476 221 502 303 502 c 0
 349 502 386 493 414 478 c 1
 414 642 l 2
 414 680 408 685 382 688 c 2
 344 692 l 1
 344 717 l 1
 501 742 l 1
 508 736 l 1
 508 87 l 2
 508 36 512 34 583 29 c 1
 583 0 l 1
 421 0 l 1x6f
 413 7 l 1
 413 56 l 1
 359 12 312 -12 258 -12 c 0
 126 -12 49 87 49 235 c 0xab
153 247 m 0
 153 132 199 42 291 42 c 0xab
 343 42 387 62 407 114 c 0
 413 131 414 148 414 170 c 2
 414 346 l 2
 414 373 413 387 405 404 c 0
 387 445 349 467 302 467 c 0
 200 467 153 377 153 247 c 0
EndSplineSet
Substitution2: "'smcp' Lowercase to Small Capitals lookup 3 subtable" Dcaron.sc
EndChar

StartChar: Dcroat
Encoding: 272 272 208
Width: 779
GlyphClass: 2
Flags: MW
HStem: 0 35<284.5 347> 325 59<45 125 45 125 224 333> 657 35<286.5 367 367 446>
VStem: 125 99<93 125 125 325 384 599 599 600> 619 112<268.5 438.5>
LayerCount: 2
Fore
SplineSet
224 125 m 2
 224 46 241 35 328 35 c 0
 496 35 619 102 619 354 c 0
 619 523 552 657 340 657 c 0
 233 657 224 652 224 600 c 2
 224 384 l 1
 333 384 l 1
 333 325 l 1
 224 325 l 1
 224 125 l 2
35 0 m 1
 35 29 l 1
 123 35 125 37 125 93 c 2
 125 325 l 1
 45 325 l 1
 45 384 l 1
 125 384 l 1
 125 599 l 2
 125 655 123 657 35 663 c 1
 35 692 l 1
 367 692 l 2
 658 692 731 522 731 358 c 0
 731 179 654 0 347 0 c 2
 35 0 l 1
EndSplineSet
EndChar

StartChar: dcroat
Encoding: 273 273 209
Width: 598
GlyphClass: 2
Flags: MW
HStem: -12 54<245 285> 0 29<421 583> 467 35<262 325.5> 582 59<303 414 303 414 508 577> 692 25<344 344> 722 20G<501 501> 722 20G<501 501>
VStem: 49 104<189.5 278.5> 414 94<170 346 346 359.5 478 582 641 642 642 661>
LayerCount: 2
Fore
SplineSet
49 235 m 0xb980
 49 322 75 388 118 433 c 0
 160 476 221 502 303 502 c 0
 349 502 386 493 414 478 c 1
 414 582 l 1
 303 582 l 1
 303 641 l 1
 414 641 l 1
 414 642 l 2
 414 680 408 685 382 688 c 2
 344 692 l 1
 344 717 l 1
 501 742 l 1
 508 736 l 1
 508 641 l 1
 577 641 l 1
 577 582 l 1
 508 582 l 1
 508 87 l 2
 508 36 512 34 583 29 c 1
 583 0 l 1
 421 0 l 1x7d80
 413 7 l 1
 413 56 l 1
 359 12 312 -12 258 -12 c 0
 126 -12 49 87 49 235 c 0xb980
153 247 m 0
 153 132 199 42 291 42 c 0xb980
 343 42 387 62 407 114 c 0
 413 131 414 148 414 170 c 2
 414 346 l 2
 414 373 413 387 405 404 c 0
 387 445 349 467 302 467 c 0
 200 467 153 377 153 247 c 0
EndSplineSet
EndChar

StartChar: Emacron
Encoding: 274 274 210
Width: 606
GlyphClass: 2
Flags: MW
HStem: 0 35<329.5 416 329.5 565> 341 38<224 364 224 364> 657 35<245 261 261 359> 759 59<148 464 148 464>
VStem: 125 99<95.5 120 120 341 379 599 599 621> 148 316<759 818 759 818> 462 30<254 465 254 465> 510 30<528 692> 547 30<173 173>
AnchorPoint: "Anchor-5" 306 813 basechar 0
AnchorPoint: "Anchor-4" 306 0 basechar 0
LayerCount: 2
Fore
SplineSet
148 759 m 1x14
 148 818 l 1
 464 818 l 1
 464 759 l 1
 148 759 l 1x14
35 0 m 1xeb80
 35 29 l 1
 123 35 125 37 125 93 c 2
 125 599 l 2
 125 655 123 657 35 663 c 1
 35 692 l 1
 540 692 l 1
 540 528 l 1
 510 528 l 1
 496 632 473 657 359 657 c 2
 261 657 l 2
 229 657 224 653 224 621 c 2
 224 379 l 1
 364 379 l 2
 449 379 453 403 462 465 c 1
 492 465 l 1
 492 254 l 1
 462 254 l 1
 453 317 449 341 364 341 c 2
 224 341 l 1
 224 120 l 2
 224 71 228 54 249 45 c 0
 270 37 306 35 353 35 c 0
 479 35 524 51 547 173 c 1
 577 173 l 1
 565 0 l 1
 35 0 l 1xeb80
EndSplineSet
Substitution2: "'c2sc' Capitals to Small Capitals lookup 4 subtable" Emacron.sc
EndChar

StartChar: emacron
Encoding: 275 275 211
Width: 514
GlyphClass: 2
Flags: MW
HStem: -12 51<238 335.5> 263 38<154 343 343 357 154 441 153 343> 467 35<221 319.5> 597 59<134 422 134 422>
VStem: 49 104<263 263 263 316> 134 288<597 656 597 656> 377 104<323.5 330.5 284.5 352.5>
AnchorPoint: "Anchor-5" 278 636 basechar 0
AnchorPoint: "Anchor-4" 280 0 basechar 0
LayerCount: 2
Fore
SplineSet
134 597 m 1x14
 134 656 l 1
 422 656 l 1
 422 597 l 1
 134 597 l 1x14
49 241 m 0xea
 49 391 123 502 279 502 c 0
 462 502 481 360 481 301 c 0
 481 268 462 263 441 263 c 2
 153 263 l 1
 151 159 176 39 300 39 c 0
 379 39 417 87 445 145 c 1
 475 129 l 1
 448 50 391 -12 280 -12 c 0
 117 -12 49 83 49 241 c 0xea
154 301 m 1
 343 301 l 2
 371 301 377 314 377 333 c 0
 377 372 366 467 273 467 c 0
 169 467 154 342 154 301 c 1
EndSplineSet
Substitution2: "'smcp' Lowercase to Small Capitals lookup 3 subtable" Emacron.sc
EndChar

StartChar: Ebreve
Encoding: 276 276 212
Width: 606
GlyphClass: 2
Flags: MW
HStem: 0 35<329.5 416 329.5 565> 341 38<224 364 224 364> 657 35<245 261 261 359> 749 62<259 353 259 366.5>
VStem: 125 99<95.5 120 120 341 379 599 599 621> 156 28<842 870> 428 28<842 870> 462 30<254 465 254 465> 510 30<528 692> 547 30<173 173>
AnchorPoint: "Anchor-5" 306 865 basechar 0
AnchorPoint: "Anchor-4" 306 0 basechar 0
LayerCount: 2
Fore
SplineSet
156 870 m 1x16
 184 870 l 1
 186 851 212 811 306 811 c 0
 400 811 426 851 428 870 c 1
 456 870 l 1
 456 814 427 749 306 749 c 0
 185 749 156 814 156 870 c 1x16
35 0 m 1xe9c0
 35 29 l 1
 123 35 125 37 125 93 c 2
 125 599 l 2
 125 655 123 657 35 663 c 1
 35 692 l 1
 540 692 l 1
 540 528 l 1
 510 528 l 1
 496 632 473 657 359 657 c 2
 261 657 l 2
 229 657 224 653 224 621 c 2
 224 379 l 1
 364 379 l 2
 449 379 453 403 462 465 c 1
 492 465 l 1
 492 254 l 1
 462 254 l 1
 453 317 449 341 364 341 c 2
 224 341 l 1
 224 120 l 2
 224 71 228 54 249 45 c 0
 270 37 306 35 353 35 c 0
 479 35 524 51 547 173 c 1
 577 173 l 1
 565 0 l 1
 35 0 l 1xe9c0
EndSplineSet
Substitution2: "'c2sc' Capitals to Small Capitals lookup 4 subtable" Ebreve.sc
EndChar

StartChar: ebreve
Encoding: 277 277 213
Width: 514
GlyphClass: 2
Flags: MW
HStem: -12 51<238 335.5> 263 38<154 343 343 357 154 441 153 343> 467 35<221 319.5> 568 65<231.5 324.5 231.5 340.5> 684 20<141 165 165 165 391 415 415 415>
VStem: 49 104<263 263 263 316> 141 24<672.5 704> 377 104<323.5 330.5 284.5 352.5> 391 24<672.5 704>
AnchorPoint: "Anchor-5" 278 684 basechar 0
AnchorPoint: "Anchor-4" 280 0 basechar 0
LayerCount: 2
Fore
SplineSet
141 704 m 1x1a80
 165 704 l 1
 167 683 185 633 278 633 c 0
 371 633 389 683 391 704 c 1
 415 704 l 1
 415 641 403 568 278 568 c 0
 153 568 141 641 141 704 c 1x1a80
49 241 m 0xe5
 49 391 123 502 279 502 c 0
 462 502 481 360 481 301 c 0
 481 268 462 263 441 263 c 2
 153 263 l 1
 151 159 176 39 300 39 c 0
 379 39 417 87 445 145 c 1
 475 129 l 1
 448 50 391 -12 280 -12 c 0
 117 -12 49 83 49 241 c 0xe5
154 301 m 1
 343 301 l 2
 371 301 377 314 377 333 c 0
 377 372 366 467 273 467 c 0
 169 467 154 342 154 301 c 1
EndSplineSet
Substitution2: "'smcp' Lowercase to Small Capitals lookup 3 subtable" Ebreve.sc
EndChar

StartChar: Edotaccent
Encoding: 278 278 214
Width: 606
GlyphClass: 2
Flags: MW
HStem: 0 35<329.5 416 329.5 565> 341 38<224 364 224 364> 657 35<245 261 261 359> 732 109<287.5 325>
VStem: 125 99<95.5 120 120 341 379 599 599 621> 248 116<773 801> 462 30<254 465 254 465> 510 30<528 692> 547 30<173 173>
AnchorPoint: "Anchor-5" 306 836 basechar 0
AnchorPoint: "Anchor-4" 306 0 basechar 0
LayerCount: 2
Fore
SplineSet
248 787 m 0
 248 815 269 841 306 841 c 0
 344 841 364 815 364 787 c 0
 364 759 344 732 306 732 c 0
 269 732 248 759 248 787 c 0
35 0 m 1
 35 29 l 1
 123 35 125 37 125 93 c 2
 125 599 l 2
 125 655 123 657 35 663 c 1
 35 692 l 1
 540 692 l 1
 540 528 l 1
 510 528 l 1
 496 632 473 657 359 657 c 2
 261 657 l 2
 229 657 224 653 224 621 c 2
 224 379 l 1
 364 379 l 2
 449 379 453 403 462 465 c 1
 492 465 l 1
 492 254 l 1
 462 254 l 1
 453 317 449 341 364 341 c 2
 224 341 l 1
 224 120 l 2
 224 71 228 54 249 45 c 0
 270 37 306 35 353 35 c 0
 479 35 524 51 547 173 c 1
 577 173 l 1
 565 0 l 1
 35 0 l 1
EndSplineSet
EndChar

StartChar: edotaccent
Encoding: 279 279 215
Width: 514
GlyphClass: 2
Flags: MW
HStem: -12 51<238 335.5> 263 38<154 343 343 357 154 441 153 343> 467 35<221 319.5> 570 113<258.5 297.5>
VStem: 49 104<263 263 263 316> 218 120<612.5 641.5> 377 104<323.5 330.5 284.5 352.5>
AnchorPoint: "Anchor-5" 278 663 basechar 0
AnchorPoint: "Anchor-4" 280 0 basechar 0
LayerCount: 2
Fore
SplineSet
218 627 m 0
 218 656 239 683 278 683 c 0
 317 683 338 656 338 627 c 0
 338 598 317 570 278 570 c 0
 239 570 218 598 218 627 c 0
49 241 m 0
 49 391 123 502 279 502 c 0
 462 502 481 360 481 301 c 0
 481 268 462 263 441 263 c 2
 153 263 l 1
 151 159 176 39 300 39 c 0
 379 39 417 87 445 145 c 1
 475 129 l 1
 448 50 391 -12 280 -12 c 0
 117 -12 49 83 49 241 c 0
154 301 m 1
 343 301 l 2
 371 301 377 314 377 333 c 0
 377 372 366 467 273 467 c 0
 169 467 154 342 154 301 c 1
EndSplineSet
EndChar

StartChar: Eogonek
Encoding: 280 280 216
Width: 606
GlyphClass: 2
Flags: MW
HStem: -230 44<462 470> 0 35<329.5 416 329.5 453> 341 38<224 364 224 364> 657 35<245 261 261 359>
VStem: 125 99<95.5 120 120 341 379 599 599 621> 346 74<-150 -107.5> 462 30<254 465 254 465> 510 30<528 692> 547 30<173 173>
AnchorPoint: "Anchor-5" 288 707 basechar 0
LayerCount: 2
Fore
SplineSet
35 0 m 1
 35 29 l 1
 123 35 125 37 125 93 c 2
 125 599 l 2
 125 655 123 657 35 663 c 1
 35 692 l 1
 540 692 l 1
 540 528 l 1
 510 528 l 1
 496 632 473 657 359 657 c 2
 261 657 l 2
 229 657 224 653 224 621 c 2
 224 379 l 1
 364 379 l 2
 449 379 453 403 462 465 c 1
 492 465 l 1
 492 254 l 1
 462 254 l 1
 453 317 449 341 364 341 c 2
 224 341 l 1
 224 120 l 2
 224 71 228 54 249 45 c 0
 270 37 306 35 353 35 c 0
 479 35 524 51 547 173 c 1
 577 173 l 1
 565 0 l 1
 496 0 l 1
 448 -40 420 -82 420 -132 c 0
 420 -168 446 -186 478 -186 c 0
 494 -186 518 -182 535 -174 c 1
 543 -195 l 1
 519 -216 490 -230 450 -230 c 0
 360 -230 346 -170 346 -139 c 0
 346 -76 389 -36 453 0 c 1
 35 0 l 1
EndSplineSet
EndChar

StartChar: eogonek
Encoding: 281 281 217
Width: 514
GlyphClass: 2
Flags: MW
HStem: -230 44<361 369> -12 51<238 289.5> 263 38<154 343 343 357 154 441 153 343> 467 35<221 319.5>
VStem: 49 104<263 263 263 316> 245 74<-150 -111> 377 104<323.5 330.5 284.5 352.5>
AnchorPoint: "Anchor-5" 278 502 basechar 0
LayerCount: 2
Fore
SplineSet
49 241 m 0
 49 391 123 502 279 502 c 0
 462 502 481 360 481 301 c 0
 481 268 462 263 441 263 c 2
 153 263 l 1
 151 159 176 39 300 39 c 0
 379 39 417 87 445 145 c 1
 475 129 l 1
 458 80 437 51 399 11 c 0
 349 -41 319 -78 319 -132 c 0
 319 -168 345 -186 377 -186 c 0
 393 -186 417 -182 434 -174 c 1
 442 -195 l 1
 418 -216 389 -230 349 -230 c 0
 259 -230 245 -170 245 -139 c 0
 245 -83 281 -41 345 -4 c 1
 325 -10 299 -12 280 -12 c 0
 117 -12 49 83 49 241 c 0
154 301 m 1
 343 301 l 2
 371 301 377 314 377 333 c 0
 377 372 366 467 273 467 c 0
 169 467 154 342 154 301 c 1
EndSplineSet
EndChar

StartChar: Ecaron
Encoding: 282 282 218
Width: 606
GlyphClass: 2
Flags: MW
HStem: 0 35<329.5 416 329.5 565> 341 38<224 364 224 364> 657 35<245 261 261 359> 723 84<302 310.5 302 312>
VStem: 125 99<95.5 120 120 341 379 599 599 621> 153 306<861 861> 462 30<254 465 254 465> 510 30<528 692> 547 30<173 173>
AnchorPoint: "Anchor-5" 306 877 basechar 0
AnchorPoint: "Anchor-4" 306 0 basechar 0
LayerCount: 2
Fore
SplineSet
153 861 m 1x14
 166 882 l 1
 273 821 l 2
 286 814 298 807 306 807 c 0
 315 807 326 814 339 821 c 2
 446 882 l 1
 459 861 l 1
 343 747 l 2
 330 735 318 723 306 723 c 0
 294 723 283 734 269 747 c 2
 153 861 l 1x14
35 0 m 1xeb80
 35 29 l 1
 123 35 125 37 125 93 c 2
 125 599 l 2
 125 655 123 657 35 663 c 1
 35 692 l 1
 540 692 l 1
 540 528 l 1
 510 528 l 1
 496 632 473 657 359 657 c 2
 261 657 l 2
 229 657 224 653 224 621 c 2
 224 379 l 1
 364 379 l 2
 449 379 453 403 462 465 c 1
 492 465 l 1
 492 254 l 1
 462 254 l 1
 453 317 449 341 364 341 c 2
 224 341 l 1
 224 120 l 2
 224 71 228 54 249 45 c 0
 270 37 306 35 353 35 c 0
 479 35 524 51 547 173 c 1
 577 173 l 1
 565 0 l 1
 35 0 l 1xeb80
EndSplineSet
Substitution2: "'c2sc' Capitals to Small Capitals lookup 4 subtable" Ecaron.sc
EndChar

StartChar: ecaron
Encoding: 283 283 219
Width: 514
GlyphClass: 2
Flags: MW
HStem: -12 51<238 335.5> 263 38<154 343 343 357 154 441 153 343> 467 35<221 319.5> 541 87<274 282.5 274 284> 679 20<125 125 431 431> 700 20<144 144 412 412>
VStem: 49 104<263 263 263 316> 125 306<699 699> 377 104<323.5 330.5 284.5 352.5>
AnchorPoint: "Anchor-5" 278 700 basechar 0
AnchorPoint: "Anchor-4" 280 0 basechar 0
LayerCount: 2
Fore
SplineSet
125 699 m 1x1d
 144 720 l 1
 247 643 l 2
 258 635 270 628 278 628 c 0
 287 628 298 635 309 643 c 2
 412 720 l 1
 431 699 l 1
 314 566 l 2
 302 553 290 541 278 541 c 0
 266 541 255 552 242 566 c 2
 125 699 l 1x1d
49 241 m 0xe280
 49 391 123 502 279 502 c 0
 462 502 481 360 481 301 c 0
 481 268 462 263 441 263 c 2
 153 263 l 1
 151 159 176 39 300 39 c 0
 379 39 417 87 445 145 c 1
 475 129 l 1
 448 50 391 -12 280 -12 c 0
 117 -12 49 83 49 241 c 0xe280
154 301 m 1
 343 301 l 2
 371 301 377 314 377 333 c 0
 377 372 366 467 273 467 c 0
 169 467 154 342 154 301 c 1
EndSplineSet
Substitution2: "'smcp' Lowercase to Small Capitals lookup 3 subtable" Ecaron.sc
EndChar

StartChar: Gcircumflex
Encoding: 284 284 220
Width: 734
GlyphClass: 2
Flags: MW
HStem: -15 35<380 450 318 459> 286 29<449 725 449 725> 672 35<355 470 355 475> 792 84<425 433.5>
VStem: 48 112<286.5 385> 276 306<738 738> 555 99<89 224 27 248.5> 615 30<509 666>
AnchorPoint: "Anchor-5" 429 856 basechar 0
AnchorPoint: "Anchor-4" 424 0 basechar 0
LayerCount: 2
Fore
SplineSet
276 738 m 1x14
 392 852 l 2
 406 865 417 876 429 876 c 0
 441 876 453 864 466 852 c 2
 582 738 l 1
 569 717 l 1
 462 778 l 2
 449 785 438 792 429 792 c 0
 421 792 409 785 396 778 c 2
 289 717 l 1
 276 738 l 1x14
48 333 m 0xea
 48 437 72 517 123 584 c 0
 180 658 280 707 430 707 c 0
 510 707 596 690 645 666 c 1
 645 509 l 1
 615 509 l 1xe9
 594 622 530 672 420 672 c 0
 223 672 160 507 160 349 c 0
 160 224 203 20 433 20 c 0
 467 20 495 25 521 35 c 0
 542 43 555 54 555 89 c 2
 555 224 l 2
 555 273 550 279 449 286 c 1
 449 315 l 1
 725 315 l 1
 725 286 l 1
 659 279 654 274 654 224 c 2
 654 27 l 1
 591 7 494 -15 424 -15 c 0
 336 -15 248 -4 172 49 c 0
 99 101 48 204 48 333 c 0xea
EndSplineSet
EndChar

StartChar: gcircumflex
Encoding: 285 285 221
Width: 520
GlyphClass: 2
Flags: MW
HStem: -242 35<238.5 288> 7 75<247 315> 171 35<248.5 287 230 301.5> 467 35<233.5 283 183.5 284.5> 541 20 633 87<250 258.5>
VStem: 42 95<-127 -74 -127 -60> 53 102<292 371> 69 83<76.5 139.5> 101 306<562 562> 360 96<292 355 273.5 382.5> 424 84<-95 -51.5>
AnchorPoint: "Anchor-5" 254 690 basechar 0
AnchorPoint: "Anchor-4" 258 -230 basechar 0
LayerCount: 2
Fore
SplineSet
101 562 m 1x0c40
 218 695 l 2
 231 709 242 720 254 720 c 0
 266 720 278 708 290 695 c 2
 407 562 l 1
 388 541 l 1
 285 618 l 2
 274 626 263 633 254 633 c 0
 246 633 234 626 223 618 c 2
 120 541 l 1
 101 562 l 1x0c40
42 -96 m 0xf210
 42 -24 114 0 157 14 c 1
 157 16 l 1
 109 21 69 59 69 94 c 0xf080
 69 133 107 162 161 183 c 1
 161 185 l 1
 115 197 53 240 53 334 c 0xf1
 53 408 107 502 260 502 c 0
 306 502 361 490 389 471 c 1
 517 512 l 1
 525 503 l 1
 505 440 l 1
 426 428 l 1
 443 411 456 376 456 334 c 0
 456 213 349 171 254 171 c 0
 243 171 222 172 203 174 c 1
 190 170 152 154 152 125 c 0xf0a0
 152 106 163 82 235 82 c 2
 315 82 l 2
 422 82 508 44 508 -64 c 0
 508 -126 475 -173 429 -201 c 0
 381 -230 318 -242 258 -242 c 0
 142 -242 42 -197 42 -96 c 0xf210
137 -91 m 0xf210
 137 -163 196 -207 281 -207 c 0
 352 -207 424 -169 424 -89 c 0
 424 -14 359 7 271 7 c 0
 223 7 190 1 168 -16 c 0
 147 -32 137 -57 137 -91 c 0xf210
155 334 m 0xf120
 155 250 202 206 258 206 c 0
 316 206 360 250 360 334 c 0
 360 431 309 467 260 467 c 0
 207 467 155 433 155 334 c 0xf120
EndSplineSet
EndChar

StartChar: Gbreve
Encoding: 286 286 222
Width: 734
GlyphClass: 2
Flags: MW
HStem: -15 35<380 450 318 459> 286 29<449 725 449 725> 672 35<355 470 355 475> 749 62<382 476 382 489.5>
VStem: 48 112<286.5 385> 279 28<842 870> 551 28<842 870> 555 99<89 224 27 248.5> 615 30<509 666>
AnchorPoint: "Anchor-5" 429 850 basechar 0
AnchorPoint: "Anchor-4" 424 0 basechar 0
LayerCount: 2
Fore
SplineSet
279 870 m 1x16
 307 870 l 1
 309 851 335 811 429 811 c 0
 523 811 549 851 551 870 c 1
 579 870 l 1
 579 814 550 749 429 749 c 0
 308 749 279 814 279 870 c 1x16
48 333 m 0xe9
 48 437 72 517 123 584 c 0
 180 658 280 707 430 707 c 0
 510 707 596 690 645 666 c 1
 645 509 l 1
 615 509 l 1xe880
 594 622 530 672 420 672 c 0
 223 672 160 507 160 349 c 0
 160 224 203 20 433 20 c 0
 467 20 495 25 521 35 c 0
 542 43 555 54 555 89 c 2
 555 224 l 2
 555 273 550 279 449 286 c 1
 449 315 l 1
 725 315 l 1
 725 286 l 1
 659 279 654 274 654 224 c 2
 654 27 l 1
 591 7 494 -15 424 -15 c 0
 336 -15 248 -4 172 49 c 0
 99 101 48 204 48 333 c 0xe9
EndSplineSet
EndChar

StartChar: gbreve
Encoding: 287 287 223
Width: 520
GlyphClass: 2
Flags: MW
HStem: -242 35<238.5 288> 7 75<247 315> 171 35<248.5 287 230 301.5> 467 35<233.5 283 183.5 284.5> 568 65<207.5 300.5 207.5 316.5> 684 20<117 141 141 141 367 391 391 391>
VStem: 42 95<-127 -74 -127 -60> 53 102<292 371> 69 83<76.5 139.5> 117 24<672.5 704> 360 96<292 355 273.5 382.5> 367 24<672.5 704> 424 84<-95 -51.5>
AnchorPoint: "Anchor-5" 254 674 basechar 0
AnchorPoint: "Anchor-4" 258 -230 basechar 0
LayerCount: 2
Fore
SplineSet
117 704 m 1x0c50
 141 704 l 1
 143 683 161 633 254 633 c 0
 347 633 365 683 367 704 c 1
 391 704 l 1
 391 641 379 568 254 568 c 0
 129 568 117 641 117 704 c 1x0c50
42 -96 m 0xf208
 42 -24 114 0 157 14 c 1
 157 16 l 1
 109 21 69 59 69 94 c 0xf080
 69 133 107 162 161 183 c 1
 161 185 l 1
 115 197 53 240 53 334 c 0xf1
 53 408 107 502 260 502 c 0
 306 502 361 490 389 471 c 1
 517 512 l 1
 525 503 l 1
 505 440 l 1
 426 428 l 1
 443 411 456 376 456 334 c 0
 456 213 349 171 254 171 c 0
 243 171 222 172 203 174 c 1
 190 170 152 154 152 125 c 0xf0a0
 152 106 163 82 235 82 c 2
 315 82 l 2
 422 82 508 44 508 -64 c 0
 508 -126 475 -173 429 -201 c 0
 381 -230 318 -242 258 -242 c 0
 142 -242 42 -197 42 -96 c 0xf208
137 -91 m 0xf208
 137 -163 196 -207 281 -207 c 0
 352 -207 424 -169 424 -89 c 0
 424 -14 359 7 271 7 c 0
 223 7 190 1 168 -16 c 0
 147 -32 137 -57 137 -91 c 0xf208
155 334 m 0xf120
 155 250 202 206 258 206 c 0
 316 206 360 250 360 334 c 0
 360 431 309 467 260 467 c 0
 207 467 155 433 155 334 c 0xf120
EndSplineSet
EndChar

StartChar: Gdotaccent
Encoding: 288 288 224
Width: 734
GlyphClass: 2
Flags: MW
HStem: -15 35<380 450 318 459> 286 29<449 725 449 725> 672 35<355 470 355 475> 732 109<410.5 448>
VStem: 48 112<286.5 385> 371 116<773 801> 555 99<89 224 27 248.5> 615 30<509 666>
AnchorPoint: "Anchor-5" 429 821 basechar 0
AnchorPoint: "Anchor-4" 424 0 basechar 0
LayerCount: 2
Fore
SplineSet
371 787 m 0x14
 371 815 392 841 429 841 c 0
 467 841 487 815 487 787 c 0
 487 759 467 732 429 732 c 0
 392 732 371 759 371 787 c 0x14
48 333 m 0xea
 48 437 72 517 123 584 c 0
 180 658 280 707 430 707 c 0
 510 707 596 690 645 666 c 1
 645 509 l 1
 615 509 l 1xe9
 594 622 530 672 420 672 c 0
 223 672 160 507 160 349 c 0
 160 224 203 20 433 20 c 0
 467 20 495 25 521 35 c 0
 542 43 555 54 555 89 c 2
 555 224 l 2
 555 273 550 279 449 286 c 1
 449 315 l 1
 725 315 l 1
 725 286 l 1
 659 279 654 274 654 224 c 2
 654 27 l 1
 591 7 494 -15 424 -15 c 0
 336 -15 248 -4 172 49 c 0
 99 101 48 204 48 333 c 0xea
EndSplineSet
EndChar

StartChar: gdotaccent
Encoding: 289 289 225
Width: 520
GlyphClass: 2
Flags: MW
HStem: -242 35<238.5 288> 7 75<247 315> 171 35<248.5 287 230 301.5> 467 35<233.5 283 183.5 284.5> 570 113<234.5 273.5>
VStem: 42 95<-127 -74 -127 -60> 53 102<292 371> 69 83<76.5 139.5> 194 120<612.5 641.5> 360 96<292 355 273.5 382.5> 424 84<-95 -51.5>
AnchorPoint: "Anchor-5" 254 653 basechar 0
AnchorPoint: "Anchor-4" 258 -230 basechar 0
LayerCount: 2
Fore
SplineSet
194 627 m 0x0880
 194 656 215 683 254 683 c 0
 293 683 314 656 314 627 c 0
 314 598 293 570 254 570 c 0
 215 570 194 598 194 627 c 0x0880
42 -96 m 0xf420
 42 -24 114 0 157 14 c 1
 157 16 l 1
 109 21 69 59 69 94 c 0xf1
 69 133 107 162 161 183 c 1
 161 185 l 1
 115 197 53 240 53 334 c 0xf2
 53 408 107 502 260 502 c 0
 306 502 361 490 389 471 c 1
 517 512 l 1
 525 503 l 1
 505 440 l 1
 426 428 l 1
 443 411 456 376 456 334 c 0
 456 213 349 171 254 171 c 0
 243 171 222 172 203 174 c 1
 190 170 152 154 152 125 c 0xf140
 152 106 163 82 235 82 c 2
 315 82 l 2
 422 82 508 44 508 -64 c 0
 508 -126 475 -173 429 -201 c 0
 381 -230 318 -242 258 -242 c 0
 142 -242 42 -197 42 -96 c 0xf420
137 -91 m 0xf420
 137 -163 196 -207 281 -207 c 0
 352 -207 424 -169 424 -89 c 0
 424 -14 359 7 271 7 c 0
 223 7 190 1 168 -16 c 0
 147 -32 137 -57 137 -91 c 0xf420
155 334 m 0xf240
 155 250 202 206 258 206 c 0
 316 206 360 250 360 334 c 0
 360 431 309 467 260 467 c 0
 207 467 155 433 155 334 c 0xf240
EndSplineSet
EndChar

StartChar: Hcircumflex
Encoding: 292 292 226
Width: 798
GlyphClass: 2
Flags: MW
HStem: 0 29<35 35 35 314> 341 38<224 574 224 574> 663 29<35 314 35 314> 792 84<395 403.5>
VStem: 125 99<93 341 379 599> 246 306<738 738> 574 99<93 341 341 341 379 599>
CounterMasks: 1 0e
AnchorPoint: "Anchor-5" 399 871 basechar 0
AnchorPoint: "Anchor-4" 399 0 basechar 0
LayerCount: 2
Fore
SplineSet
246 738 m 1
 362 852 l 2
 376 865 387 876 399 876 c 0
 411 876 423 864 436 852 c 2
 552 738 l 1
 539 717 l 1
 432 778 l 2
 419 785 408 792 399 792 c 0
 391 792 379 785 366 778 c 2
 259 717 l 1
 246 738 l 1
35 0 m 1
 35 29 l 1
 123 35 125 37 125 93 c 2
 125 599 l 2
 125 655 123 657 35 663 c 1
 35 692 l 1
 314 692 l 1
 314 663 l 1
 227 657 224 655 224 599 c 2
 224 379 l 1
 574 379 l 1
 574 599 l 2
 574 655 572 657 484 663 c 1
 484 692 l 1
 763 692 l 1
 763 663 l 1
 676 657 673 655 673 599 c 2
 673 93 l 2
 673 37 676 35 763 29 c 1
 763 0 l 1
 484 0 l 1
 484 29 l 1
 572 35 574 37 574 93 c 2
 574 341 l 1
 224 341 l 1
 224 93 l 2
 224 37 227 35 314 29 c 1
 314 0 l 1
 35 0 l 1
EndSplineSet
EndChar

StartChar: hcircumflex
Encoding: 293 293 227
Width: 607
GlyphClass: 2
Flags: MW
HStem: 0 29<21 21 21 264> 448 54<332.5 352> 722 20<181 181> 781 20 873 87<302 310.5>
VStem: 95 94<87 321> 153 306<802 802> 423 94<87 323 323 343>
AnchorPoint: "Anchor-5" 306 940 basechar 0
AnchorPoint: "Anchor-4" 306 0 basechar 0
LayerCount: 2
Fore
SplineSet
153 802 m 1x1a
 270 935 l 2
 283 949 294 960 306 960 c 0
 318 960 330 948 342 935 c 2
 459 802 l 1
 440 781 l 1
 337 858 l 2
 326 866 315 873 306 873 c 0
 298 873 286 866 275 858 c 2
 172 781 l 1
 153 802 l 1x1a
21 0 m 1xe5
 21 29 l 1
 91 34 95 38 95 87 c 2
 95 642 l 2
 95 678 89 683 63 687 c 2
 25 692 l 1
 25 717 l 1
 181 742 l 1
 188 736 l 1
 188 426 l 1
 251 468 296 502 369 502 c 0
 462 502 517 444 517 343 c 2
 517 87 l 2
 517 38 523 34 592 29 c 1
 592 0 l 1
 348 0 l 1
 348 29 l 1
 418 34 423 38 423 87 c 2
 423 323 l 2
 423 410 386 448 318 448 c 0
 265 448 219 415 198 375 c 0
 190 360 189 346 189 321 c 2
 189 87 l 2
 189 38 195 34 264 29 c 1
 264 0 l 1
 21 0 l 1xe5
EndSplineSet
EndChar

StartChar: Hbar
Encoding: 294 294 228
Width: 798
GlyphClass: 2
Flags: MW
HStem: 0 29<35 35 35 314> 341 38<224 574 224 574> 564 35<48 125 48 125 224 574 673 750> 663 29<35 314 35 314>
VStem: 125 99<93 341 379 564 599 627> 574 99<93 341 341 341 379 564 599 627>
LayerCount: 2
Fore
SplineSet
35 0 m 1
 35 29 l 1
 123 35 125 37 125 93 c 2
 125 564 l 1
 48 564 l 1
 48 599 l 1
 125 599 l 1
 125 655 123 657 35 663 c 1
 35 692 l 1
 314 692 l 1
 314 663 l 1
 227 657 224 655 224 599 c 1
 574 599 l 1
 574 655 572 657 484 663 c 1
 484 692 l 1
 763 692 l 1
 763 663 l 1
 676 657 673 655 673 599 c 1
 750 599 l 1
 750 564 l 1
 673 564 l 1
 673 93 l 2
 673 37 676 35 763 29 c 1
 763 0 l 1
 484 0 l 1
 484 29 l 1
 572 35 574 37 574 93 c 2
 574 341 l 1
 224 341 l 1
 224 93 l 2
 224 37 227 35 314 29 c 1
 314 0 l 1
 35 0 l 1
224 379 m 1
 574 379 l 1
 574 564 l 1
 224 564 l 1
 224 379 l 1
EndSplineSet
EndChar

StartChar: hbar
Encoding: 295 295 229
Width: 607
GlyphClass: 2
Flags: MW
HStem: 0 29<21 21 21 264> 443 54<332.5 352> 564 35<20 95 20 95 188 409> 692 50
VStem: 95 93<421 564 421 564 421 564 599 642 642 660> 423 94<87 318 318 338>
LayerCount: 2
Fore
SplineSet
21 0 m 1
 21 29 l 1
 91 34 95 38 95 87 c 2
 95 564 l 1
 20 564 l 1
 20 599 l 1
 95 599 l 1
 95 642 l 2
 95 678 89 683 63 687 c 2
 25 692 l 1
 25 717 l 1
 181 742 l 1
 188 736 l 1
 188 599 l 1
 409 599 l 1
 409 564 l 1
 188 564 l 1
 188 421 l 1
 251 463 296 497 369 497 c 0
 462 497 517 439 517 338 c 2
 517 87 l 2
 517 38 523 34 592 29 c 1
 592 0 l 1
 348 0 l 1
 348 29 l 1
 418 34 423 38 423 87 c 2
 423 318 l 2
 423 405 386 443 318 443 c 0
 265 443 219 410 198 370 c 0
 190 355 189 341 189 316 c 2
 189 87 l 2
 189 38 195 34 264 29 c 1
 264 0 l 1
 21 0 l 1
EndSplineSet
EndChar

StartChar: Itilde
Encoding: 296 296 230
Width: 349
GlyphClass: 2
Flags: MW
HStem: 0 29<35 35 35 314> 663 29<35 314 35 314> 736 60<253.5 272.5> 774 60<77 99>
VStem: 125 99<93 599>
LayerCount: 2
Fore
SplineSet
-3 736 m 1x20
 17 776 45 834 109 834 c 0x10
 133 834 161 825 188 815 c 1
 216 806 243 796 264 796 c 0
 292 796 304 807 332 842 c 1
 352 831 l 1
 323 774 297 736 248 736 c 0x20
 226 736 197 746 168 755 c 0
 139 765 110 774 88 774 c 0x10
 55 774 38 758 16 723 c 1
 -3 736 l 1x20
35 0 m 1xc8
 35 29 l 1
 123 35 125 37 125 93 c 2
 125 599 l 2
 125 655 123 657 35 663 c 1
 35 692 l 1
 314 692 l 1
 314 663 l 1
 227 657 224 655 224 599 c 2
 224 93 l 2
 224 37 227 35 314 29 c 1
 314 0 l 1
 35 0 l 1xc8
EndSplineSet
Substitution2: "'c2sc' Capitals to Small Capitals lookup 4 subtable" Itilde.sc
EndChar

StartChar: itilde
Encoding: 297 297 231
Width: 291
GlyphClass: 2
Flags: MW
HStem: 0 29<32 32 32 276> 452 25<37 37> 482 20<194 194> 576 60<229.5 236.5> 614 60<53 75>
VStem: 107 94<87 402 402 420>
LayerCount: 2
Fore
SplineSet
32 0 m 1xe4
 32 29 l 1
 104 34 107 36 107 87 c 2
 107 402 l 2
 107 438 101 443 75 447 c 2
 37 452 l 1
 37 477 l 1
 194 502 l 1
 201 496 l 1
 201 87 l 2
 201 36 205 34 276 29 c 1
 276 0 l 1
 32 0 l 1xe4
-27 576 m 1x10
 -7 616 21 674 85 674 c 0x08
 109 674 137 665 164 655 c 1
 192 646 219 636 240 636 c 0
 268 636 280 647 308 682 c 1
 328 671 l 1
 314 643 300 619 284 602 c 1
 267 586 249 576 224 576 c 0x10
 202 576 173 586 144 595 c 0
 115 605 86 614 64 614 c 0x08
 31 614 14 598 -8 563 c 1
 -27 576 l 1x10
EndSplineSet
Substitution2: "'smcp' Lowercase to Small Capitals lookup 3 subtable" Itilde.sc
EndChar

StartChar: Imacron
Encoding: 298 298 232
Width: 349
GlyphClass: 2
Flags: MW
HStem: 0 29<35 35 35 314> 663 29<35 314 35 314> 759 59<16 332 16 332>
VStem: 16 316<759 818 759 818> 125 99<93 599>
AnchorPoint: "Anchor-5" 174 813 basechar 0
AnchorPoint: "Anchor-4" 174 0 basechar 0
LayerCount: 2
Fore
SplineSet
16 759 m 1x30
 16 818 l 1
 332 818 l 1
 332 759 l 1
 16 759 l 1x30
35 0 m 1xc8
 35 29 l 1
 123 35 125 37 125 93 c 2
 125 599 l 2
 125 655 123 657 35 663 c 1
 35 692 l 1
 314 692 l 1
 314 663 l 1
 227 657 224 655 224 599 c 2
 224 93 l 2
 224 37 227 35 314 29 c 1
 314 0 l 1
 35 0 l 1xc8
EndSplineSet
Substitution2: "'c2sc' Capitals to Small Capitals lookup 4 subtable" Imacron.sc
EndChar

StartChar: imacron
Encoding: 299 299 233
Width: 291
GlyphClass: 3
Flags: MW
HStem: 0 29<32 32 32 276> 452 25<37 37> 482 20<194 194> 597 59<10 298 10 298>
VStem: 10 288<597 656 597 656> 107 94<87 402 402 420>
AnchorPoint: "Anchor-5" 154 636 basechar 0
AnchorPoint: "Anchor-4" 154 0 basechar 0
LayerCount: 2
Fore
SplineSet
10 597 m 1x18
 10 656 l 1
 298 656 l 1
 298 597 l 1
 10 597 l 1x18
32 0 m 1xe4
 32 29 l 1
 104 34 107 36 107 87 c 2
 107 402 l 2
 107 438 101 443 75 447 c 2
 37 452 l 1
 37 477 l 1
 194 502 l 1
 201 496 l 1
 201 87 l 2
 201 36 205 34 276 29 c 1
 276 0 l 1
 32 0 l 1xe4
EndSplineSet
Substitution2: "'smcp' Lowercase to Small Capitals lookup 3 subtable" Imacron.sc
Ligature2: "'liga' Standard Ligatures in Latin lookup 1 subtable" i uni0304
EndChar

